<?xml version="1.0" encoding="UTF-8" standalone="no"?>
<!DOCTYPE svg PUBLIC "-//W3C//DTD SVG 1.1//EN" "http://www.w3.org/Graphics/SVG/1.1/DTD/svg11.dtd">
<svg xmlns="http://www.w3.org/2000/svg" version="1.1" viewBox="0.00 0.00 370.00 370.00">
<circle fill="#2f1e9b" cx="135.08" cy="45.12" r="5.02"/>
<path fill="#2f1e9b" d="
  M 169.81 57.25
  Q 168.82 58.80 167.22 59.82
  A 0.44 0.44 0.0 0 0 167.24 60.57
  C 168.41 61.26 169.63 62.22 169.92 63.63
  Q 170.77 67.88 167.29 69.67
  Q 166.56 70.05 167.24 70.51
  C 168.44 71.32 169.77 72.33 169.98 73.87
  Q 170.62 78.67 166.62 79.86
  Q 163.80 80.70 161.69 78.81
  C 158.76 76.18 159.81 72.30 163.10 70.50
  Q 163.73 70.15 163.10 69.79
  C 158.96 67.43 158.93 62.75 163.10 60.48
  Q 163.64 60.18 163.12 59.85
  C 159.09 57.26 158.83 52.57 163.13 50.48
  Q 163.68 50.21 163.17 49.88
  C 155.63 45.03 163.50 36.59 168.63 41.54
  Q 170.62 43.46 169.94 46.48
  Q 169.49 48.49 167.36 49.66
  Q 166.59 50.08 167.33 50.55
  Q 168.94 51.59 169.90 53.15
  Q 170.18 53.60 170.43 53.14
  C 171.52 51.12 173.62 49.55 176.00 50.12
  C 183.09 51.83 180.32 62.19 173.18 59.74
  Q 171.49 59.16 170.62 57.31
  Q 170.27 56.55 169.81 57.25
  Z"
/>
<path fill="#2f1e9b" d="
  M 229.81 67.37
  Q 228.57 69.36 226.68 69.86
  C 220.49 71.48 217.17 63.54 223.15 60.45
  Q 223.70 60.17 223.17 59.87
  Q 221.38 58.86 220.45 57.11
  Q 220.13 56.52 219.81 57.11
  Q 218.66 59.24 216.91 59.78
  Q 212.64 61.10 210.45 57.09
  Q 210.13 56.51 209.83 57.10
  Q 208.69 59.27 207.44 59.68
  Q 202.61 61.23 200.46 57.07
  Q 200.12 56.40 199.80 57.08
  Q 198.48 59.88 195.65 60.03
  C 189.75 60.34 187.84 53.57 193.14 50.43
  Q 193.67 50.12 193.13 49.83
  Q 191.31 48.84 190.49 47.08
  Q 190.22 46.49 189.89 47.06
  C 189.15 48.37 187.91 49.77 186.34 49.98
  Q 181.55 50.63 180.17 46.31
  C 178.48 41.03 186.78 37.17 189.75 43.01
  Q 190.14 43.77 190.52 43.01
  C 191.60 40.91 193.74 39.57 196.17 40.20
  Q 200.30 41.26 200.06 45.74
  C 199.96 47.78 198.78 48.76 197.26 49.78
  Q 196.65 50.20 197.29 50.57
  Q 198.96 51.56 199.98 53.31
  A 0.24 0.24 0.0 0 0 200.41 53.28
  C 202.30 48.84 207.26 49.07 209.82 53.09
  Q 210.20 53.68 210.52 53.06
  C 212.68 48.83 217.42 49.14 219.87 53.14
  Q 220.19 53.65 220.46 53.12
  C 222.08 50.01 225.55 48.87 228.41 51.30
  Q 230.57 53.14 230.02 56.26
  C 229.75 57.78 228.54 58.90 227.31 59.71
  Q 226.70 60.11 227.30 60.53
  Q 228.90 61.63 229.93 63.11
  Q 230.21 63.52 230.47 63.10
  Q 233.14 58.75 237.10 60.51
  Q 239.54 61.59 239.97 64.09
  C 240.64 67.94 237.85 70.61 234.06 70.00
  Q 231.80 69.63 230.58 67.39
  Q 230.22 66.72 229.81 67.37
  Z"
/>
<circle fill="#2f1e9b" cx="135.10" cy="65.11" r="5.04"/>
<path fill="#2f1e9b" d="
  M 150.52 83.03
  C 152.18 79.93 155.91 78.85 158.55 81.46
  Q 160.88 83.76 159.79 86.92
  Q 158.58 90.40 154.23 90.01
  C 152.44 89.85 151.40 88.66 150.49 87.27
  Q 150.12 86.72 149.78 87.28
  Q 147.52 91.02 143.32 89.78
  Q 141.54 89.26 140.53 87.20
  Q 140.22 86.56 139.85 87.17
  Q 138.85 88.79 137.21 89.84
  Q 136.57 90.25 137.25 90.59
  Q 140.00 91.97 140.11 94.84
  Q 140.22 97.62 138.32 99.00
  C 134.10 102.06 128.53 98.25 130.46 93.21
  Q 131.13 91.44 133.06 90.51
  Q 133.68 90.21 133.09 89.85
  Q 131.41 88.84 130.50 87.18
  Q 130.13 86.52 129.79 87.19
  C 127.86 90.93 122.93 91.11 120.75 87.61
  C 117.41 82.25 125.77 76.44 129.75 82.98
  Q 130.14 83.63 130.54 82.98
  C 133.00 78.92 137.51 79.08 139.79 83.04
  Q 140.13 83.63 140.48 83.04
  Q 141.40 81.45 142.95 80.47
  Q 143.52 80.10 142.95 79.73
  C 135.67 75.01 143.62 66.26 148.87 71.77
  Q 150.33 73.31 150.07 75.87
  Q 149.92 77.40 148.97 78.35
  Q 148.17 79.15 147.27 79.78
  Q 146.73 80.16 147.29 80.53
  Q 148.92 81.61 149.89 83.06
  Q 150.23 83.57 150.52 83.03
  Z"
/>
<path fill="#2f1e9b" d="
  M 199.78 87.14
  Q 198.72 89.25 197.42 89.67
  Q 192.69 91.22 190.46 87.16
  Q 190.14 86.58 189.83 87.17
  Q 188.30 90.13 184.99 90.08
  C 179.65 90.00 178.04 82.85 183.04 80.54
  Q 187.01 78.71 189.83 83.07
  Q 190.18 83.61 190.49 83.05
  Q 191.42 81.34 193.15 80.43
  Q 193.68 80.15 193.17 79.84
  C 185.98 75.54 192.73 66.90 198.24 71.19
  Q 200.52 72.97 200.01 76.19
  C 199.74 77.90 198.69 78.89 197.31 79.72
  Q 196.67 80.11 197.30 80.52
  Q 198.92 81.61 199.91 83.10
  Q 200.23 83.57 200.49 83.07
  C 201.88 80.35 204.82 79.13 207.63 80.76
  Q 210.61 82.49 210.02 86.26
  C 209.77 87.83 208.62 88.93 207.32 89.71
  Q 206.64 90.11 207.30 90.55
  Q 208.92 91.62 209.88 93.16
  Q 210.18 93.65 210.46 93.15
  C 212.98 88.63 217.32 89.26 219.89 93.14
  Q 220.19 93.60 220.46 93.12
  C 222.89 88.84 227.40 89.09 229.81 93.09
  Q 230.17 93.68 230.49 93.06
  Q 231.37 91.38 233.16 90.42
  Q 233.64 90.16 233.17 89.87
  C 225.49 85.02 233.68 76.33 238.80 81.71
  Q 240.51 83.51 239.95 86.34
  Q 239.51 88.54 237.36 89.67
  Q 236.63 90.06 237.31 90.53
  Q 238.88 91.63 239.89 93.09
  Q 240.25 93.61 240.51 93.03
  Q 241.48 90.83 243.61 90.33
  Q 248.17 89.26 249.75 93.38
  Q 251.17 97.09 247.38 99.74
  Q 246.77 100.17 247.39 100.58
  C 248.57 101.36 249.75 102.37 249.96 103.87
  C 250.45 107.49 248.71 110.13 244.98 110.08
  C 239.53 110.00 238.19 102.76 242.99 100.41
  Q 243.45 100.18 243.03 99.90
  Q 241.41 98.79 240.45 97.14
  Q 240.17 96.66 239.89 97.15
  Q 238.66 99.26 236.91 99.80
  Q 232.77 101.07 230.61 97.34
  Q 230.20 96.63 229.76 97.32
  Q 228.84 98.78 227.39 99.71
  Q 226.60 100.21 227.42 100.65
  Q 229.95 102.01 230.08 104.73
  C 230.46 112.65 218.29 111.29 220.29 103.66
  Q 220.79 101.74 223.07 100.48
  Q 223.66 100.15 223.08 99.81
  Q 221.48 98.88 220.45 97.12
  Q 220.11 96.56 219.81 97.14
  Q 218.67 99.36 216.62 99.89
  Q 212.58 100.93 210.66 97.36
  Q 210.25 96.59 209.77 97.32
  Q 208.81 98.79 207.28 99.78
  Q 206.72 100.15 207.28 100.52
  C 208.28 101.20 209.65 102.23 209.90 103.50
  C 210.68 107.38 208.48 110.50 204.45 110.05
  C 199.29 109.49 198.44 102.86 203.13 100.50
  Q 203.70 100.21 203.15 99.86
  C 199.02 97.27 198.86 92.66 203.13 90.46
  Q 203.68 90.17 203.14 89.86
  Q 201.40 88.85 200.47 87.13
  Q 200.12 86.48 199.78 87.14
  Z"
/>
<circle fill="#2f1e9b" cx="215.10" cy="75.10" r="5.05"/>
<path fill="#2f1e9b" d="
  M 170.64 97.33
  Q 170.21 96.45 169.73 97.31
  Q 168.96 98.68 167.43 99.63
  Q 166.48 100.22 167.48 100.73
  Q 169.33 101.67 169.83 103.37
  Q 170.75 106.55 168.76 108.64
  Q 167.19 110.29 164.58 110.07
  C 159.32 109.61 158.40 102.90 163.11 100.48
  Q 163.74 100.16 163.12 99.81
  C 155.15 95.30 164.37 84.86 169.84 93.09
  Q 170.25 93.72 170.56 93.04
  C 172.25 89.36 176.63 89.09 179.21 92.11
  Q 180.13 93.18 180.03 94.47
  C 179.93 95.68 180.25 96.68 179.49 97.77
  C 177.26 100.92 172.49 101.07 170.64 97.33
  Z"
/>
<path fill="#2f1e9b" d="
  M 110.49 123.05
  C 112.98 118.72 117.29 119.21 119.82 123.07
  Q 120.18 123.61 120.49 123.04
  Q 121.39 121.39 123.06 120.44
  Q 123.64 120.10 123.05 119.77
  C 118.94 117.50 118.95 112.89 123.12 110.44
  Q 123.64 110.13 123.12 109.85
  C 116.08 105.92 122.46 96.93 128.15 101.10
  Q 130.15 102.57 130.10 105.18
  Q 130.04 108.30 127.38 109.61
  Q 126.74 109.93 127.27 110.41
  L 129.46 112.42
  Q 129.78 112.71 129.85 113.13
  C 130.38 115.97 130.18 117.91 127.50 119.54
  Q 126.55 120.12 127.49 120.72
  Q 128.89 121.60 129.78 122.98
  Q 130.23 123.69 130.60 122.94
  C 132.44 119.19 136.76 119.13 139.35 122.35
  Q 140.06 123.23 140.01 124.38
  C 139.96 125.58 140.19 126.68 139.48 127.73
  Q 137.65 130.44 134.19 130.03
  C 132.37 129.82 131.40 128.64 130.48 127.24
  A 0.41 0.41 0.0 0 0 129.78 127.26
  Q 127.56 131.01 123.34 129.79
  Q 121.62 129.29 120.61 127.34
  Q 120.24 126.63 119.79 127.29
  C 119.03 128.39 118.01 129.60 116.64 129.89
  Q 112.42 130.80 110.54 127.27
  Q 110.18 126.60 109.80 127.26
  C 107.92 130.55 103.34 131.28 101.02 128.08
  C 97.02 122.55 105.70 116.17 109.80 123.05
  Q 110.15 123.64 110.49 123.05
  Z"
/>
<path fill="#2f1e9b" d="
  M 143.10 109.84
  C 135.54 104.96 143.69 96.41 148.73 101.63
  Q 150.72 103.69 149.85 106.79
  Q 149.33 108.63 147.29 109.71
  Q 146.70 110.02 147.24 110.42
  C 148.48 111.34 149.86 112.39 150.04 114.06
  C 150.44 117.84 148.13 120.56 144.34 120.02
  C 139.25 119.30 138.50 112.96 143.07 110.47
  Q 143.61 110.17 143.10 109.84
  Z"
/>
<path fill="#2f1e9b" d="
  M 179.80 117.21
  C 178.06 120.49 173.59 121.24 171.22 118.33
  C 166.63 112.68 175.92 106.05 179.76 113.03
  Q 180.13 113.71 180.50 113.03
  Q 181.40 111.39 183.05 110.46
  Q 183.60 110.15 183.07 109.81
  C 175.68 105.04 183.46 96.54 188.64 101.53
  Q 190.48 103.30 190.01 106.17
  C 189.71 108.02 188.67 108.80 187.27 109.78
  Q 186.66 110.21 187.31 110.59
  Q 191.12 112.77 189.81 116.84
  Q 188.54 120.77 183.66 119.90
  Q 181.72 119.55 180.58 117.22
  A 0.44 0.44 0.0 0 0 179.80 117.21
  Z"
/>
<path fill="#2f1e9b" d="
  M 97.07 140.39
  Q 98.80 141.52 99.89 143.10
  Q 100.20 143.54 100.48 143.08
  Q 102.95 138.99 106.71 140.34
  Q 109.79 141.45 110.09 144.74
  C 110.48 149.11 106.44 150.95 102.65 149.61
  Q 101.71 149.28 100.53 147.28
  Q 100.20 146.72 99.85 147.26
  C 97.39 151.06 92.61 151.17 90.47 147.14
  Q 90.13 146.49 89.80 147.15
  Q 88.77 149.20 86.90 149.78
  Q 82.60 151.10 80.50 147.13
  Q 80.20 146.57 79.87 147.12
  C 79.09 148.44 77.89 149.71 76.27 149.97
  C 70.09 150.96 67.47 143.34 73.13 140.47
  Q 73.67 140.19 73.15 139.88
  Q 71.40 138.84 70.43 137.07
  Q 70.09 136.46 69.79 137.09
  Q 68.28 140.28 64.76 140.11
  C 59.47 139.84 58.29 132.98 63.02 130.53
  Q 63.73 130.16 63.03 129.77
  C 54.86 125.21 65.04 114.83 69.77 123.06
  Q 70.08 123.61 70.43 123.08
  C 72.45 120.07 75.60 118.66 78.63 121.54
  Q 80.27 123.10 80.09 125.59
  Q 79.87 128.51 77.10 129.74
  Q 76.43 130.03 77.07 130.40
  Q 78.84 131.44 79.88 133.14
  Q 80.20 133.67 80.48 133.12
  C 82.77 128.59 87.37 129.34 89.89 133.15
  Q 90.17 133.59 90.44 133.14
  C 92.60 129.49 96.66 128.80 99.25 132.22
  Q 100.11 133.36 100.11 135.03
  Q 100.13 138.34 97.11 139.81
  Q 96.57 140.07 97.07 140.39
  Z
  M 70.35 133.33
  Q 71.33 131.35 73.22 130.36
  Q 73.65 130.13 73.22 129.89
  Q 71.39 128.91 70.49 127.12
  Q 70.21 126.56 69.88 127.10
  Q 68.86 128.81 67.20 129.84
  Q 66.64 130.19 67.21 130.53
  Q 68.95 131.57 69.98 133.34
  A 0.21 0.21 0.0 0 0 70.35 133.33
  Z
  M 80.54 137.32
  Q 80.50 137.19 80.44 137.05
  A 0.26 0.26 0.0 0 0 79.98 137.02
  Q 78.83 138.82 77.17 139.86
  Q 76.60 140.22 77.19 140.55
  Q 78.81 141.43 79.85 143.14
  Q 80.18 143.68 80.46 143.12
  Q 81.37 141.38 83.11 140.41
  Q 83.59 140.15 83.13 139.87
  Q 81.64 138.97 80.64 137.52
  Q 80.58 137.43 80.54 137.32
  Z
  M 92.92 140.35
  A 0.35 0.35 0.0 0 0 92.92 139.87
  L 90.44 137.28
  A 0.35 0.35 0.0 0 0 89.95 137.27
  L 87.23 139.92
  A 0.35 0.35 0.0 0 0 87.23 140.42
  L 89.89 143.05
  A 0.35 0.35 0.0 0 0 90.40 143.04
  L 92.92 140.35
  Z"
/>
<path fill="#2f1e9b" d="
  M 297.26 180.60
  Q 300.62 182.24 300.01 186.24
  C 299.75 187.92 298.60 188.88 297.28 189.78
  Q 296.69 190.18 297.31 190.53
  Q 300.64 192.41 300.02 196.16
  C 299.73 197.94 298.63 198.90 297.23 199.83
  Q 296.64 200.22 297.27 200.55
  Q 300.67 202.33 300.01 206.19
  C 299.71 207.92 298.62 208.89 297.28 209.82
  Q 296.70 210.21 297.31 210.57
  Q 298.96 211.55 299.85 213.16
  Q 300.14 213.69 300.44 213.17
  Q 302.63 209.32 306.22 210.20
  Q 309.37 210.98 309.99 214.15
  Q 310.54 216.99 308.57 218.78
  Q 306.37 220.79 302.79 219.69
  Q 301.76 219.38 300.56 217.23
  Q 300.24 216.65 299.87 217.20
  C 299.06 218.40 297.97 219.69 296.46 219.97
  C 290.19 221.14 287.36 213.45 293.18 210.44
  Q 293.69 210.18 293.19 209.88
  Q 291.39 208.81 290.44 207.13
  Q 290.12 206.56 289.81 207.13
  Q 288.65 209.29 287.44 209.68
  Q 282.70 211.23 280.55 207.27
  Q 280.21 206.65 279.83 207.24
  Q 278.81 208.81 277.24 209.82
  Q 276.65 210.20 277.26 210.55
  Q 281.08 212.72 279.82 216.86
  Q 279.00 219.54 276.00 220.03
  C 270.00 220.99 267.68 213.42 273.18 210.42
  Q 273.73 210.12 273.18 209.82
  C 270.07 208.12 268.78 204.67 271.26 201.89
  C 274.29 198.48 277.52 199.91 279.94 203.17
  Q 280.25 203.59 280.47 203.12
  Q 281.31 201.34 283.24 200.36
  Q 283.70 200.13 283.25 199.87
  C 279.01 197.55 278.79 192.71 283.11 190.47
  Q 283.73 190.15 283.11 189.81
  Q 281.38 188.89 280.51 187.24
  Q 280.20 186.67 279.85 187.22
  C 279.04 188.49 277.94 189.74 276.35 190.00
  Q 272.71 190.60 270.90 187.90
  C 268.97 185.02 270.27 181.93 273.14 180.47
  Q 273.74 180.16 273.15 179.84
  Q 271.39 178.87 270.43 177.12
  Q 270.12 176.54 269.82 177.13
  Q 268.34 180.04 265.15 180.10
  Q 263.03 180.13 261.64 178.76
  C 256.09 173.29 265.77 165.63 269.84 173.17
  Q 270.14 173.73 270.43 173.16
  Q 271.37 171.34 273.13 170.46
  Q 273.71 170.16 273.15 169.83
  C 268.98 167.36 268.87 162.69 273.13 160.47
  Q 273.71 160.16 273.15 159.83
  C 268.95 157.38 268.90 152.77 273.12 150.44
  Q 273.66 150.14 273.12 149.84
  Q 271.37 148.86 270.45 147.14
  Q 270.13 146.55 269.82 147.15
  Q 268.11 150.51 264.25 150.03
  Q 262.53 149.82 261.32 148.43
  C 258.81 145.55 260.02 142.07 263.16 140.44
  Q 263.73 140.15 263.16 139.86
  Q 261.48 138.99 260.47 137.13
  Q 260.15 136.53 259.82 137.13
  Q 257.62 141.20 252.78 139.70
  Q 251.74 139.38 250.58 137.27
  Q 250.23 136.62 249.82 137.24
  Q 248.81 138.79 247.32 139.77
  Q 246.64 140.21 247.36 140.60
  Q 250.73 142.41 249.95 146.51
  C 249.66 148.01 248.48 148.99 247.26 149.79
  Q 246.64 150.20 247.29 150.56
  Q 250.97 152.60 249.87 156.66
  Q 249.08 159.56 245.87 160.04
  C 239.98 160.91 237.72 153.35 243.07 150.44
  Q 243.61 150.15 243.08 149.84
  Q 241.41 148.86 240.44 147.19
  A 0.38 0.37 43.2 0 0 239.78 147.21
  Q 238.75 149.25 236.97 149.78
  Q 232.63 151.07 230.65 147.42
  Q 230.20 146.59 229.71 147.39
  Q 228.82 148.82 227.30 149.77
  Q 226.58 150.22 227.33 150.61
  Q 230.68 152.34 230.02 156.20
  C 229.74 157.87 228.72 158.91 227.33 159.70
  Q 226.65 160.09 227.30 160.53
  Q 228.92 161.60 229.86 163.06
  Q 230.18 163.55 230.49 163.05
  Q 233.04 158.86 236.91 160.41
  Q 240.63 161.90 239.99 166.29
  C 239.75 167.91 238.54 168.93 237.28 169.79
  Q 236.67 170.20 237.30 170.57
  Q 241.32 172.93 239.65 177.29
  Q 239.10 178.72 237.56 179.51
  Q 236.44 180.09 237.53 180.71
  Q 238.84 181.46 239.47 182.67
  Q 240.02 183.73 240.73 182.76
  Q 244.63 177.38 249.29 182.21
  Q 249.63 182.57 249.82 182.99
  Q 250.17 183.77 250.56 183.00
  C 252.23 179.63 256.16 178.97 258.87 181.77
  Q 260.35 183.29 260.08 185.77
  Q 259.80 188.36 257.31 189.74
  Q 256.66 190.11 257.29 190.50
  Q 258.81 191.47 259.84 193.14
  Q 260.21 193.74 260.51 193.11
  C 262.90 188.12 270.00 189.59 270.12 194.96
  C 270.21 198.85 266.79 200.96 263.22 199.76
  Q 261.53 199.19 260.65 197.33
  Q 260.27 196.54 259.79 197.28
  Q 258.80 198.80 257.26 199.80
  Q 256.65 200.20 257.27 200.56
  Q 261.15 202.84 259.76 206.88
  Q 258.46 210.65 253.80 209.95
  C 252.28 209.72 251.31 208.52 250.55 207.26
  Q 250.25 206.76 249.89 207.22
  C 248.96 208.39 247.89 209.79 246.30 209.99
  Q 241.61 210.57 240.21 206.43
  C 239.19 203.44 241.91 200.11 244.93 200.02
  Q 248.03 199.93 249.83 203.15
  Q 250.13 203.68 250.42 203.14
  Q 251.37 201.36 253.31 200.32
  A 0.24 0.24 0.0 0 0 253.30 199.89
  C 248.97 197.76 248.83 192.74 253.13 190.45
  Q 253.71 190.14 253.13 189.84
  Q 251.50 189.00 250.57 187.30
  Q 250.20 186.65 249.81 187.28
  C 249.02 188.55 247.86 189.75 246.32 190.00
  Q 242.26 190.65 240.55 187.28
  Q 240.20 186.60 239.82 187.26
  Q 238.22 190.05 235.17 190.11
  C 229.53 190.23 228.13 183.07 233.14 180.45
  Q 233.68 180.16 233.15 179.87
  Q 231.53 178.98 230.51 177.29
  Q 230.13 176.67 229.76 177.29
  C 229.00 178.56 227.83 179.76 226.30 180.00
  Q 222.27 180.62 220.55 177.29
  Q 220.21 176.63 219.83 177.27
  C 217.94 180.52 213.48 181.26 211.07 178.16
  C 206.83 172.70 215.86 165.99 219.84 173.16
  Q 220.14 173.69 220.42 173.15
  Q 221.37 171.35 223.27 170.34
  A 0.25 0.25 0.0 0 0 223.27 169.90
  C 218.96 167.49 218.83 162.75 223.14 160.43
  Q 223.65 160.15 223.16 159.85
  C 218.99 157.33 218.86 152.64 223.11 150.45
  Q 223.64 150.17 223.13 149.88
  Q 221.54 148.96 220.54 147.34
  Q 220.09 146.61 219.69 147.37
  Q 218.72 149.21 216.97 149.76
  Q 212.72 151.11 210.63 147.38
  Q 210.22 146.66 209.76 147.35
  Q 208.79 148.80 207.31 149.76
  Q 206.58 150.22 207.34 150.62
  Q 209.79 151.92 210.06 154.35
  Q 210.35 157.07 208.80 158.55
  C 204.94 162.25 198.84 158.91 200.26 153.67
  Q 200.81 151.65 203.09 150.47
  Q 203.69 150.16 203.10 149.83
  Q 201.36 148.86 200.54 147.28
  Q 200.21 146.65 199.82 147.24
  Q 197.03 151.51 192.90 149.55
  Q 189.37 147.88 190.17 144.00
  Q 190.63 141.78 193.08 140.49
  Q 193.69 140.17 193.09 139.83
  Q 191.42 138.86 190.51 137.23
  Q 190.14 136.58 189.78 137.23
  Q 188.60 139.32 187.43 139.69
  Q 182.65 141.20 180.51 137.17
  Q 180.21 136.58 179.86 137.15
  Q 178.85 138.80 177.28 139.79
  Q 176.71 140.16 177.28 140.53
  C 178.46 141.32 179.75 142.34 179.99 143.83
  Q 180.69 148.06 177.11 149.80
  Q 176.52 150.08 177.08 150.41
  Q 178.81 151.44 179.86 153.13
  Q 180.21 153.68 180.51 153.10
  C 181.94 150.32 185.29 148.84 187.96 151.00
  C 188.73 151.63 189.71 152.48 189.92 153.49
  Q 190.85 157.83 187.26 159.74
  Q 186.63 160.08 187.23 160.47
  Q 188.80 161.49 189.80 163.05
  Q 190.19 163.65 190.52 163.02
  C 191.86 160.45 194.91 159.05 197.56 160.68
  Q 200.66 162.59 200.00 166.27
  C 199.69 168.00 198.54 168.86 197.23 169.82
  Q 196.63 170.25 197.29 170.59
  Q 200.60 172.30 200.02 176.25
  C 199.78 177.87 198.60 178.95 197.28 179.75
  Q 196.65 180.12 197.27 180.52
  Q 198.93 181.58 199.90 183.18
  Q 200.19 183.65 200.44 183.16
  C 202.35 179.44 206.56 178.88 209.29 182.26
  C 210.34 183.57 210.01 185.32 209.91 186.84
  A 1.37 1.37 0.0 0 1 209.62 187.59
  Q 208.62 188.89 207.25 189.81
  Q 206.62 190.24 207.30 190.59
  Q 210.17 192.09 210.11 195.27
  Q 210.07 197.46 208.62 198.80
  C 206.69 200.57 203.05 200.66 201.30 198.39
  Q 197.93 194.01 202.81 190.63
  Q 203.73 190.00 202.73 189.51
  Q 201.37 188.85 200.73 187.51
  Q 200.21 186.45 199.63 187.48
  Q 198.61 189.29 196.85 189.82
  C 190.60 191.69 187.09 183.56 193.13 180.46
  Q 193.69 180.17 193.15 179.86
  Q 191.40 178.85 190.51 177.21
  Q 190.21 176.65 189.87 177.19
  C 188.88 178.73 187.63 180.02 185.65 180.09
  Q 181.32 180.24 180.12 176.19
  C 179.41 173.79 181.14 171.49 183.16 170.41
  Q 183.66 170.15 183.16 169.87
  Q 181.54 168.97 180.57 167.28
  Q 180.17 166.57 179.75 167.28
  C 177.56 171.05 172.49 171.14 170.55 167.24
  Q 170.25 166.64 169.88 167.19
  C 168.90 168.64 167.73 169.89 165.85 170.06
  C 159.88 170.60 157.71 163.33 163.14 160.45
  Q 163.65 160.17 163.15 159.88
  Q 161.56 158.97 160.51 157.29
  Q 160.17 156.75 159.82 157.28
  C 159.06 158.44 157.91 159.69 156.49 159.96
  Q 152.44 160.74 150.62 157.38
  Q 150.25 156.68 149.80 157.33
  C 149.04 158.45 147.99 159.62 146.61 159.91
  Q 142.46 160.78 140.59 157.40
  Q 140.25 156.79 139.85 157.37
  Q 137.10 161.30 133.00 159.63
  Q 130.49 158.60 130.03 155.49
  Q 129.70 153.21 131.89 151.27
  C 134.68 148.80 138.14 150.12 139.81 153.12
  Q 140.12 153.67 140.44 153.12
  Q 141.40 151.43 143.00 150.41
  Q 143.46 150.13 143.00 149.83
  C 140.25 148.08 139.03 145.32 140.81 142.51
  C 141.88 140.82 144.01 139.58 146.04 140.12
  Q 149.40 141.00 149.96 143.91
  Q 150.74 147.96 147.13 149.85
  Q 146.67 150.09 147.11 150.37
  Q 148.83 151.49 149.85 153.13
  Q 150.07 153.49 150.32 153.15
  Q 155.03 146.69 159.91 153.09
  Q 160.28 153.58 160.53 153.02
  Q 161.31 151.29 163.08 150.47
  Q 163.65 150.20 163.12 149.86
  C 159.09 147.21 158.77 142.51 163.16 140.41
  Q 163.71 140.15 163.17 139.87
  Q 161.52 139.00 160.46 137.14
  Q 160.12 136.53 159.81 137.15
  C 158.09 140.58 153.33 141.27 151.02 138.07
  C 147.07 132.58 155.45 126.11 159.88 133.18
  Q 160.14 133.60 160.38 133.17
  Q 161.32 131.51 163.07 130.45
  Q 163.69 130.07 163.04 129.76
  C 156.05 126.30 162.51 116.52 168.34 121.24
  Q 170.62 123.08 169.96 126.36
  C 169.65 127.95 168.68 128.93 167.34 129.69
  Q 166.63 130.10 167.31 130.55
  Q 168.92 131.61 169.88 133.14
  Q 170.20 133.64 170.47 133.12
  C 172.86 128.61 177.32 129.30 179.87 133.14
  Q 180.20 133.64 180.48 133.11
  C 182.87 128.61 187.36 129.30 189.91 133.15
  Q 190.18 133.57 190.42 133.13
  Q 191.38 131.37 193.11 130.44
  Q 193.68 130.13 193.12 129.80
  C 185.27 125.29 194.09 114.95 199.82 123.03
  Q 200.23 123.61 200.56 122.98
  C 202.10 120.10 205.24 119.04 208.03 121.02
  Q 210.39 122.69 210.07 125.84
  C 209.89 127.69 208.83 128.87 207.31 129.74
  Q 206.67 130.10 207.28 130.52
  Q 208.92 131.62 209.87 133.06
  Q 210.20 133.57 210.51 133.04
  C 212.90 128.96 217.63 129.01 219.79 133.11
  Q 220.11 133.72 220.44 133.11
  Q 221.39 131.40 223.10 130.41
  Q 223.64 130.11 223.10 129.80
  C 215.77 125.72 223.08 116.45 228.53 121.43
  Q 229.92 122.70 230.05 124.50
  Q 230.33 128.22 227.18 129.81
  A 0.39 0.39 0.0 0 0 227.17 130.50
  Q 231.26 132.68 229.70 137.44
  Q 229.36 138.46 227.27 139.80
  Q 226.69 140.17 227.27 140.53
  Q 228.78 141.45 229.84 142.98
  Q 230.23 143.54 230.56 142.94
  C 232.52 139.41 236.70 138.89 239.23 142.22
  Q 239.57 142.68 239.96 143.10
  Q 240.23 143.40 240.44 143.05
  Q 241.40 141.42 243.22 140.30
  Q 243.54 140.10 243.22 139.90
  C 234.64 134.66 245.33 125.05 249.83 133.12
  Q 250.13 133.66 250.43 133.13
  Q 251.40 131.39 253.08 130.44
  Q 253.59 130.15 253.10 129.83
  C 244.82 124.41 255.24 115.22 259.81 123.04
  Q 260.17 123.66 260.51 123.02
  C 263.21 117.92 270.45 119.85 270.08 125.51
  Q 269.88 128.40 267.23 129.80
  A 0.41 0.41 0.0 0 0 267.22 130.52
  Q 271.05 132.59 269.80 136.88
  Q 269.25 138.75 267.26 139.75
  Q 266.64 140.06 267.22 140.45
  Q 268.80 141.49 269.87 143.07
  Q 270.23 143.60 270.52 143.03
  C 272.01 140.14 275.22 139.04 278.04 141.02
  Q 280.57 142.79 280.01 146.19
  C 279.73 147.88 278.68 148.93 277.31 149.75
  Q 276.69 150.13 277.30 150.52
  Q 278.95 151.58 279.89 153.14
  Q 280.21 153.66 280.47 153.11
  C 281.81 150.37 284.80 149.10 287.62 150.75
  Q 290.64 152.50 289.98 156.32
  C 289.73 157.82 288.40 159.32 286.98 159.77
  Q 282.67 161.13 280.55 157.25
  Q 280.21 156.63 279.83 157.23
  Q 278.83 158.80 277.26 159.81
  Q 276.57 160.25 277.31 160.61
  Q 280.64 162.26 280.01 166.19
  C 279.72 167.94 278.57 168.89 277.23 169.83
  Q 276.68 170.21 277.27 170.54
  Q 281.05 172.69 279.81 176.91
  Q 279.29 178.67 277.47 179.60
  Q 276.50 180.09 277.44 180.64
  Q 278.83 181.44 279.48 182.68
  Q 280.00 183.68 280.68 182.78
  Q 284.82 177.24 289.38 182.40
  Q 289.63 182.68 289.74 183.01
  Q 289.80 183.16 289.90 183.28
  Q 290.23 183.67 290.45 183.20
  Q 291.30 181.35 293.18 180.42
  Q 293.80 180.11 293.17 179.81
  C 284.79 175.76 294.87 164.44 299.86 173.20
  Q 300.19 173.76 300.46 173.18
  Q 301.33 171.32 303.15 170.47
  Q 303.77 170.18 303.18 169.84
  Q 299.37 167.61 300.11 164.09
  C 300.67 161.43 303.59 159.47 306.32 160.15
  C 307.91 160.55 309.01 161.82 309.90 163.11
  Q 310.19 163.53 310.46 163.09
  C 312.96 158.92 317.56 158.98 319.82 163.11
  Q 320.14 163.69 320.44 163.10
  Q 321.34 161.34 323.14 160.41
  Q 323.68 160.14 323.15 159.83
  C 316.04 155.73 322.52 147.07 327.99 150.95
  Q 330.55 152.78 330.01 156.27
  C 329.76 157.93 328.54 158.91 327.29 159.84
  Q 326.74 160.24 327.33 160.57
  Q 330.72 162.44 329.99 166.34
  C 329.67 167.99 328.49 168.88 327.27 169.81
  Q 326.75 170.21 327.30 170.56
  Q 329.34 171.86 329.67 172.78
  Q 331.26 177.19 327.43 179.71
  Q 326.78 180.14 327.41 180.60
  C 328.55 181.43 329.79 182.34 329.98 183.87
  Q 330.58 188.56 326.71 189.83
  Q 323.02 191.05 320.52 187.30
  Q 320.15 186.75 319.78 187.29
  C 319.00 188.43 317.97 189.69 316.52 189.93
  Q 311.71 190.75 310.20 186.45
  C 309.22 183.65 311.67 180.41 314.48 180.05
  Q 317.79 179.63 319.87 183.17
  Q 320.20 183.74 320.47 183.14
  Q 321.30 181.32 323.17 180.45
  Q 323.76 180.17 323.19 179.84
  C 318.91 177.32 318.87 172.90 323.16 170.44
  Q 323.70 170.13 323.15 169.84
  Q 321.53 168.99 320.54 167.33
  Q 320.10 166.60 319.70 167.35
  Q 318.63 169.36 316.73 169.86
  Q 312.58 170.96 310.62 167.34
  Q 310.23 166.60 309.77 167.31
  Q 308.81 168.80 307.31 169.77
  Q 306.60 170.23 307.36 170.63
  Q 310.14 172.06 310.13 175.17
  C 310.11 180.58 302.61 182.04 300.51 177.10
  Q 300.26 176.52 299.93 177.06
  Q 298.84 178.82 297.22 179.84
  Q 296.56 180.26 297.26 180.60
  Z
  M 197.08 130.41
  Q 198.84 131.42 199.82 133.07
  Q 200.16 133.64 200.48 133.05
  Q 201.39 131.38 203.06 130.44
  Q 203.63 130.12 203.06 129.79
  Q 201.42 128.86 200.51 127.22
  Q 200.21 126.68 199.88 127.20
  Q 198.82 128.82 197.07 129.95
  A 0.27 0.27 0.0 0 0 197.08 130.41
  Z
  M 260.41 133.17
  Q 261.40 131.32 263.19 130.35
  Q 263.56 130.15 263.21 129.91
  Q 261.37 128.69 260.50 127.25
  Q 260.31 126.92 260.04 127.20
  L 257.31 129.98
  A 0.38 0.38 0.0 0 0 257.37 130.57
  Q 258.97 131.63 259.94 133.18
  Q 260.19 133.57 260.41 133.17
  Z
  M 170.41 143.18
  Q 171.37 141.35 173.14 140.42
  Q 173.67 140.15 173.15 139.87
  Q 171.53 138.98 170.55 137.28
  Q 170.22 136.71 169.85 137.25
  Q 168.81 138.79 167.15 139.89
  Q 166.73 140.17 167.15 140.45
  Q 168.97 141.64 169.93 143.19
  Q 170.19 143.61 170.41 143.18
  Z
  M 200.55 137.25
  Q 200.21 136.62 199.83 137.22
  Q 198.83 138.79 197.23 139.82
  Q 196.68 140.18 197.25 140.51
  Q 198.83 141.43 199.84 143.07
  Q 200.18 143.61 200.47 143.05
  Q 201.37 141.37 203.16 140.36
  Q 203.65 140.09 203.15 139.84
  Q 201.50 138.99 200.55 137.25
  Z
  M 207.07 140.42
  Q 208.81 141.49 209.88 143.06
  Q 210.22 143.57 210.50 143.03
  Q 211.36 141.38 213.08 140.42
  Q 213.62 140.12 213.09 139.81
  Q 211.42 138.87 210.52 137.26
  Q 210.23 136.74 209.88 137.23
  Q 208.81 138.76 207.06 139.95
  A 0.28 0.28 0.0 0 0 207.07 140.42
  Z
  M 217.10 140.42
  Q 218.84 141.42 219.80 143.02
  Q 220.17 143.64 220.51 143.00
  Q 221.38 141.38 223.09 140.42
  Q 223.64 140.11 223.08 139.81
  Q 221.55 138.98 220.55 137.28
  Q 220.22 136.72 219.85 137.25
  Q 218.80 138.81 217.09 139.93
  A 0.29 0.29 0.0 0 0 217.10 140.42
  Z
  M 170.29 153.37
  Q 171.38 151.32 173.14 150.40
  Q 173.67 150.13 173.15 149.84
  Q 171.39 148.87 170.46 147.13
  Q 170.19 146.60 169.88 147.11
  Q 168.86 148.82 167.23 149.82
  Q 166.65 150.18 167.24 150.53
  Q 168.97 151.56 170.03 153.38
  Q 170.16 153.61 170.29 153.37
  Z
  M 166.92 160.33
  C 168.19 161.25 169.03 161.79 169.89 163.14
  Q 170.19 163.60 170.44 163.11
  Q 171.37 161.35 173.12 160.42
  Q 173.67 160.13 173.11 159.83
  Q 171.52 159.00 170.56 157.29
  Q 170.22 156.67 169.82 157.26
  Q 168.68 158.98 166.93 159.99
  Q 166.66 160.15 166.92 160.33
  Z
  M 180.41 163.17
  Q 181.39 161.38 183.11 160.42
  Q 183.61 160.15 183.12 159.86
  Q 181.42 158.84 180.52 157.23
  Q 180.22 156.69 179.87 157.20
  Q 178.80 158.79 177.21 159.85
  Q 176.71 160.18 177.22 160.50
  Q 178.93 161.58 179.92 163.19
  Q 180.18 163.60 180.41 163.17
  Z
  M 190.42 173.20
  Q 191.36 171.37 193.11 170.44
  Q 193.70 170.13 193.10 169.82
  Q 191.53 168.99 190.54 167.23
  Q 190.22 166.67 189.86 167.20
  Q 188.82 168.77 187.15 169.87
  Q 186.72 170.16 187.15 170.44
  Q 188.89 171.57 189.93 173.22
  Q 190.19 173.64 190.42 173.20
  Z
  M 230.41 173.18
  Q 231.36 171.35 233.13 170.42
  Q 233.63 170.16 233.14 169.87
  Q 231.40 168.85 230.50 167.22
  Q 230.21 166.68 229.88 167.19
  Q 228.81 168.82 227.15 169.88
  Q 226.79 170.11 227.14 170.36
  Q 228.94 171.63 229.95 173.21
  Q 230.20 173.60 230.41 173.18
  Z
  M 290.43 193.21
  Q 291.32 191.34 293.20 190.41
  Q 293.71 190.15 293.21 189.89
  Q 291.51 188.99 290.49 187.19
  Q 290.20 186.69 289.89 187.17
  Q 288.81 188.81 287.18 189.89
  Q 286.71 190.20 287.20 190.49
  Q 288.96 191.53 289.91 193.23
  Q 290.19 193.72 290.43 193.21
  Z
  M 290.38 203.26
  Q 291.32 201.33 293.18 200.40
  Q 293.68 200.15 293.19 199.89
  Q 291.51 198.99 290.52 197.24
  Q 290.22 196.71 289.87 197.22
  Q 288.80 198.79 287.20 199.90
  Q 286.78 200.18 287.21 200.45
  Q 288.95 201.57 289.97 203.28
  Q 290.19 203.65 290.38 203.26
  Z"
/>
<path fill="#2f1e9b" d="
  M 283.16 129.84
  C 276.33 126.02 282.11 117.43 287.57 120.70
  Q 290.60 122.52 289.95 126.33
  Q 289.62 128.26 287.82 129.39
  Q 286.52 130.20 287.85 130.96
  Q 289.96 132.17 290.08 134.78
  Q 290.19 137.30 288.66 138.76
  C 286.48 140.83 282.42 140.50 280.81 137.73
  Q 278.34 133.44 283.17 130.40
  Q 283.63 130.11 283.16 129.84
  Z"
/>
<circle fill="#2f1e9b" cx="45.11" cy="135.11" r="5.03"/>
<circle fill="#2f1e9b" cx="325.08" cy="135.09" r="5.04"/>
<circle fill="#2f1e9b" cx="125.10" cy="145.11" r="5.06"/>
<path fill="#2f1e9b" d="
  M 299.87 147.25
  Q 297.05 151.35 293.00 149.63
  Q 290.39 148.52 290.03 145.54
  C 289.53 141.29 295.21 138.10 298.51 141.42
  Q 299.30 142.21 299.87 143.14
  Q 300.17 143.63 300.46 143.13
  C 302.82 139.02 307.60 139.00 309.80 143.06
  Q 310.19 143.78 310.55 143.05
  Q 311.79 140.50 314.33 140.16
  Q 318.23 139.63 319.70 143.20
  Q 320.90 146.09 318.91 148.48
  Q 317.65 150.00 315.53 150.10
  Q 312.05 150.27 310.54 147.26
  Q 310.21 146.59 309.83 147.23
  Q 308.49 149.50 306.42 149.93
  Q 302.43 150.77 300.57 147.29
  Q 300.26 146.70 299.87 147.25
  Z"
/>
<path fill="#2f1e9b" d="
  M 96.94 199.89
  A 0.26 0.26 0.0 0 0 96.93 200.36
  Q 98.74 201.28 99.77 203.05
  Q 100.05 203.53 100.37 203.09
  Q 105.04 196.76 109.90 203.09
  Q 110.26 203.56 110.54 203.03
  Q 111.46 201.28 113.18 200.35
  Q 113.54 200.15 113.19 199.93
  C 105.47 194.89 113.70 186.26 118.90 191.78
  Q 119.79 192.74 119.99 193.89
  Q 120.70 198.07 117.09 199.79
  Q 116.48 200.08 117.07 200.42
  Q 118.82 201.41 119.82 203.08
  Q 120.19 203.71 120.53 203.06
  C 122.42 199.40 126.57 198.94 129.24 202.23
  C 130.25 203.48 130.31 206.51 129.41 207.81
  Q 127.14 211.06 122.78 209.69
  Q 121.73 209.35 120.55 207.29
  Q 120.19 206.66 119.80 207.27
  Q 118.78 208.87 117.15 209.81
  Q 116.51 210.18 117.16 210.53
  Q 121.20 212.71 119.76 216.96
  Q 118.80 219.78 115.45 220.06
  C 109.66 220.53 108.02 213.12 113.14 210.44
  Q 113.68 210.16 113.15 209.86
  Q 111.58 208.97 110.56 207.33
  Q 110.11 206.59 109.69 207.35
  C 107.61 211.10 102.64 211.03 100.58 207.33
  Q 100.22 206.66 99.80 207.30
  Q 98.82 208.81 97.27 209.78
  Q 96.69 210.14 97.26 210.52
  Q 101.16 213.07 99.80 216.84
  Q 98.41 220.68 93.89 219.94
  Q 91.70 219.58 90.58 217.24
  A 0.45 0.44 -42.6 0 0 89.79 217.21
  C 87.41 221.43 81.69 220.97 80.24 216.43
  Q 79.12 212.91 83.14 210.39
  Q 83.61 210.09 83.12 209.83
  Q 81.52 208.98 80.56 207.29
  Q 80.20 206.65 79.80 207.26
  C 78.98 208.52 77.88 209.73 76.32 209.98
  C 70.07 210.99 67.57 203.36 73.12 200.46
  Q 73.65 200.18 73.14 199.87
  C 69.05 197.38 68.90 192.87 73.02 190.50
  Q 73.62 190.15 73.02 189.80
  Q 71.42 188.86 70.55 187.29
  Q 70.22 186.68 69.83 187.26
  C 68.99 188.49 67.82 189.82 66.25 190.02
  C 60.11 190.83 57.64 183.95 62.85 180.62
  Q 63.46 180.23 62.87 179.81
  C 58.86 176.93 59.08 172.64 63.19 170.36
  Q 63.60 170.14 63.19 169.91
  Q 61.51 168.97 60.58 167.30
  Q 60.21 166.64 59.79 167.27
  C 58.98 168.45 57.86 169.74 56.39 169.99
  Q 53.94 170.40 52.42 169.34
  C 48.89 166.89 49.34 162.39 53.11 160.47
  Q 53.65 160.20 53.14 159.87
  C 45.75 155.13 53.30 146.72 58.41 151.33
  Q 60.74 153.44 59.90 156.67
  Q 59.41 158.54 57.15 159.86
  Q 56.61 160.18 57.16 160.48
  Q 58.89 161.44 59.80 163.08
  Q 60.06 163.56 60.38 163.11
  Q 64.50 157.19 69.35 162.31
  Q 69.65 162.63 69.81 163.03
  Q 70.14 163.83 70.53 163.05
  C 72.58 158.86 77.55 159.14 79.78 163.06
  Q 80.15 163.71 80.51 163.06
  C 83.57 157.50 91.22 160.32 89.94 166.31
  Q 89.30 169.34 86.27 169.93
  Q 82.29 170.70 80.50 167.12
  Q 80.15 166.43 79.81 167.13
  Q 78.80 169.22 76.82 169.79
  Q 72.64 170.99 70.60 167.31
  Q 70.22 166.63 69.80 167.28
  Q 68.80 168.81 67.20 169.83
  Q 66.55 170.25 67.24 170.60
  Q 70.84 172.43 69.94 176.51
  Q 69.46 178.63 67.07 179.91
  Q 66.59 180.17 67.07 180.44
  Q 68.82 181.42 69.78 183.08
  Q 70.06 183.57 70.38 183.11
  Q 74.53 177.24 79.28 182.23
  Q 79.62 182.59 79.80 183.06
  Q 80.08 183.81 80.46 183.11
  C 83.69 177.18 91.65 180.76 89.88 186.62
  Q 88.68 190.58 84.03 189.99
  Q 82.05 189.74 80.53 187.28
  Q 80.17 186.70 79.80 187.27
  Q 78.81 188.81 77.22 189.83
  Q 76.62 190.21 77.23 190.56
  C 78.43 191.26 79.73 192.35 79.98 193.80
  Q 80.72 198.12 77.08 199.80
  Q 76.49 200.07 77.05 200.40
  Q 78.81 201.43 79.87 203.15
  Q 80.21 203.70 80.48 203.12
  C 82.40 198.94 87.61 199.08 89.76 203.07
  Q 90.12 203.75 90.48 203.07
  Q 91.42 201.33 93.18 200.39
  Q 93.60 200.16 93.19 199.90
  C 85.38 194.98 93.86 186.15 98.96 191.87
  Q 99.80 192.80 99.99 193.92
  Q 100.71 198.20 96.94 199.89
  Z
  M 90.41 213.19
  Q 91.38 211.37 93.21 210.37
  A 0.26 0.26 0.0 0 0 93.21 209.92
  Q 91.47 208.88 90.47 207.18
  Q 90.19 206.71 89.89 207.17
  Q 88.81 208.82 87.15 209.86
  Q 86.64 210.18 87.16 210.48
  Q 88.78 211.42 89.90 213.21
  Q 90.17 213.64 90.41 213.19
  Z"
/>
<circle fill="#2f1e9b" cx="115.09" cy="155.10" r="5.05"/>
<circle fill="#2f1e9b" cx="105.09" cy="165.10" r="5.04"/>
<circle fill="#2f1e9b" cx="255.10" cy="165.10" r="5.05"/>
<path fill="#2f1e9b" d="
  M 129.81 177.34
  C 127.98 180.44 123.48 181.22 121.16 178.23
  C 116.85 172.70 125.59 166.06 129.82 173.09
  Q 130.19 173.69 130.51 173.06
  C 132.40 169.34 136.64 168.97 139.32 172.34
  Q 140.08 173.30 139.95 174.51
  C 139.83 175.73 140.17 176.80 139.40 177.88
  Q 137.46 180.59 133.82 179.96
  C 132.36 179.71 131.28 178.59 130.57 177.35
  Q 130.19 176.69 129.81 177.34
  Z"
/>
<circle fill="#2f1e9b" cx="105.10" cy="185.11" r="5.06"/>
<path fill="#2f1e9b" d="
  M 177.13 200.50
  Q 179.91 201.86 180.10 204.73
  C 180.35 208.44 177.37 210.66 173.79 209.94
  Q 172.29 209.63 171.18 208.29
  C 168.86 205.50 170.10 202.06 173.17 200.45
  Q 173.69 200.17 173.18 199.87
  C 169.11 197.46 168.72 192.90 173.12 190.45
  Q 173.67 190.15 173.12 189.84
  Q 171.56 188.97 170.56 187.34
  Q 170.11 186.59 169.69 187.36
  C 167.73 190.94 162.97 191.04 160.80 187.79
  C 157.27 182.48 165.62 176.23 169.85 183.14
  Q 170.20 183.71 170.49 183.10
  C 172.29 179.38 176.56 178.95 179.28 182.23
  C 180.38 183.56 180.03 185.30 179.92 186.86
  A 1.39 1.33 -25.4 0 1 179.65 187.57
  Q 178.63 188.90 177.24 189.82
  Q 176.67 190.19 177.25 190.54
  Q 178.93 191.56 179.88 193.18
  Q 180.18 193.67 180.46 193.17
  C 182.43 189.60 186.30 188.82 189.02 191.91
  Q 189.94 192.96 190.05 194.35
  Q 190.39 198.36 187.11 199.69
  Q 183.10 201.31 180.48 197.20
  Q 180.16 196.70 179.85 197.20
  Q 178.82 198.84 177.11 199.88
  Q 176.54 200.22 177.13 200.50
  Z"
/>
<path fill="#2f1e9b" d="
  M 159.81 217.21
  C 158.05 220.38 153.74 221.27 151.29 218.41
  C 148.82 215.51 150.09 212.13 153.16 210.41
  Q 153.66 210.13 153.17 209.84
  C 149.11 207.45 148.82 202.75 152.99 200.53
  Q 153.67 200.17 153.01 199.78
  Q 151.42 198.86 150.53 197.28
  Q 150.19 196.69 149.81 197.26
  Q 146.93 201.51 142.79 199.54
  C 137.20 196.88 140.91 188.46 146.56 190.27
  Q 148.61 190.93 149.82 193.09
  Q 150.15 193.68 150.47 193.09
  C 152.21 189.90 155.87 188.86 158.63 191.48
  Q 160.50 193.27 160.02 196.18
  C 159.72 197.97 158.66 198.87 157.27 199.79
  Q 156.60 200.23 157.31 200.60
  Q 159.38 201.66 159.87 203.52
  Q 160.95 207.64 157.34 209.69
  Q 156.62 210.10 157.32 210.56
  Q 158.79 211.50 159.77 213.02
  Q 160.23 213.73 160.60 212.97
  C 162.43 209.21 166.73 209.10 169.36 212.35
  C 170.31 213.52 169.96 214.67 170.01 216.05
  Q 170.04 216.78 169.63 217.46
  C 167.57 220.92 162.44 221.17 160.60 217.24
  A 0.44 0.44 0.0 0 0 159.81 217.21
  Z"
/>
<path fill="#2f1e9b" d="
  M 210.34 217.11
  Q 210.13 216.90 209.95 217.15
  Q 208.81 218.79 207.12 219.93
  A 0.29 0.28 -44.0 0 0 207.11 220.40
  C 208.29 221.21 209.71 222.25 209.97 223.77
  Q 210.48 226.78 208.83 228.55
  C 206.58 230.96 202.40 230.59 200.77 227.58
  Q 200.22 226.57 199.60 227.54
  C 197.46 230.89 192.51 231.18 190.63 227.34
  A 0.50 0.50 0.0 0 0 189.75 227.31
  Q 187.95 230.36 184.80 230.10
  C 179.19 229.63 178.40 222.98 183.16 220.42
  Q 183.76 220.09 183.14 219.79
  C 179.48 218.04 178.82 213.58 182.24 211.04
  C 184.89 209.08 188.14 210.05 189.72 213.00
  Q 190.18 213.86 190.60 212.98
  C 192.58 208.78 197.43 209.25 199.80 213.09
  Q 200.20 213.73 200.51 213.05
  C 202.47 208.76 207.64 209.28 209.78 213.07
  Q 210.18 213.78 210.53 213.05
  Q 211.31 211.39 213.03 210.55
  Q 213.73 210.20 213.05 209.80
  C 205.83 205.63 213.08 196.54 218.46 201.36
  Q 220.35 203.06 220.04 205.80
  Q 219.74 208.48 217.17 209.82
  A 0.41 0.40 44.6 0 0 217.18 210.54
  Q 219.83 211.86 220.07 214.53
  C 220.41 218.30 217.66 220.57 214.00 220.01
  C 211.85 219.68 211.69 218.44 210.34 217.11
  Z
  M 190.30 223.36
  Q 191.38 221.29 193.15 220.40
  Q 193.69 220.14 193.16 219.86
  Q 191.53 219.00 190.55 217.26
  Q 190.22 216.69 189.86 217.23
  Q 188.81 218.82 187.22 219.85
  Q 186.66 220.21 187.24 220.54
  Q 188.97 221.55 190.02 223.37
  Q 190.17 223.62 190.30 223.36
  Z
  M 200.41 223.19
  Q 201.37 221.35 203.15 220.44
  Q 203.69 220.16 203.17 219.86
  Q 201.42 218.86 200.52 217.23
  Q 200.22 216.70 199.88 217.20
  Q 198.80 218.80 197.12 219.92
  Q 196.71 220.18 197.13 220.44
  Q 198.94 221.56 199.94 223.21
  Q 200.19 223.61 200.41 223.19
  Z"
/>
<circle fill="#2f1e9b" cx="325.08" cy="205.09" r="5.05"/>
<circle fill="#2f1e9b" cx="235.10" cy="215.11" r="5.05"/>
<circle fill="#2f1e9b" cx="45.10" cy="225.14" r="5.01"/>
<circle fill="#2f1e9b" cx="105.10" cy="225.12" r="5.06"/>
<path fill="#2f1e9b" d="
  M 139.69 227.43
  C 138.08 230.14 134.70 230.97 132.23 229.24
  C 125.82 224.72 134.60 215.13 139.80 223.07
  Q 140.17 223.63 140.50 223.05
  C 142.62 219.41 146.66 218.88 149.36 222.33
  C 150.28 223.51 149.93 224.74 149.97 226.11
  Q 150.00 227.00 149.50 227.72
  C 147.28 230.96 142.73 231.00 140.65 227.44
  Q 140.17 226.61 139.69 227.43
  Z"
/>
<circle fill="#2f1e9b" cx="225.09" cy="225.10" r="5.05"/>
<circle fill="#2f1e9b" cx="245.10" cy="225.11" r="5.06"/>
<path fill="#2f1e9b" d="
  M 289.80 257.26
  Q 288.82 258.79 287.36 259.74
  Q 286.62 260.24 287.41 260.66
  Q 290.72 262.42 289.97 266.40
  C 289.66 268.01 288.51 268.95 287.24 269.82
  Q 286.70 270.19 287.26 270.53
  Q 289.47 271.85 289.79 272.97
  Q 291.09 277.55 287.28 279.75
  Q 286.66 280.11 287.27 280.50
  Q 288.82 281.47 289.87 283.15
  Q 290.24 283.74 290.51 283.09
  Q 291.15 281.59 292.50 280.82
  Q 296.80 278.36 299.86 283.17
  Q 300.21 283.72 300.50 283.13
  C 303.45 277.08 311.81 280.79 309.82 286.76
  Q 308.55 290.55 303.98 290.00
  C 302.38 289.80 301.33 288.59 300.53 287.29
  Q 300.19 286.73 299.83 287.29
  Q 298.56 289.32 296.72 289.84
  Q 292.74 290.98 290.68 287.46
  Q 290.27 286.77 289.78 287.40
  Q 288.74 288.77 287.25 289.79
  Q 286.58 290.25 287.31 290.62
  Q 289.99 291.97 290.11 294.83
  Q 290.22 297.43 288.55 298.82
  Q 285.77 301.12 282.81 299.51
  C 278.83 297.35 279.18 292.14 283.28 290.41
  Q 283.88 290.16 283.29 289.88
  Q 281.51 289.05 280.55 287.34
  Q 280.21 286.73 279.84 287.32
  Q 278.67 289.16 277.08 289.72
  Q 272.97 291.17 270.72 287.53
  Q 270.28 286.82 269.75 287.45
  C 268.89 288.46 267.90 289.69 266.54 289.95
  Q 262.43 290.75 260.64 287.40
  Q 260.30 286.77 259.85 287.33
  C 258.96 288.42 257.96 289.68 256.50 289.96
  Q 252.41 290.73 250.62 287.36
  Q 250.26 286.67 249.80 287.31
  C 248.96 288.49 247.90 289.74 246.38 289.99
  Q 242.56 290.61 240.69 287.58
  C 239.02 284.86 240.48 281.75 243.15 280.45
  Q 243.73 280.17 243.17 279.85
  C 239.00 277.42 238.84 272.70 243.12 270.46
  Q 243.69 270.17 243.14 269.84
  Q 241.45 268.86 240.51 267.31
  Q 240.12 266.65 239.75 267.32
  C 238.02 270.43 233.66 271.23 231.27 268.38
  C 226.45 262.65 235.90 255.97 239.82 263.16
  Q 240.14 263.74 240.44 263.15
  Q 241.38 261.32 243.14 260.45
  Q 243.73 260.16 243.16 259.83
  C 238.96 257.43 238.88 252.71 243.13 250.45
  Q 243.68 250.15 243.13 249.85
  Q 241.40 248.86 240.54 247.30
  Q 240.23 246.73 239.85 247.26
  C 238.94 248.54 237.78 249.90 236.10 250.03
  Q 230.86 250.45 230.05 245.53
  C 229.66 243.11 231.94 240.50 234.27 240.10
  Q 237.69 239.51 239.80 243.07
  Q 240.16 243.68 240.52 243.07
  Q 240.59 242.95 240.63 242.82
  Q 240.78 242.35 241.13 242.00
  Q 245.34 237.70 249.36 242.37
  Q 249.61 242.65 249.74 243.01
  Q 249.80 243.17 249.91 243.31
  Q 250.23 243.67 250.43 243.23
  Q 251.30 241.33 253.19 240.39
  Q 253.77 240.10 253.19 239.81
  C 245.05 235.81 254.30 224.52 259.90 233.18
  Q 260.22 233.69 260.48 233.14
  Q 261.30 231.35 263.11 230.44
  Q 263.72 230.13 263.12 229.79
  C 255.52 225.53 263.45 216.07 268.91 221.81
  Q 269.78 222.71 269.99 223.86
  Q 270.69 227.72 267.39 229.76
  Q 266.66 230.21 267.40 230.64
  C 268.60 231.35 269.78 232.42 270.00 233.88
  Q 270.63 237.97 267.31 239.72
  Q 266.61 240.08 267.28 240.50
  Q 268.81 241.47 269.81 243.04
  Q 270.23 243.72 270.56 242.99
  Q 271.26 241.46 272.71 240.68
  C 275.74 239.07 278.16 240.40 279.97 243.23
  Q 280.25 243.67 280.44 243.18
  Q 281.01 241.68 283.24 240.35
  Q 283.68 240.09 283.23 239.85
  C 278.93 237.54 278.86 232.71 283.15 230.43
  Q 283.76 230.11 283.14 229.80
  C 275.63 226.04 283.13 216.04 288.75 221.65
  Q 290.35 223.24 290.08 225.81
  Q 289.81 228.37 287.34 229.75
  Q 286.60 230.17 287.34 230.58
  Q 288.86 231.43 289.76 233.08
  Q 290.12 233.74 290.50 233.08
  C 292.86 228.89 297.54 229.02 299.81 233.14
  Q 300.19 233.82 300.51 233.11
  Q 300.56 232.99 300.60 232.86
  Q 300.71 232.48 300.97 232.20
  C 304.18 228.73 307.35 229.49 309.87 233.18
  Q 310.19 233.64 310.46 233.15
  C 312.43 229.63 316.23 228.86 318.96 231.84
  Q 319.80 232.75 319.98 233.86
  Q 320.66 238.00 317.23 239.79
  Q 316.66 240.09 317.21 240.43
  Q 318.82 241.44 319.80 243.02
  Q 320.23 243.72 320.56 242.97
  C 322.22 239.22 326.67 239.15 329.25 242.21
  C 330.35 243.51 330.01 245.31 329.93 246.87
  Q 329.91 247.41 329.51 247.78
  L 327.18 249.96
  Q 326.80 250.32 327.27 250.56
  Q 329.38 251.65 329.86 253.49
  Q 330.59 256.27 329.10 258.21
  C 326.76 261.24 322.09 260.59 320.50 257.10
  Q 320.23 256.51 319.90 257.06
  Q 318.82 258.84 317.09 259.85
  Q 316.48 260.21 317.12 260.52
  Q 319.59 261.71 319.95 263.86
  Q 320.73 268.43 316.86 269.78
  Q 312.83 271.17 310.56 267.30
  Q 310.21 266.70 309.80 267.26
  C 308.97 268.42 307.82 269.87 306.30 269.98
  C 304.56 270.11 302.97 270.18 301.66 268.79
  C 296.16 262.96 305.86 255.67 309.92 263.35
  Q 310.20 263.87 310.41 263.32
  Q 311.14 261.46 313.18 260.40
  Q 314.00 259.98 313.09 259.79
  Q 312.65 259.71 312.32 259.40
  Q 307.10 254.53 313.18 250.33
  Q 313.63 250.02 313.14 249.79
  Q 311.34 248.93 310.44 247.10
  A 0.32 0.31 46.3 0 0 309.89 247.08
  Q 308.62 249.40 306.48 249.92
  Q 302.62 250.85 300.49 247.19
  Q 300.16 246.62 299.82 247.18
  Q 298.84 248.79 297.29 249.77
  Q 296.58 250.22 297.32 250.60
  Q 299.54 251.75 299.97 253.83
  Q 300.51 256.48 299.06 258.29
  Q 297.65 260.04 295.36 260.11
  Q 292.01 260.21 290.60 257.31
  Q 290.24 256.58 289.80 257.26
  Z
  M 300.32 243.41
  Q 301.32 241.24 303.24 240.40
  Q 303.76 240.17 303.26 239.91
  Q 301.46 238.98 300.45 237.13
  Q 300.17 236.62 299.88 237.12
  Q 298.86 238.82 297.20 239.85
  Q 296.69 240.16 297.20 240.47
  Q 298.94 241.52 300.05 243.43
  Q 300.19 243.68 300.32 243.41
  Z
  M 257.41 240.57
  Q 258.92 241.57 259.87 243.13
  Q 260.18 243.65 260.46 243.11
  Q 261.36 241.36 263.13 240.41
  Q 263.69 240.10 263.12 239.82
  Q 261.50 239.00 260.57 237.32
  Q 260.22 236.70 259.83 237.28
  Q 258.80 238.81 257.15 239.90
  Q 256.64 240.23 257.19 240.45
  Q 257.30 240.50 257.41 240.57
  Z
  M 290.43 243.22
  Q 291.30 241.30 293.19 240.41
  Q 293.71 240.16 293.20 239.88
  Q 291.51 239.00 290.52 237.26
  Q 290.22 236.72 289.86 237.24
  Q 288.81 238.76 287.21 239.87
  Q 286.79 240.16 287.21 240.45
  Q 289.07 241.72 289.92 243.24
  Q 290.20 243.72 290.43 243.22
  Z
  M 310.29 243.39
  Q 311.34 241.30 313.19 240.36
  Q 313.67 240.12 313.19 239.87
  Q 311.50 239.01 310.55 237.29
  Q 310.22 236.69 309.84 237.26
  Q 308.81 238.82 307.19 239.88
  Q 306.69 240.22 307.21 240.52
  Q 308.97 241.52 310.00 243.40
  Q 310.15 243.67 310.29 243.39
  Z
  M 260.28 283.39
  C 262.74 279.08 267.42 278.77 269.78 283.04
  Q 270.19 283.79 270.55 283.01
  Q 271.23 281.52 272.59 280.75
  Q 276.83 278.38 279.88 283.17
  Q 280.22 283.69 280.47 283.12
  Q 281.30 281.30 283.22 280.39
  Q 283.69 280.17 283.24 279.90
  C 278.95 277.39 278.83 272.55 283.22 270.39
  Q 283.67 270.17 283.24 269.90
  Q 278.27 266.83 280.82 262.47
  Q 281.61 261.11 283.11 260.50
  Q 283.80 260.23 283.17 259.84
  C 279.14 257.34 278.71 252.41 283.16 250.44
  Q 283.77 250.17 283.18 249.86
  Q 281.53 248.99 280.52 247.31
  Q 280.13 246.67 279.75 247.31
  C 278.96 248.62 277.81 249.78 276.20 250.02
  Q 272.30 250.59 270.65 247.39
  Q 270.28 246.68 269.80 247.31
  C 268.18 249.43 266.70 250.60 263.74 249.93
  Q 261.73 249.47 260.57 247.28
  Q 260.21 246.61 259.80 247.24
  Q 258.31 249.52 257.07 249.84
  Q 252.54 251.00 250.60 247.32
  Q 250.24 246.64 249.81 247.28
  Q 248.78 248.79 247.27 249.80
  Q 246.62 250.23 247.31 250.60
  Q 250.93 252.56 249.88 256.68
  Q 249.38 258.65 247.17 259.80
  A 0.41 0.41 0.0 0 0 247.17 260.53
  Q 250.90 262.44 249.88 266.62
  Q 249.40 268.60 247.21 269.81
  Q 246.55 270.17 247.21 270.53
  Q 250.97 272.59 249.87 276.72
  Q 249.37 278.60 247.23 279.78
  Q 246.58 280.14 247.23 280.52
  Q 248.81 281.44 249.87 283.17
  Q 250.19 283.69 250.47 283.15
  C 252.87 278.53 257.61 279.29 260.01 283.39
  A 0.16 0.15 -44.4 0 0 260.28 283.39
  Z
  M 290.43 253.23
  Q 291.30 251.32 293.19 250.41
  Q 293.73 250.15 293.20 249.87
  Q 291.52 248.99 290.52 247.24
  Q 290.21 246.71 289.86 247.22
  Q 288.78 248.81 287.12 249.90
  A 0.33 0.32 -46.5 0 0 287.13 250.45
  Q 288.96 251.54 289.92 253.25
  Q 290.20 253.74 290.43 253.23
  Z
  M 320.43 253.20
  Q 321.30 251.31 323.19 250.42
  Q 323.76 250.15 323.20 249.86
  Q 321.52 248.99 320.54 247.29
  Q 320.23 246.76 319.87 247.26
  Q 318.81 248.74 317.18 249.87
  Q 316.71 250.20 317.21 250.50
  Q 318.96 251.53 319.93 253.23
  Q 320.20 253.72 320.43 253.20
  Z"
/>
<path fill="#2f1e9b" d="
  M 87.10 240.50
  C 88.37 241.24 89.74 242.30 89.99 243.85
  Q 90.44 246.77 88.89 248.47
  C 86.46 251.13 82.12 250.46 80.51 247.16
  A 0.34 0.34 0.0 0 0 79.93 247.11
  C 79.13 248.25 78.02 249.60 76.58 249.89
  Q 72.39 250.76 70.58 247.30
  Q 70.24 246.64 69.82 247.25
  C 69.03 248.38 67.95 249.61 66.56 249.90
  Q 62.47 250.74 60.65 247.45
  Q 60.24 246.71 59.74 247.39
  C 58.88 248.56 57.89 249.69 56.34 249.95
  Q 53.77 250.37 52.32 249.27
  C 45.64 244.21 55.10 235.28 59.79 243.07
  Q 60.15 243.66 60.48 243.05
  Q 61.38 241.39 63.04 240.46
  Q 63.61 240.14 63.05 239.81
  Q 59.66 237.76 60.04 234.49
  C 60.37 231.69 63.52 229.36 66.34 230.23
  Q 69.15 231.10 69.82 233.49
  Q 71.03 237.75 67.05 239.92
  Q 66.60 240.16 67.05 240.42
  Q 68.83 241.44 69.82 243.10
  Q 70.10 243.57 70.41 243.12
  C 73.23 238.92 77.46 238.93 79.90 243.19
  Q 80.16 243.65 80.42 243.18
  Q 81.40 241.39 83.03 240.47
  Q 83.63 240.14 83.03 239.80
  C 74.91 235.14 84.97 224.82 89.83 233.12
  Q 90.19 233.73 90.50 233.10
  C 92.43 229.25 96.77 228.96 99.43 232.48
  Q 100.15 233.43 100.05 234.66
  C 99.96 235.72 100.21 236.69 99.58 237.63
  Q 97.51 240.75 93.56 239.92
  C 92.19 239.63 91.24 238.42 90.55 237.28
  Q 90.20 236.70 89.83 237.26
  Q 88.79 238.82 87.09 239.89
  A 0.36 0.36 0.0 0 0 87.10 240.50
  Z"
/>
<path fill="#2f1e9b" d="
  M 120.52 233.06
  C 122.51 229.40 126.58 228.90 129.30 232.28
  C 130.25 233.46 130.32 236.58 129.47 237.81
  Q 127.66 240.43 124.23 240.05
  C 122.48 239.86 121.42 238.74 120.58 237.33
  Q 120.21 236.71 119.80 237.31
  C 114.93 244.43 106.03 236.43 111.84 231.32
  C 114.67 228.82 118.02 230.07 119.80 233.07
  Q 120.17 233.70 120.52 233.06
  Z"
/>
<path fill="#2f1e9b" d="
  M 173.12 239.81
  C 166.96 236.72 171.22 228.22 176.56 230.27
  Q 180.71 231.87 180.01 236.20
  C 179.75 237.85 178.70 238.95 177.31 239.72
  Q 176.63 240.10 177.28 240.53
  Q 178.91 241.59 179.89 243.17
  Q 180.21 243.69 180.48 243.15
  C 182.14 239.84 185.91 238.89 188.69 241.52
  Q 190.58 243.29 189.95 246.44
  Q 189.52 248.63 187.08 249.79
  Q 186.49 250.07 187.05 250.41
  Q 188.80 251.45 189.90 253.21
  Q 190.21 253.70 190.47 253.18
  C 191.83 250.43 194.75 249.08 197.61 250.75
  Q 200.58 252.49 200.02 256.21
  C 199.78 257.88 198.51 259.06 197.12 259.85
  Q 196.49 260.21 197.14 260.53
  Q 200.63 262.24 200.01 266.15
  C 199.72 267.95 198.56 269.03 197.09 269.86
  Q 196.55 270.17 197.09 270.48
  Q 199.50 271.84 199.80 272.99
  Q 201.07 277.81 197.06 279.85
  Q 196.47 280.15 197.06 280.45
  Q 200.77 282.33 199.97 286.31
  C 199.62 288.00 198.54 288.99 197.15 289.82
  Q 196.49 290.22 197.18 290.55
  Q 200.01 291.94 200.11 294.94
  C 200.29 300.42 193.09 302.12 190.58 297.21
  A 0.41 0.41 0.0 0 0 189.88 297.17
  C 189.04 298.41 187.92 299.75 186.34 299.99
  Q 181.81 300.65 180.26 296.63
  Q 179.41 294.44 180.90 292.37
  C 183.47 288.78 187.59 289.43 189.84 293.17
  Q 190.19 293.76 190.49 293.14
  Q 191.35 291.35 193.17 290.41
  Q 193.70 290.13 193.18 289.83
  C 189.01 287.45 188.84 282.52 193.14 280.45
  Q 193.68 280.19 193.16 279.89
  Q 191.41 278.87 190.52 277.27
  Q 190.21 276.72 189.86 277.24
  C 189.04 278.47 187.92 279.71 186.40 279.98
  Q 183.46 280.51 181.70 278.83
  C 178.77 276.03 179.78 272.15 183.18 270.42
  Q 183.68 270.16 183.19 269.87
  Q 181.56 268.89 180.59 267.40
  Q 180.10 266.65 179.65 267.43
  Q 178.42 269.56 176.43 269.95
  Q 172.00 270.82 170.30 266.74
  C 169.05 263.71 171.71 260.25 174.75 260.03
  Q 177.87 259.80 179.85 263.15
  Q 180.19 263.72 180.48 263.12
  Q 181.35 261.33 183.16 260.42
  Q 183.67 260.17 183.18 259.88
  C 179.08 257.45 178.80 252.72 183.08 250.51
  Q 183.73 250.17 183.09 249.80
  Q 181.42 248.86 180.54 247.28
  Q 180.19 246.64 179.81 247.26
  Q 177.53 251.00 173.41 249.84
  Q 171.66 249.35 170.65 247.41
  Q 170.28 246.69 169.81 247.34
  Q 168.66 248.93 167.10 249.87
  Q 166.54 250.21 167.12 250.50
  Q 169.42 251.63 169.88 253.61
  Q 170.91 258.07 167.18 259.66
  Q 164.12 260.96 161.67 258.78
  C 158.73 256.16 159.85 252.23 163.11 250.45
  Q 163.68 250.14 163.11 249.83
  C 154.65 245.18 165.32 234.86 169.74 243.02
  Q 170.14 243.77 170.53 243.02
  Q 171.39 241.37 173.13 240.43
  Q 173.72 240.11 173.12 239.81
  Z
  M 190.36 263.35
  Q 191.32 261.31 193.15 260.43
  Q 193.69 260.17 193.17 259.88
  Q 191.54 258.97 190.61 257.37
  Q 190.25 256.76 189.84 257.34
  Q 188.80 258.82 187.24 259.85
  Q 186.67 260.22 187.25 260.58
  Q 189.05 261.66 189.99 263.36
  A 0.21 0.21 0.0 0 0 190.36 263.35
  Z
  M 190.40 273.23
  Q 191.36 271.27 193.15 270.44
  Q 193.69 270.19 193.17 269.89
  Q 191.52 268.97 190.54 267.29
  Q 190.21 266.71 189.83 267.26
  Q 188.68 268.96 187.06 269.90
  Q 186.55 270.20 187.07 270.47
  Q 188.78 271.37 189.95 273.25
  Q 190.19 273.65 190.40 273.23
  Z"
/>
<circle fill="#2f1e9b" cx="105.09" cy="245.10" r="5.04"/>
<path fill="#2f1e9b" d="
  M 137.23 260.52
  Q 138.92 261.54 139.90 263.17
  Q 140.24 263.74 140.47 263.11
  Q 140.72 262.41 141.26 261.89
  C 144.21 259.01 147.69 259.49 149.81 263.05
  Q 150.23 263.76 150.59 263.02
  Q 151.74 260.65 153.96 260.21
  Q 158.14 259.38 159.74 263.34
  Q 160.84 266.05 159.02 268.35
  Q 157.67 270.06 155.29 270.11
  Q 152.07 270.18 150.62 267.38
  Q 150.28 266.72 149.85 267.32
  Q 148.78 268.79 147.27 269.79
  Q 146.65 270.19 147.28 270.58
  Q 151.34 273.08 149.65 277.18
  Q 148.21 280.65 143.77 279.94
  C 142.22 279.70 141.32 278.45 140.46 277.23
  Q 140.07 276.69 139.75 277.27
  Q 138.72 279.15 137.14 279.70
  C 130.73 281.92 127.02 273.69 133.17 270.42
  Q 133.65 270.16 133.18 269.89
  Q 131.58 268.98 130.52 267.32
  Q 130.13 266.70 129.75 267.33
  Q 127.39 271.25 122.67 269.61
  Q 121.98 269.37 120.98 268.03
  C 118.90 265.22 120.26 261.92 123.15 260.44
  Q 123.68 260.17 123.17 259.86
  C 114.99 254.91 124.72 244.96 129.85 253.18
  Q 130.16 253.68 130.42 253.16
  Q 131.34 251.38 133.04 250.49
  Q 133.64 250.17 133.06 249.80
  C 124.70 244.49 135.49 235.17 139.73 243.02
  Q 140.16 243.80 140.57 243.01
  C 142.47 239.28 146.68 239.04 149.34 242.37
  Q 150.06 243.26 149.99 244.39
  C 149.92 245.55 150.19 246.69 149.50 247.70
  Q 147.49 250.67 143.73 249.95
  C 142.28 249.67 141.37 248.61 140.64 247.40
  Q 140.25 246.76 139.81 247.37
  Q 138.79 248.80 137.29 249.79
  Q 136.56 250.27 137.35 250.65
  Q 140.60 252.23 140.00 256.28
  C 139.76 257.94 138.57 258.99 137.23 259.82
  Q 136.64 260.17 137.23 260.52
  Z
  M 132.93 260.39
  A 0.35 0.35 0.0 0 0 132.92 259.91
  L 130.43 257.34
  A 0.35 0.35 0.0 0 0 129.94 257.33
  L 127.29 259.90
  A 0.35 0.35 0.0 0 0 127.29 260.40
  L 129.89 263.04
  A 0.35 0.35 0.0 0 0 130.39 263.04
  L 132.93 260.39
  Z
  M 140.05 267.07
  Q 138.80 268.86 137.09 269.89
  Q 136.60 270.19 137.10 270.47
  Q 138.82 271.42 139.87 273.17
  Q 140.17 273.68 140.44 273.15
  Q 141.37 271.36 143.17 270.39
  Q 143.60 270.16 143.18 269.92
  Q 141.43 268.89 140.37 267.08
  A 0.19 0.19 0.0 0 0 140.05 267.07
  Z"
/>
<path fill="#2f1e9b" d="
  M 209.68 247.49
  C 207.05 251.41 201.87 250.90 200.23 246.51
  C 198.24 241.20 206.44 237.08 209.83 243.11
  Q 210.15 243.69 210.47 243.11
  C 212.76 238.92 217.71 239.01 219.86 243.19
  Q 220.20 243.87 219.97 245.93
  C 219.62 249.08 216.95 250.43 213.90 249.97
  C 212.42 249.75 211.46 248.76 210.73 247.52
  Q 210.23 246.67 209.68 247.49
  Z"
/>
<circle fill="#2f1e9b" cx="265.09" cy="265.10" r="5.05"/>
<path fill="#2f1e9b" d="
  M 163.07 279.78
  C 155.83 275.31 163.09 266.80 168.29 271.23
  Q 170.83 273.40 169.85 276.80
  Q 169.32 278.64 167.30 279.72
  Q 166.59 280.09 167.27 280.51
  Q 168.84 281.47 169.79 283.09
  Q 170.12 283.66 170.47 283.09
  Q 173.09 278.79 177.08 280.48
  Q 179.30 281.41 179.89 283.64
  C 180.76 286.89 178.85 289.96 175.44 290.10
  Q 172.07 290.24 170.64 287.35
  Q 170.29 286.65 169.82 287.29
  C 168.97 288.46 167.89 289.74 166.37 289.99
  C 160.18 291.01 157.43 283.52 163.05 280.52
  Q 163.70 280.17 163.07 279.78
  Z"
/>
<path fill="#2f1e9b" d="
  M 327.27 280.59
  Q 329.56 281.77 329.94 283.87
  Q 330.72 288.22 327.08 289.69
  Q 324.11 290.87 321.72 288.80
  C 318.69 286.17 319.89 282.03 323.26 280.38
  Q 323.78 280.12 323.26 279.87
  C 315.73 276.18 322.82 266.31 328.50 271.38
  Q 330.25 272.95 330.09 275.51
  Q 329.91 278.29 327.26 279.78
  Q 326.52 280.20 327.27 280.59
  Z"
/>
<circle fill="#2f1e9b" cx="225.07" cy="285.08" r="5.05"/>
<path fill="#2f1e9b" d="
  M 137.22 300.60
  C 138.48 301.24 139.76 302.43 139.99 303.89
  Q 140.65 307.99 137.18 309.80
  A 0.40 0.40 0.0 0 0 137.17 310.51
  Q 141.08 312.70 139.81 316.74
  Q 138.55 320.77 133.59 319.83
  C 131.85 319.50 130.27 317.47 130.07 315.74
  Q 129.68 312.34 133.16 310.45
  Q 133.66 310.17 133.16 309.88
  Q 131.55 308.97 130.56 307.32
  Q 130.23 306.77 129.84 307.29
  C 128.85 308.64 127.70 309.94 125.88 310.08
  C 119.85 310.53 117.62 303.11 123.16 300.44
  Q 123.67 300.19 123.19 299.89
  C 114.86 294.70 125.00 285.10 129.85 293.14
  Q 130.25 293.81 130.57 293.09
  Q 131.64 290.64 134.08 290.22
  Q 138.28 289.49 139.77 293.45
  Q 141.20 297.28 137.18 299.80
  Q 136.49 300.23 137.22 300.60
  Z
  M 130.41 303.21
  Q 131.36 301.33 133.13 300.44
  Q 133.65 300.17 133.14 299.88
  Q 131.56 298.98 130.60 297.39
  Q 130.25 296.80 129.84 297.35
  Q 128.66 298.91 127.16 299.89
  Q 126.68 300.21 127.18 300.49
  Q 128.83 301.43 129.89 303.22
  Q 130.17 303.68 130.41 303.21
  Z"
/>
<path fill="#2f1e9b" d="
  M 167.09 310.50
  Q 169.76 311.77 170.06 314.38
  Q 170.42 317.45 168.26 319.08
  C 165.88 320.88 162.17 320.38 160.71 317.47
  Q 160.42 316.90 159.95 317.34
  L 157.18 320.00
  Q 156.81 320.35 157.25 320.60
  Q 159.40 321.80 159.77 322.99
  C 162.07 330.52 151.94 332.74 150.29 326.43
  Q 149.27 322.55 153.08 320.48
  Q 153.73 320.13 153.08 319.78
  Q 152.87 319.67 152.68 319.58
  Q 152.30 319.39 152.08 319.18
  Q 147.52 314.76 152.64 310.60
  Q 152.96 310.60 153.20 310.43
  Q 153.64 310.12 153.18 309.85
  C 148.98 307.34 148.86 302.55 153.17 300.44
  Q 153.72 300.17 153.19 299.86
  C 145.95 295.62 152.76 286.89 158.20 291.15
  Q 160.51 292.96 160.04 296.18
  C 159.79 297.84 158.54 299.12 157.10 299.83
  Q 156.51 300.12 157.09 300.44
  Q 158.83 301.38 159.86 303.15
  Q 160.17 303.70 160.48 303.15
  C 162.54 299.40 166.65 298.87 169.24 302.23
  Q 170.12 303.38 170.13 305.02
  Q 170.13 308.32 167.09 309.84
  Q 166.42 310.18 167.09 310.50
  Z
  M 160.04 307.10
  Q 158.77 308.85 157.00 309.94
  Q 156.57 310.19 157.01 310.42
  Q 158.81 311.35 159.86 313.19
  Q 160.18 313.74 160.46 313.16
  Q 161.33 311.31 163.14 310.45
  Q 163.71 310.17 163.16 309.86
  Q 161.40 308.88 160.40 307.12
  A 0.22 0.21 -41.4 0 0 160.04 307.10
  Z"
/>
<circle fill="#2f1e9b" cx="235.09" cy="295.11" r="5.05"/>
<circle fill="#2f1e9b" cx="315.10" cy="295.10" r="5.05"/>
<circle fill="#2f1e9b" cx="225.10" cy="305.11" r="5.05"/>
<path fill="#2f1e9b" d="
  M 239.62 327.50
  Q 238.01 330.13 235.01 330.10
  Q 232.44 330.08 230.95 327.97
  C 226.95 322.29 236.29 316.17 239.80 323.12
  Q 240.14 323.80 240.47 323.12
  Q 241.34 321.35 243.14 320.42
  Q 243.77 320.09 243.13 319.79
  C 238.75 317.73 239.09 312.79 243.25 310.33
  Q 243.67 310.08 243.23 309.86
  C 235.55 305.99 243.20 295.94 248.84 301.76
  Q 250.33 303.30 250.07 305.74
  Q 249.77 308.53 247.11 309.82
  Q 246.54 310.09 247.08 310.41
  C 248.39 311.17 249.80 312.38 250.02 313.99
  Q 250.56 318.01 247.31 319.72
  Q 246.61 320.09 247.26 320.52
  Q 248.90 321.61 249.89 323.18
  Q 250.22 323.71 250.49 323.15
  C 252.27 319.36 256.47 318.97 259.27 322.24
  Q 260.03 323.13 259.99 324.25
  C 259.94 325.40 260.20 326.58 259.57 327.59
  Q 257.70 330.57 253.93 330.00
  C 252.43 329.77 251.39 328.68 250.67 327.42
  Q 250.34 326.83 249.87 327.33
  C 247.51 329.87 246.71 330.52 243.06 329.83
  A 1.35 1.30 73.5 0 1 242.30 329.40
  L 240.53 327.42
  Q 240.02 326.85 239.62 327.50
  Z"
/>
<circle fill="#2f1e9b" cx="275.10" cy="305.10" r="5.06"/>
<circle fill="#2f1e9b" cx="325.09" cy="305.10" r="5.04"/>
<path fill="#2f1e9b" d="
  M 187.22 320.54
  Q 188.91 321.55 189.87 323.19
  Q 190.23 323.79 190.50 323.15
  Q 191.15 321.62 192.52 320.82
  Q 196.78 318.34 199.85 323.16
  Q 200.21 323.73 200.50 323.12
  Q 201.32 321.34 203.14 320.42
  Q 203.71 320.13 203.15 319.82
  C 194.93 315.28 204.66 304.79 209.84 313.14
  Q 210.20 313.72 210.50 313.11
  C 212.40 309.33 216.68 308.99 219.32 312.27
  Q 220.08 313.21 220.03 314.49
  C 219.98 315.65 220.22 316.78 219.48 317.77
  Q 217.13 320.92 213.33 319.81
  Q 211.67 319.33 210.70 317.50
  Q 210.40 316.93 209.94 317.37
  L 207.32 319.89
  Q 206.84 320.35 207.42 320.68
  Q 209.54 321.85 209.87 323.60
  Q 210.74 328.23 207.10 329.68
  Q 203.02 331.29 200.59 327.37
  Q 200.27 326.85 199.87 327.31
  C 198.96 328.36 197.91 329.71 196.45 329.97
  Q 192.47 330.71 190.72 327.52
  Q 190.33 326.81 189.79 327.41
  C 188.84 328.46 187.92 329.70 186.43 329.98
  Q 182.46 330.71 180.68 327.47
  Q 180.37 326.90 179.91 327.36
  L 177.82 329.43
  Q 177.41 329.83 176.85 329.91
  Q 174.07 330.31 173.29 329.91
  C 165.04 325.68 174.24 314.72 179.75 323.04
  Q 180.22 323.74 180.59 322.99
  Q 181.43 321.30 183.29 320.32
  Q 183.62 320.14 183.29 319.95
  C 176.03 315.63 182.54 307.13 187.92 310.94
  Q 190.39 312.69 190.07 315.87
  Q 189.92 317.38 189.03 318.32
  Q 188.19 319.19 187.20 319.83
  Q 186.64 320.20 187.22 320.54
  Z"
/>
<circle fill="#2f1e9b" cx="265.09" cy="315.10" r="5.05"/>
<path fill="#2f1e9b" d="
  M 290.51 313.07
  C 292.52 309.45 296.65 308.87 299.30 312.28
  C 300.28 313.53 299.90 314.65 299.97 316.10
  Q 300.01 316.96 299.52 317.68
  C 297.33 320.88 292.61 321.08 290.65 317.38
  Q 290.28 316.68 289.79 317.31
  C 288.91 318.47 287.86 319.76 286.32 319.98
  Q 283.67 320.35 282.17 319.19
  C 275.54 314.03 285.49 305.30 289.77 313.07
  Q 290.14 313.75 290.51 313.07
  Z"
/>
<path fill="#2f1e9b" d="
  M 317.07 320.38
  C 318.28 321.15 319.71 322.24 319.95 323.75
  Q 320.44 326.82 318.76 328.57
  Q 317.08 330.32 314.58 330.02
  Q 310.80 329.56 310.13 325.85
  Q 309.52 322.49 313.12 320.48
  Q 313.83 320.08 313.08 319.77
  C 309.86 318.44 309.21 314.62 311.12 312.11
  C 312.27 310.59 314.24 309.64 316.14 310.15
  Q 319.11 310.94 319.88 313.59
  Q 321.02 317.50 317.08 319.78
  Q 316.58 320.07 317.07 320.38
  Z"
/>
<circle fill="#2f1e9b" cx="275.08" cy="325.10" r="5.04"/>
</svg>
