<svg width="390" height="390" viewBox="0 0 390 390" fill="none" xmlns="http://www.w3.org/2000/svg">
<g clip-path="url(#clip0_0_1)">
<path d="M40.36 40.46L40.17 41.51C40.1033 41.8967 39.8767 42.0467 39.49 41.96L39.15 41.88C38.7833 41.8 38.6933 41.5967 38.88 41.27C39.14 40.81 39.48 40.44 39.9 40.16C40.2933 39.8933 40.4467 39.9933 40.36 40.46Z" fill="black"/>
<path d="M177.067 70.2266L169.527 70.2134C169.262 70.213 169.047 70.4275 169.047 70.6926L169.033 78.1926C169.033 78.4577 169.248 78.6729 169.513 78.6734L177.053 78.6866C177.318 78.687 177.533 78.4725 177.533 78.2074L177.547 70.7074C177.547 70.4423 177.332 70.227 177.067 70.2266Z" fill="black"/>
<path d="M187.58 70.22H180.06C179.811 70.22 179.61 70.4215 179.61 70.67V78.23C179.61 78.4785 179.811 78.68 180.06 78.68H187.58C187.829 78.68 188.03 78.4785 188.03 78.23V70.67C188.03 70.4215 187.829 70.22 187.58 70.22Z" fill="black"/>
<path d="M198.235 70.2434L190.575 70.2167C190.332 70.2158 190.134 70.4121 190.133 70.6551L190.107 78.2151C190.106 78.4581 190.302 78.6558 190.545 78.6566L198.205 78.6833C198.448 78.6842 198.646 78.4879 198.647 78.2449L198.673 70.6849C198.674 70.4419 198.478 70.2442 198.235 70.2434Z" fill="black"/>
<path d="M208.67 70.21H201.17C200.933 70.21 200.74 70.4025 200.74 70.64V78.26C200.74 78.4975 200.933 78.69 201.17 78.69H208.67C208.907 78.69 209.1 78.4975 209.1 78.26V70.64C209.1 70.4025 208.907 70.21 208.67 70.21Z" fill="black"/>
<path d="M219.253 70.2134L211.653 70.2266C211.393 70.2271 211.183 70.4379 211.183 70.6975L211.197 78.2175C211.197 78.477 211.408 78.6871 211.667 78.6866L219.267 78.6734C219.527 78.6729 219.737 78.4621 219.737 78.2025L219.723 70.6826C219.723 70.423 219.512 70.2129 219.253 70.2134Z" fill="black"/>
<path d="M240.337 70.2366L232.757 70.2234C232.498 70.2229 232.287 70.433 232.287 70.6926L232.273 78.1926C232.273 78.4521 232.483 78.6629 232.743 78.6634L240.323 78.6766C240.582 78.6771 240.793 78.467 240.793 78.2074L240.807 70.7074C240.807 70.4479 240.597 70.2371 240.337 70.2366Z" fill="black"/>
<path d="M250.82 70.22H243.34C243.108 70.22 242.92 70.408 242.92 70.64V78.28C242.92 78.512 243.108 78.7 243.34 78.7H250.82C251.052 78.7 251.24 78.512 251.24 78.28V70.64C251.24 70.408 251.052 70.22 250.82 70.22Z" fill="black"/>
<path d="M282.497 70.2166L274.977 70.2034C274.707 70.203 274.487 70.422 274.487 70.6926L274.473 78.1926C274.473 78.4632 274.692 78.683 274.963 78.6834L282.483 78.6966C282.753 78.697 282.973 78.478 282.973 78.2074L282.987 70.7074C282.987 70.4368 282.768 70.217 282.497 70.2166Z" fill="black"/>
<path d="M293.01 70.22H285.49C285.225 70.22 285.01 70.4349 285.01 70.7V78.2C285.01 78.4651 285.225 78.68 285.49 78.68H293.01C293.275 78.68 293.49 78.4651 293.49 78.2V70.7C293.49 70.4349 293.275 70.22 293.01 70.22Z" fill="black"/>
<path d="M166.597 80.8067L158.937 80.7933C158.716 80.7929 158.537 80.9717 158.537 81.1926L158.523 88.6926C158.523 88.9135 158.702 89.0929 158.923 89.0933L166.583 89.1067C166.804 89.1071 166.983 88.9283 166.983 88.7074L166.997 81.2074C166.997 80.9865 166.818 80.8071 166.597 80.8067Z" fill="black"/>
<path d="M177.177 80.7768L169.377 80.7632C169.19 80.7629 169.037 80.9148 169.037 81.1026L169.023 88.7826C169.023 88.9704 169.175 89.1229 169.363 89.1232L177.163 89.1368C177.35 89.1371 177.503 88.9852 177.503 88.7974L177.517 81.1174C177.517 80.9296 177.365 80.7771 177.177 80.7768Z" fill="black"/>
<path d="M208.623 80.7635L201.223 80.7765C200.958 80.7769 200.743 80.9922 200.743 81.2573L200.757 88.7173C200.757 88.9824 200.972 89.1969 201.237 89.1964L208.637 89.1835C208.902 89.1831 209.117 88.9678 209.117 88.7027L209.103 81.2427C209.103 80.9776 208.888 80.7631 208.623 80.7635Z" fill="black"/>
<path d="M219.37 80.76H211.57C211.366 80.76 211.2 80.9257 211.2 81.13V88.81C211.2 89.0143 211.366 89.18 211.57 89.18H219.37C219.574 89.18 219.74 89.0143 219.74 88.81V81.13C219.74 80.9257 219.574 80.76 219.37 80.76Z" fill="black"/>
<path d="M229.747 80.8066L222.247 80.7935C221.999 80.793 221.797 80.9942 221.797 81.2427L221.783 88.7227C221.783 88.9712 221.984 89.173 222.233 89.1735L229.733 89.1865C229.981 89.187 230.183 88.9859 230.183 88.7373L230.197 81.2573C230.197 81.0088 229.996 80.807 229.747 80.8066Z" fill="black"/>
<path d="M250.813 80.7535L243.393 80.7665C243.139 80.7669 242.933 80.9732 242.933 81.2273L242.947 88.7473C242.947 89.0013 243.153 89.2069 243.407 89.2065L250.827 89.1935C251.081 89.1931 251.287 88.9868 251.287 88.7327L251.273 81.2127C251.273 80.9587 251.067 80.7531 250.813 80.7535Z" fill="black"/>
<path d="M261.543 80.8032L253.703 80.8169C253.515 80.8172 253.363 80.9697 253.363 81.1574L253.377 88.8374C253.377 89.0252 253.53 89.1772 253.717 89.1768L261.557 89.1632C261.745 89.1628 261.897 89.0103 261.897 88.8226L261.883 81.1426C261.883 80.9548 261.73 80.8028 261.543 80.8032Z" fill="black"/>
<path d="M271.963 80.7934L264.403 80.8066C264.171 80.807 263.983 80.9954 263.983 81.2273L263.997 88.7273C263.997 88.9593 264.185 89.147 264.417 89.1466L271.977 89.1334C272.209 89.133 272.397 88.9446 272.397 88.7127L272.383 81.2127C272.383 80.9807 272.195 80.793 271.963 80.7934Z" fill="black"/>
<path d="M282.643 80.7631L274.783 80.7769C274.612 80.7772 274.473 80.9162 274.473 81.0874L274.487 88.7874C274.487 88.9586 274.626 89.0971 274.797 89.0969L282.657 89.0831C282.828 89.0828 282.967 88.9438 282.967 88.7726L282.953 81.0726C282.953 80.9014 282.814 80.7628 282.643 80.7631Z" fill="black"/>
<path d="M187.573 91.2635L180.093 91.2765C179.85 91.277 179.653 91.4743 179.653 91.7173L179.667 99.3173C179.667 99.5603 179.864 99.7569 180.107 99.7565L187.587 99.7435C187.83 99.743 188.027 99.5457 188.027 99.3027L188.013 91.7027C188.013 91.4597 187.816 91.2631 187.573 91.2635Z" fill="black"/>
<path d="M208.645 91.247L201.165 91.2731C200.928 91.2739 200.736 91.4671 200.737 91.7046L200.763 99.3445C200.764 99.582 200.957 99.7739 201.195 99.773L208.675 99.7469C208.912 99.7461 209.104 99.5529 209.103 99.3154L209.077 91.6755C209.076 91.438 208.883 91.2461 208.645 91.247Z" fill="black"/>
<path d="M219.255 91.2468L211.655 91.2733C211.396 91.2742 211.186 91.4854 211.187 91.7449L211.213 99.3049C211.214 99.5645 211.425 99.7741 211.685 99.7732L219.285 99.7467C219.544 99.7458 219.754 99.5346 219.753 99.2751L219.727 91.7151C219.726 91.4555 219.515 91.2459 219.255 91.2468Z" fill="black"/>
<path d="M229.72 91.26H222.26C222 91.26 221.79 91.4704 221.79 91.73V99.27C221.79 99.5296 222 99.74 222.26 99.74H229.72C229.98 99.74 230.19 99.5296 230.19 99.27V91.73C230.19 91.4704 229.98 91.26 229.72 91.26Z" fill="black"/>
<path d="M250.88 91.25H243.34C243.125 91.25 242.95 91.4246 242.95 91.64V99.36C242.95 99.5754 243.125 99.75 243.34 99.75H250.88C251.095 99.75 251.27 99.5754 251.27 99.36V91.64C251.27 91.4246 251.095 91.25 250.88 91.25Z" fill="black"/>
<path d="M261.423 91.2533L253.783 91.2667C253.545 91.2671 253.353 91.4599 253.353 91.6974L253.367 99.3174C253.367 99.5549 253.56 99.7471 253.797 99.7467L261.437 99.7333C261.675 99.7329 261.867 99.5401 261.867 99.3026L261.853 91.6826C261.853 91.4451 261.66 91.2529 261.423 91.2533Z" fill="black"/>
<path d="M177.203 101.903L169.343 101.917C169.172 101.917 169.033 102.056 169.033 102.227L169.047 109.947C169.047 110.119 169.186 110.257 169.357 110.257L177.217 110.243C177.388 110.243 177.527 110.104 177.527 109.933L177.513 102.213C177.513 102.041 177.374 101.903 177.203 101.903Z" fill="black"/>
<path d="M208.673 101.863L201.173 101.877C200.935 101.877 200.743 102.07 200.743 102.307L200.757 109.827C200.757 110.065 200.95 110.257 201.187 110.257L208.687 110.243C208.925 110.243 209.117 110.05 209.117 109.813L209.103 102.293C209.103 102.055 208.91 101.863 208.673 101.863Z" fill="black"/>
<path d="M219.4 101.87H211.52C211.338 101.87 211.19 102.018 211.19 102.2V109.9C211.19 110.082 211.338 110.23 211.52 110.23H219.4C219.582 110.23 219.73 110.082 219.73 109.9V102.2C219.73 102.018 219.582 101.87 219.4 101.87Z" fill="black"/>
<path d="M240.425 101.906L232.606 101.934C232.418 101.934 232.266 102.087 232.267 102.275L232.293 109.895C232.294 110.083 232.447 110.234 232.635 110.234L240.454 110.206C240.642 110.206 240.794 110.053 240.793 109.865L240.767 102.245C240.766 102.057 240.613 101.906 240.425 101.906Z" fill="black"/>
<path d="M271.973 101.903L264.353 101.917C264.154 101.917 263.993 102.078 263.993 102.277L264.007 109.897C264.007 110.096 264.168 110.257 264.367 110.257L271.987 110.243C272.186 110.243 272.347 110.082 272.347 109.883L272.333 102.263C272.333 102.064 272.172 101.903 271.973 101.903Z" fill="black"/>
<path d="M293.157 101.937L285.337 101.923C285.161 101.923 285.017 102.066 285.017 102.243L285.003 109.903C285.003 110.079 285.146 110.223 285.323 110.223L293.143 110.237C293.319 110.237 293.463 110.094 293.463 109.917L293.477 102.257C293.477 102.081 293.334 101.937 293.157 101.937Z" fill="black"/>
<path d="M177.073 112.323L169.493 112.337C169.239 112.337 169.033 112.543 169.033 112.797L169.047 120.357C169.047 120.611 169.253 120.817 169.507 120.817L177.087 120.803C177.341 120.803 177.547 120.597 177.547 120.343L177.533 112.783C177.533 112.529 177.327 112.323 177.073 112.323Z" fill="black"/>
<path d="M187.597 112.367L180.057 112.353C179.82 112.353 179.627 112.545 179.627 112.783L179.613 120.383C179.613 120.62 179.805 120.813 180.043 120.813L187.583 120.827C187.82 120.827 188.013 120.635 188.013 120.397L188.027 112.797C188.027 112.56 187.835 112.367 187.597 112.367Z" fill="black"/>
<path d="M208.655 112.317L201.135 112.343C200.92 112.344 200.746 112.519 200.747 112.735L200.773 120.434C200.774 120.65 200.949 120.824 201.165 120.823L208.685 120.797C208.9 120.796 209.074 120.621 209.073 120.405L209.047 112.706C209.046 112.49 208.871 112.316 208.655 112.317Z" fill="black"/>
<path d="M229.73 112.37H222.29C222.036 112.37 221.83 112.576 221.83 112.83V120.35C221.83 120.604 222.036 120.81 222.29 120.81H229.73C229.984 120.81 230.19 120.604 230.19 120.35V112.83C230.19 112.576 229.984 112.37 229.73 112.37Z" fill="black"/>
<path d="M261.433 112.343L253.833 112.357C253.584 112.357 253.383 112.559 253.383 112.807L253.397 120.367C253.397 120.616 253.599 120.817 253.847 120.817L261.447 120.803C261.696 120.803 261.897 120.601 261.897 120.353L261.883 112.793C261.883 112.544 261.681 112.343 261.433 112.343Z" fill="black"/>
<path d="M271.935 112.297L264.355 112.323C264.145 112.324 263.976 112.495 263.977 112.705L264.004 120.445C264.004 120.654 264.175 120.824 264.385 120.823L271.965 120.797C272.175 120.796 272.344 120.625 272.343 120.415L272.316 112.675C272.316 112.466 272.145 112.296 271.935 112.297Z" fill="black"/>
<path d="M166.597 122.987L158.937 122.973C158.722 122.973 158.547 123.147 158.547 123.363L158.533 130.943C158.533 131.158 158.707 131.333 158.923 131.333L166.583 131.347C166.798 131.347 166.973 131.173 166.973 130.957L166.987 123.377C166.987 123.162 166.813 122.987 166.597 122.987Z" fill="black"/>
<path d="M187.667 122.977L180.047 122.963C179.837 122.963 179.667 123.133 179.667 123.343L179.653 130.943C179.653 131.153 179.823 131.323 180.033 131.323L187.653 131.337C187.863 131.337 188.033 131.167 188.033 130.957L188.047 123.357C188.047 123.147 187.877 122.977 187.667 122.977Z" fill="black"/>
<path d="M198.38 122.99H190.4C190.245 122.99 190.12 123.115 190.12 123.27V130.99C190.12 131.145 190.245 131.27 190.4 131.27H198.38C198.535 131.27 198.66 131.145 198.66 130.99V123.27C198.66 123.115 198.535 122.99 198.38 122.99Z" fill="black"/>
<path d="M208.677 122.967L201.137 122.953C200.922 122.953 200.747 123.127 200.747 123.343L200.733 130.923C200.733 131.138 200.907 131.313 201.123 131.313L208.663 131.327C208.878 131.327 209.053 131.153 209.053 130.937L209.067 123.357C209.067 123.142 208.893 122.967 208.677 122.967Z" fill="black"/>
<path d="M229.78 122.97H222.26C222.017 122.97 221.82 123.167 221.82 123.41V130.89C221.82 131.133 222.017 131.33 222.26 131.33H229.78C230.023 131.33 230.22 131.133 230.22 130.89V123.41C230.22 123.167 230.023 122.97 229.78 122.97Z" fill="black"/>
<path d="M240.503 122.983L232.543 122.997C232.388 122.997 232.263 123.123 232.263 123.277L232.277 131.017C232.277 131.172 232.403 131.297 232.557 131.297L240.517 131.283C240.672 131.283 240.797 131.157 240.797 131.003L240.783 123.263C240.783 123.108 240.657 122.983 240.503 122.983Z" fill="black"/>
<path d="M250.927 122.987L243.287 122.973C243.088 122.973 242.927 123.134 242.927 123.333L242.913 130.953C242.913 131.152 243.074 131.313 243.273 131.313L250.913 131.327C251.112 131.327 251.273 131.166 251.273 130.967L251.287 123.347C251.287 123.148 251.126 122.987 250.927 122.987Z" fill="black"/>
<path d="M261.563 122.973L253.663 122.987C253.497 122.987 253.363 123.122 253.363 123.287L253.377 130.987C253.377 131.153 253.512 131.287 253.677 131.287L261.577 131.273C261.743 131.273 261.877 131.138 261.877 130.973L261.863 123.273C261.863 123.107 261.728 122.973 261.563 122.973Z" fill="black"/>
<path d="M282.65 122.99H274.79C274.624 122.99 274.49 123.124 274.49 123.29V130.99C274.49 131.156 274.624 131.29 274.79 131.29H282.65C282.816 131.29 282.95 131.156 282.95 130.99V123.29C282.95 123.124 282.816 122.99 282.65 122.99Z" fill="black"/>
<path d="M166.55 133.46H158.95C158.713 133.46 158.52 133.653 158.52 133.89V141.51C158.52 141.747 158.713 141.94 158.95 141.94H166.55C166.787 141.94 166.98 141.747 166.98 141.51V133.89C166.98 133.653 166.787 133.46 166.55 133.46Z" fill="black"/>
<path d="M187.69 133.46H179.99C179.808 133.46 179.66 133.608 179.66 133.79V141.59C179.66 141.772 179.808 141.92 179.99 141.92H187.69C187.872 141.92 188.02 141.772 188.02 141.59V133.79C188.02 133.608 187.872 133.46 187.69 133.46Z" fill="black"/>
<path d="M208.687 133.457L201.147 133.443C200.932 133.443 200.757 133.617 200.757 133.833L200.743 141.533C200.743 141.748 200.917 141.923 201.133 141.923L208.673 141.937C208.888 141.937 209.063 141.763 209.063 141.547L209.077 133.847C209.077 133.632 208.903 133.457 208.687 133.457Z" fill="black"/>
<path d="M229.74 133.45H222.28C222.031 133.45 221.83 133.651 221.83 133.9V141.46C221.83 141.709 222.031 141.91 222.28 141.91H229.74C229.989 141.91 230.19 141.709 230.19 141.46V133.9C230.19 133.651 229.989 133.45 229.74 133.45Z" fill="black"/>
<path d="M250.873 133.453L243.313 133.467C243.108 133.467 242.943 133.633 242.943 133.837L242.957 141.557C242.957 141.762 243.123 141.927 243.327 141.927L250.887 141.913C251.092 141.913 251.257 141.747 251.257 141.543L251.243 133.823C251.243 133.618 251.077 133.453 250.873 133.453Z" fill="black"/>
<path d="M271.93 133.48H264.41C264.184 133.48 264 133.664 264 133.89V141.51C264 141.736 264.184 141.92 264.41 141.92H271.93C272.156 141.92 272.34 141.736 272.34 141.51V133.89C272.34 133.664 272.156 133.48 271.93 133.48Z" fill="black"/>
<path d="M293.033 133.473L285.453 133.487C285.21 133.487 285.013 133.684 285.013 133.927L285.027 141.487C285.027 141.73 285.224 141.927 285.467 141.927L293.047 141.913C293.29 141.913 293.487 141.716 293.487 141.473L293.473 133.913C293.473 133.67 293.276 133.473 293.033 133.473Z" fill="black"/>
<path d="M166.537 144.007L158.997 143.993C158.743 143.993 158.537 144.199 158.537 144.453L158.523 151.953C158.523 152.207 158.729 152.413 158.983 152.413L166.523 152.427C166.777 152.427 166.983 152.221 166.983 151.967L166.997 144.467C166.997 144.213 166.791 144.007 166.537 144.007Z" fill="black"/>
<path d="M198.215 144.023L190.595 143.997C190.341 143.996 190.134 144.201 190.133 144.455L190.107 151.975C190.106 152.229 190.311 152.436 190.565 152.437L198.185 152.463C198.439 152.464 198.646 152.259 198.647 152.005L198.673 144.485C198.674 144.231 198.469 144.024 198.215 144.023Z" fill="black"/>
<path d="M208.717 144.017L201.137 144.003C200.916 144.003 200.737 144.182 200.737 144.403L200.723 152.063C200.723 152.284 200.902 152.463 201.123 152.463L208.703 152.477C208.924 152.477 209.103 152.298 209.103 152.077L209.117 144.417C209.117 144.196 208.938 144.017 208.717 144.017Z" fill="black"/>
<path d="M219.307 144.017L211.627 144.003C211.39 144.003 211.197 144.195 211.197 144.433L211.183 151.973C211.183 152.21 211.375 152.403 211.613 152.403L219.293 152.417C219.53 152.417 219.723 152.225 219.723 151.987L219.737 144.447C219.737 144.21 219.545 144.017 219.307 144.017Z" fill="black"/>
<path d="M240.293 143.993L232.773 144.007C232.496 144.007 232.273 144.231 232.274 144.507L232.287 151.967C232.287 152.244 232.511 152.467 232.787 152.467L240.307 152.453C240.584 152.453 240.807 152.229 240.807 151.953L240.793 144.493C240.793 144.216 240.569 143.993 240.293 143.993Z" fill="black"/>
<path d="M124.4 154.55H116.78C116.537 154.55 116.34 154.747 116.34 154.99V162.53C116.34 162.773 116.537 162.97 116.78 162.97H124.4C124.643 162.97 124.84 162.773 124.84 162.53V154.99C124.84 154.747 124.643 154.55 124.4 154.55Z" fill="black"/>
<path d="M134.92 154.54H127.4C127.163 154.54 126.97 154.733 126.97 154.97V162.55C126.97 162.787 127.163 162.98 127.4 162.98H134.92C135.157 162.98 135.35 162.787 135.35 162.55V154.97C135.35 154.733 135.157 154.54 134.92 154.54Z" fill="black"/>
<path d="M145.513 154.543L137.833 154.557C137.606 154.557 137.423 154.741 137.423 154.967L137.437 162.567C137.437 162.794 137.621 162.977 137.847 162.977L145.527 162.963C145.754 162.963 145.937 162.779 145.937 162.553L145.923 154.953C145.923 154.726 145.739 154.543 145.513 154.543Z" fill="black"/>
<path d="M156.017 154.547L148.437 154.533C148.2 154.533 148.007 154.725 148.007 154.963L147.993 162.543C147.993 162.78 148.185 162.973 148.423 162.973L156.003 162.987C156.24 162.987 156.433 162.795 156.433 162.557L156.447 154.977C156.447 154.74 156.255 154.547 156.017 154.547Z" fill="black"/>
<path d="M177.063 154.533L169.483 154.547C169.24 154.547 169.043 154.744 169.043 154.987L169.057 162.547C169.057 162.79 169.254 162.987 169.497 162.987L177.077 162.973C177.32 162.973 177.517 162.776 177.517 162.533L177.503 154.973C177.503 154.73 177.306 154.533 177.063 154.533Z" fill="black"/>
<path d="M198.27 154.52H190.51C190.295 154.52 190.12 154.695 190.12 154.91V162.57C190.12 162.785 190.295 162.96 190.51 162.96H198.27C198.485 162.96 198.66 162.785 198.66 162.57V154.91C198.66 154.695 198.485 154.52 198.27 154.52Z" fill="black"/>
<path d="M208.66 154.51H201.14C200.914 154.51 200.73 154.694 200.73 154.92V162.56C200.73 162.786 200.914 162.97 201.14 162.97H208.66C208.886 162.97 209.07 162.786 209.07 162.56V154.92C209.07 154.694 208.886 154.51 208.66 154.51Z" fill="black"/>
<path d="M282.517 154.557L274.957 154.543C274.703 154.543 274.497 154.749 274.497 155.003L274.483 162.503C274.483 162.757 274.689 162.963 274.943 162.963L282.503 162.977C282.757 162.977 282.963 162.771 282.963 162.517L282.977 155.017C282.977 154.763 282.771 154.557 282.517 154.557Z" fill="black"/>
<path d="M293.03 154.55H285.45C285.207 154.55 285.01 154.747 285.01 154.99V162.53C285.01 162.773 285.207 162.97 285.45 162.97H293.03C293.273 162.97 293.47 162.773 293.47 162.53V154.99C293.47 154.747 293.273 154.55 293.03 154.55Z" fill="black"/>
<path d="M314.123 154.543L306.503 154.557C306.26 154.557 306.063 154.754 306.063 154.997L306.077 162.537C306.077 162.78 306.274 162.977 306.517 162.977L314.137 162.963C314.38 162.963 314.577 162.766 314.577 162.523L314.563 154.983C314.563 154.74 314.366 154.543 314.123 154.543Z" fill="black"/>
<path d="M324.56 154.55H317.14C316.88 154.55 316.67 154.76 316.67 155.02V162.5C316.67 162.76 316.88 162.97 317.14 162.97H324.56C324.82 162.97 325.03 162.76 325.03 162.5V155.02C325.03 154.76 324.82 154.55 324.56 154.55Z" fill="black"/>
<path d="M366.777 154.547L359.337 154.534C359.089 154.533 358.887 154.734 358.887 154.983L358.873 162.523C358.873 162.771 359.074 162.973 359.323 162.974L366.763 162.986C367.011 162.987 367.213 162.786 367.213 162.537L367.227 154.997C367.227 154.749 367.026 154.547 366.777 154.547Z" fill="black"/>
<path d="M82.2947 165.093L74.6347 165.067C74.3917 165.066 74.194 165.262 74.1932 165.505L74.1669 173.045C74.166 173.288 74.3623 173.486 74.6053 173.487L82.2653 173.513C82.5083 173.514 82.706 173.318 82.7068 173.075L82.7331 165.535C82.734 165.292 82.5377 165.094 82.2947 165.093Z" fill="black"/>
<path d="M92.7726 165.063L85.1526 165.077C84.9317 165.077 84.753 165.256 84.7533 165.477L84.7667 173.117C84.7671 173.338 84.9465 173.517 85.1674 173.517L92.7874 173.503C93.0083 173.503 93.187 173.324 93.1867 173.103L93.1733 165.463C93.1729 165.242 92.9935 165.063 92.7726 165.063Z" fill="black"/>
<path d="M103.28 165.07H95.72C95.4549 165.07 95.24 165.285 95.24 165.55V173.01C95.24 173.275 95.4549 173.49 95.72 173.49H103.28C103.545 173.49 103.76 173.275 103.76 173.01V165.55C103.76 165.285 103.545 165.07 103.28 165.07Z" fill="black"/>
<path d="M113.897 165.067L106.257 165.053C106.053 165.053 105.887 165.218 105.887 165.423L105.873 173.143C105.873 173.347 106.038 173.513 106.243 173.513L113.883 173.527C114.087 173.527 114.253 173.362 114.253 173.157L114.267 165.437C114.267 165.233 114.102 165.067 113.897 165.067Z" fill="black"/>
<path d="M124.385 165.057L116.745 165.083C116.502 165.084 116.306 165.282 116.307 165.525L116.333 173.065C116.334 173.308 116.532 173.504 116.775 173.503L124.415 173.477C124.658 173.476 124.854 173.278 124.853 173.035L124.827 165.495C124.826 165.252 124.628 165.056 124.385 165.057Z" fill="black"/>
<path d="M134.967 165.057L127.327 165.043C127.14 165.043 126.987 165.195 126.987 165.383L126.973 173.163C126.973 173.351 127.125 173.503 127.313 173.503L134.953 173.517C135.14 173.517 135.293 173.365 135.293 173.177L135.307 165.397C135.307 165.209 135.155 165.057 134.967 165.057Z" fill="black"/>
<path d="M156.077 165.047L148.397 165.033C148.182 165.033 148.007 165.207 148.007 165.423L147.993 173.123C147.993 173.338 148.167 173.513 148.383 173.513L156.063 173.527C156.278 173.527 156.453 173.353 156.453 173.137L156.467 165.437C156.467 165.222 156.293 165.047 156.077 165.047Z" fill="black"/>
<path d="M166.533 165.063L158.953 165.077C158.71 165.077 158.513 165.274 158.513 165.517L158.527 173.077C158.527 173.32 158.724 173.517 158.967 173.517L166.547 173.503C166.79 173.503 166.987 173.306 166.987 173.063L166.973 165.503C166.973 165.26 166.776 165.063 166.533 165.063Z" fill="black"/>
<path d="M208.695 165.047L201.135 165.073C200.914 165.074 200.736 165.254 200.737 165.475L200.763 173.115C200.764 173.335 200.944 173.514 201.165 173.513L208.725 173.487C208.946 173.486 209.124 173.306 209.123 173.085L209.097 165.445C209.096 165.225 208.916 165.046 208.695 165.047Z" fill="black"/>
<path d="M219.277 165.077L211.657 165.063C211.403 165.063 211.197 165.269 211.197 165.523L211.183 173.023C211.183 173.277 211.389 173.483 211.643 173.483L219.263 173.497C219.517 173.497 219.723 173.292 219.723 173.037L219.737 165.537C219.737 165.283 219.531 165.077 219.277 165.077Z" fill="black"/>
<path d="M261.423 165.063L253.823 165.077C253.58 165.077 253.383 165.274 253.383 165.517L253.397 173.057C253.397 173.3 253.594 173.497 253.837 173.497L261.437 173.483C261.68 173.483 261.877 173.286 261.877 173.043L261.863 165.503C261.863 165.26 261.666 165.063 261.423 165.063Z" fill="black"/>
<path d="M271.973 165.053L264.393 165.067C264.172 165.067 263.993 165.246 263.993 165.467L264.007 173.127C264.007 173.348 264.186 173.527 264.407 173.527L271.987 173.513C272.208 173.513 272.387 173.334 272.387 173.113L272.373 165.453C272.373 165.232 272.194 165.053 271.973 165.053Z" fill="black"/>
<path d="M282.523 165.043L274.883 165.057C274.651 165.057 274.463 165.245 274.463 165.477L274.477 173.097C274.477 173.329 274.665 173.517 274.897 173.517L282.537 173.503C282.769 173.503 282.957 173.315 282.957 173.083L282.943 165.463C282.943 165.231 282.755 165.043 282.523 165.043Z" fill="black"/>
<path d="M314.095 165.027L306.495 165.053C306.247 165.054 306.046 165.256 306.047 165.505L306.073 173.065C306.074 173.313 306.276 173.514 306.525 173.513L314.125 173.487C314.373 173.486 314.574 173.284 314.573 173.035L314.547 165.475C314.546 165.227 314.344 165.026 314.095 165.027Z" fill="black"/>
<path d="M324.653 165.053L317.053 165.067C316.837 165.067 316.663 165.242 316.663 165.457L316.677 173.117C316.677 173.333 316.852 173.507 317.067 173.507L324.667 173.493C324.883 173.493 325.057 173.318 325.057 173.103L325.043 165.443C325.043 165.227 324.868 165.053 324.653 165.053Z" fill="black"/>
<path d="M335.287 165.087L327.527 165.073C327.317 165.073 327.147 165.243 327.147 165.453L327.133 173.113C327.133 173.322 327.303 173.493 327.513 173.493L335.273 173.507C335.482 173.507 335.653 173.337 335.653 173.127L335.667 165.467C335.667 165.258 335.497 165.087 335.287 165.087Z" fill="black"/>
<path d="M356.27 165.07H348.71C348.445 165.07 348.23 165.285 348.23 165.55V173.01C348.23 173.275 348.445 173.49 348.71 173.49H356.27C356.535 173.49 356.75 173.275 356.75 173.01V165.55C356.75 165.285 356.535 165.07 356.27 165.07Z" fill="black"/>
<path d="M366.807 165.067L359.267 165.053C359.03 165.053 358.837 165.245 358.837 165.483L358.823 173.063C358.823 173.3 359.015 173.493 359.253 173.493L366.793 173.507C367.03 173.507 367.223 173.315 367.223 173.077L367.237 165.497C367.237 165.26 367.045 165.067 366.807 165.067Z" fill="black"/>
<path d="M377.408 165.06L369.648 165.1C369.438 165.101 369.269 165.272 369.27 165.482L369.31 173.142C369.311 173.352 369.482 173.521 369.692 173.52L377.452 173.48C377.662 173.479 377.831 173.308 377.83 173.098L377.79 165.438C377.789 165.228 377.618 165.059 377.408 165.06Z" fill="black"/>
<path d="M82.3827 175.623L74.5227 175.637C74.3349 175.637 74.1829 175.79 74.1833 175.977L74.1967 183.697C74.1971 183.885 74.3496 184.037 74.5373 184.037L82.3973 184.023C82.5851 184.023 82.7371 183.87 82.7367 183.683L82.7233 175.963C82.7229 175.775 82.5704 175.623 82.3827 175.623Z" fill="black"/>
<path d="M92.6927 175.623L85.1927 175.637C84.9497 175.637 84.753 175.834 84.7535 176.077L84.7665 183.577C84.767 183.82 84.9643 184.017 85.2073 184.017L92.7073 184.003C92.9503 184.003 93.147 183.806 93.1465 183.563L93.1334 176.063C93.133 175.82 92.9357 175.623 92.6927 175.623Z" fill="black"/>
<path d="M113.777 175.636L106.377 175.624C106.123 175.623 105.917 175.829 105.917 176.083L105.903 183.563C105.903 183.817 106.109 184.023 106.363 184.024L113.763 184.036C114.017 184.037 114.223 183.831 114.223 183.577L114.237 176.097C114.237 175.843 114.031 175.637 113.777 175.636Z" fill="black"/>
<path d="M134.94 175.63H127.4C127.179 175.63 127 175.809 127 176.03V183.63C127 183.851 127.179 184.03 127.4 184.03H134.94C135.161 184.03 135.34 183.851 135.34 183.63V176.03C135.34 175.809 135.161 175.63 134.94 175.63Z" fill="black"/>
<path d="M156.077 175.637L148.397 175.623C148.182 175.623 148.007 175.797 148.007 176.013L147.993 183.613C147.993 183.828 148.167 184.003 148.383 184.003L156.063 184.017C156.278 184.017 156.453 183.843 156.453 183.627L156.467 176.027C156.467 175.812 156.293 175.637 156.077 175.637Z" fill="black"/>
<path d="M166.583 175.623L158.903 175.637C158.687 175.637 158.513 175.812 158.513 176.027L158.527 183.647C158.527 183.863 158.702 184.037 158.917 184.037L166.597 184.023C166.813 184.023 166.987 183.848 166.987 183.633L166.973 176.013C166.973 175.797 166.798 175.623 166.583 175.623Z" fill="black"/>
<path d="M271.943 175.613L264.423 175.627C264.185 175.627 263.993 175.82 263.993 176.057L264.007 183.597C264.007 183.835 264.2 184.027 264.437 184.027L271.957 184.013C272.195 184.013 272.387 183.82 272.387 183.583L272.373 176.043C272.373 175.805 272.18 175.613 271.943 175.613Z" fill="black"/>
<path d="M282.573 175.633L274.833 175.647C274.628 175.647 274.463 175.813 274.463 176.017L274.477 183.657C274.477 183.862 274.643 184.027 274.847 184.027L282.587 184.013C282.792 184.013 282.957 183.847 282.957 183.643L282.943 176.003C282.943 175.798 282.777 175.633 282.573 175.633Z" fill="black"/>
<path d="M335.313 175.623L327.513 175.637C327.314 175.637 327.153 175.799 327.153 175.997L327.167 183.677C327.167 183.876 327.329 184.037 327.527 184.037L335.327 184.023C335.526 184.023 335.687 183.861 335.687 183.663L335.673 175.983C335.673 175.784 335.511 175.623 335.313 175.623Z" fill="black"/>
<path d="M377.44 175.64H369.66C369.461 175.64 369.3 175.801 369.3 176V183.66C369.3 183.859 369.461 184.02 369.66 184.02H377.44C377.639 184.02 377.8 183.859 377.8 183.66V176C377.8 175.801 377.639 175.64 377.44 175.64Z" fill="black"/>
<path d="M145.643 175.683L137.723 175.697C137.563 175.697 137.433 175.827 137.433 175.987L137.447 183.727C137.447 183.888 137.577 184.017 137.737 184.017L145.657 184.003C145.817 184.003 145.947 183.873 145.947 183.713L145.933 175.973C145.933 175.812 145.803 175.683 145.643 175.683Z" fill="black"/>
<path d="M240.427 175.687L232.647 175.673C232.448 175.673 232.287 175.834 232.287 176.033L232.273 183.653C232.273 183.851 232.434 184.013 232.633 184.013L240.413 184.027C240.612 184.027 240.773 183.866 240.773 183.667L240.787 176.047C240.787 175.849 240.626 175.687 240.427 175.687Z" fill="black"/>
<path d="M303.603 175.673L295.963 175.687C295.747 175.687 295.573 175.862 295.573 176.077L295.587 183.637C295.587 183.853 295.762 184.027 295.977 184.027L303.617 184.013C303.833 184.013 304.007 183.838 304.007 183.623L303.993 176.063C303.993 175.847 303.818 175.673 303.603 175.673Z" fill="black"/>
<path d="M82.2174 186.107L74.6974 186.093C74.4213 186.093 74.197 186.316 74.1965 186.593L74.1835 194.093C74.183 194.369 74.4064 194.593 74.6826 194.593L82.2026 194.607C82.4787 194.607 82.703 194.384 82.7034 194.107L82.7165 186.607C82.717 186.331 82.4935 186.107 82.2174 186.107Z" fill="black"/>
<path d="M103.327 186.147L95.7274 186.133C95.4678 186.133 95.257 186.343 95.2565 186.603L95.2435 194.103C95.243 194.362 95.4531 194.573 95.7126 194.573L103.313 194.587C103.572 194.587 103.783 194.377 103.783 194.117L103.797 186.617C103.797 186.358 103.587 186.147 103.327 186.147Z" fill="black"/>
<path d="M113.845 186.133L106.305 186.107C106.073 186.106 105.884 186.293 105.883 186.525L105.857 194.145C105.856 194.377 106.043 194.566 106.275 194.567L113.815 194.593C114.047 194.594 114.236 194.407 114.237 194.175L114.263 186.555C114.264 186.323 114.077 186.134 113.845 186.133Z" fill="black"/>
<path d="M134.897 186.117L127.397 186.103C127.171 186.103 126.987 186.286 126.987 186.513L126.973 194.173C126.973 194.399 127.156 194.583 127.383 194.583L134.883 194.597C135.109 194.597 135.293 194.414 135.293 194.187L135.307 186.527C135.307 186.301 135.124 186.117 134.897 186.117Z" fill="black"/>
<path d="M166.51 186.09H159.01C158.745 186.09 158.53 186.305 158.53 186.57V194.15C158.53 194.415 158.745 194.63 159.01 194.63H166.51C166.775 194.63 166.99 194.415 166.99 194.15V186.57C166.99 186.305 166.775 186.09 166.51 186.09Z" fill="black"/>
<path d="M177.107 186.157L169.467 186.143C169.224 186.143 169.027 186.34 169.027 186.583L169.013 194.123C169.013 194.366 169.21 194.563 169.453 194.563L177.093 194.577C177.336 194.577 177.533 194.38 177.533 194.137L177.547 186.597C177.547 186.354 177.35 186.157 177.107 186.157Z" fill="black"/>
<path d="M187.673 186.143L179.973 186.157C179.774 186.157 179.613 186.319 179.613 186.517L179.627 194.257C179.627 194.456 179.789 194.617 179.987 194.617L187.687 194.603C187.886 194.603 188.047 194.441 188.047 194.243L188.033 186.503C188.033 186.304 187.871 186.143 187.673 186.143Z" fill="black"/>
<path d="M208.71 186.16H201.13C200.904 186.16 200.72 186.344 200.72 186.57V194.17C200.72 194.396 200.904 194.58 201.13 194.58H208.71C208.936 194.58 209.12 194.396 209.12 194.17V186.57C209.12 186.344 208.936 186.16 208.71 186.16Z" fill="black"/>
<path d="M240.323 186.103L232.743 186.117C232.483 186.117 232.273 186.328 232.273 186.587L232.287 194.107C232.287 194.367 232.498 194.577 232.757 194.577L240.337 194.563C240.597 194.563 240.807 194.352 240.807 194.093L240.793 186.573C240.793 186.313 240.582 186.103 240.323 186.103Z" fill="black"/>
<path d="M250.917 186.167L243.257 186.153C243.07 186.153 242.917 186.305 242.917 186.493L242.903 194.273C242.903 194.46 243.055 194.613 243.243 194.613L250.903 194.627C251.09 194.627 251.243 194.475 251.243 194.287L251.257 186.507C251.257 186.32 251.105 186.167 250.917 186.167Z" fill="black"/>
<path d="M271.953 186.103L264.413 186.117C264.181 186.117 263.993 186.305 263.993 186.537L264.007 194.177C264.007 194.409 264.195 194.597 264.427 194.597L271.967 194.583C272.199 194.583 272.387 194.395 272.387 194.163L272.373 186.523C272.373 186.291 272.185 186.103 271.953 186.103Z" fill="black"/>
<path d="M282.523 186.123L274.903 186.137C274.66 186.137 274.463 186.334 274.463 186.577L274.477 194.137C274.477 194.38 274.674 194.577 274.917 194.577L282.537 194.563C282.78 194.563 282.977 194.366 282.977 194.123L282.963 186.563C282.963 186.32 282.766 186.123 282.523 186.123Z" fill="black"/>
<path d="M293.087 186.157L285.427 186.143C285.206 186.143 285.027 186.322 285.027 186.543L285.013 194.203C285.013 194.424 285.192 194.603 285.413 194.603L293.073 194.617C293.294 194.617 293.473 194.438 293.473 194.217L293.487 186.557C293.487 186.336 293.308 186.157 293.087 186.157Z" fill="black"/>
<path d="M303.513 186.113L296.013 186.127C295.748 186.127 295.533 186.342 295.533 186.607L295.547 194.107C295.547 194.372 295.762 194.587 296.027 194.587L303.527 194.573C303.792 194.573 304.007 194.358 304.007 194.093L303.993 186.593C303.993 186.328 303.778 186.113 303.513 186.113Z" fill="black"/>
<path d="M335.195 186.083L327.675 186.057C327.393 186.056 327.164 186.283 327.163 186.565L327.137 194.045C327.136 194.327 327.364 194.556 327.645 194.557L335.165 194.583C335.447 194.584 335.676 194.357 335.677 194.075L335.703 186.595C335.704 186.313 335.476 186.084 335.195 186.083Z" fill="black"/>
<path d="M345.707 186.157L338.167 186.143C337.941 186.143 337.757 186.326 337.757 186.553L337.743 194.193C337.743 194.419 337.926 194.603 338.153 194.603L345.693 194.617C345.919 194.617 346.103 194.434 346.103 194.207L346.117 186.567C346.117 186.341 345.934 186.157 345.707 186.157Z" fill="black"/>
<path d="M366.867 186.167L359.287 186.153C359.077 186.153 358.907 186.323 358.907 186.533L358.893 194.193C358.893 194.403 359.063 194.573 359.273 194.573L366.853 194.587C367.063 194.587 367.233 194.417 367.233 194.207L367.247 186.547C367.247 186.337 367.077 186.167 366.867 186.167Z" fill="black"/>
<path d="M377.363 186.113L369.723 186.127C369.48 186.127 369.283 186.324 369.283 186.567L369.297 194.167C369.297 194.41 369.494 194.607 369.737 194.607L377.377 194.593C377.62 194.593 377.817 194.396 377.817 194.153L377.803 186.553C377.803 186.31 377.606 186.113 377.363 186.113Z" fill="black"/>
<path d="M124.395 186.157L116.715 186.183C116.478 186.184 116.286 186.377 116.287 186.615L116.313 194.155C116.314 194.392 116.507 194.584 116.745 194.583L124.425 194.557C124.662 194.556 124.854 194.363 124.853 194.125L124.827 186.585C124.826 186.348 124.633 186.156 124.395 186.157Z" fill="black"/>
<path d="M198.225 186.173L190.585 186.147C190.336 186.146 190.134 186.347 190.133 186.595L190.107 194.135C190.106 194.384 190.307 194.586 190.555 194.587L198.195 194.613C198.444 194.614 198.646 194.413 198.647 194.165L198.673 186.625C198.674 186.376 198.473 186.174 198.225 186.173Z" fill="black"/>
<path d="M219.297 186.167L211.637 186.153C211.394 186.153 211.197 186.35 211.197 186.593L211.183 194.153C211.183 194.396 211.38 194.593 211.623 194.593L219.283 194.607C219.526 194.607 219.723 194.41 219.723 194.167L219.737 186.607C219.737 186.364 219.54 186.167 219.297 186.167Z" fill="black"/>
<path d="M82.4427 196.733L74.4627 196.747C74.3136 196.747 74.1929 196.868 74.1932 197.017L74.2068 204.837C74.2071 204.987 74.3282 205.107 74.4773 205.107L82.4573 205.093C82.6064 205.093 82.7271 204.972 82.7268 204.823L82.7132 197.003C82.7129 196.853 82.5918 196.733 82.4427 196.733Z" fill="black"/>
<path d="M92.71 196.75H85.19C84.958 196.75 84.77 196.938 84.77 197.17V204.65C84.77 204.882 84.958 205.07 85.19 205.07H92.71C92.942 205.07 93.13 204.882 93.13 204.65V197.17C93.13 196.938 92.942 196.75 92.71 196.75Z" fill="black"/>
<path d="M145.633 196.743L137.753 196.757C137.593 196.757 137.463 196.887 137.463 197.047L137.477 204.767C137.477 204.928 137.607 205.057 137.767 205.057L145.647 205.043C145.807 205.043 145.937 204.913 145.937 204.753L145.923 197.033C145.923 196.872 145.793 196.743 145.633 196.743Z" fill="black"/>
<path d="M166.65 196.73H158.87C158.688 196.73 158.54 196.878 158.54 197.06V204.72C158.54 204.902 158.688 205.05 158.87 205.05H166.65C166.832 205.05 166.98 204.902 166.98 204.72V197.06C166.98 196.878 166.832 196.73 166.65 196.73Z" fill="black"/>
<path d="M187.64 196.73H180.06C179.845 196.73 179.67 196.905 179.67 197.12V204.72C179.67 204.935 179.845 205.11 180.06 205.11H187.64C187.855 205.11 188.03 204.935 188.03 204.72V197.12C188.03 196.905 187.855 196.73 187.64 196.73Z" fill="black"/>
<path d="M198.36 196.74H190.38C190.236 196.74 190.12 196.856 190.12 197V204.8C190.12 204.944 190.236 205.06 190.38 205.06H198.36C198.504 205.06 198.62 204.944 198.62 204.8V197C198.62 196.856 198.504 196.74 198.36 196.74Z" fill="black"/>
<path d="M219.453 196.723L211.473 196.737C211.324 196.737 211.203 196.858 211.203 197.007L211.217 204.787C211.217 204.937 211.338 205.057 211.487 205.057L219.467 205.043C219.616 205.043 219.737 204.922 219.737 204.773L219.723 196.993C219.723 196.843 219.602 196.723 219.453 196.723Z" fill="black"/>
<path d="M250.86 196.73H243.34C243.114 196.73 242.93 196.914 242.93 197.14V204.7C242.93 204.926 243.114 205.11 243.34 205.11H250.86C251.086 205.11 251.27 204.926 251.27 204.7V197.14C251.27 196.914 251.086 196.73 250.86 196.73Z" fill="black"/>
<path d="M261.6 196.76H253.64C253.496 196.76 253.38 196.876 253.38 197.02V204.78C253.38 204.924 253.496 205.04 253.64 205.04H261.6C261.744 205.04 261.86 204.924 261.86 204.78V197.02C261.86 196.876 261.744 196.76 261.6 196.76Z" fill="black"/>
<path d="M293.17 196.73H285.31C285.144 196.73 285.01 196.864 285.01 197.03V204.75C285.01 204.916 285.144 205.05 285.31 205.05H293.17C293.336 205.05 293.47 204.916 293.47 204.75V197.03C293.47 196.864 293.336 196.73 293.17 196.73Z" fill="black"/>
<path d="M324.64 196.75H317.08C316.87 196.75 316.7 196.92 316.7 197.13V204.67C316.7 204.88 316.87 205.05 317.08 205.05H324.64C324.85 205.05 325.02 204.88 325.02 204.67V197.13C325.02 196.92 324.85 196.75 324.64 196.75Z" fill="black"/>
<path d="M345.653 196.724L338.193 196.737C337.95 196.737 337.753 196.934 337.754 197.177L337.766 204.617C337.767 204.86 337.964 205.057 338.207 205.057L345.667 205.043C345.91 205.043 346.107 204.846 346.106 204.603L346.094 197.163C346.093 196.92 345.896 196.723 345.653 196.724Z" fill="black"/>
<path d="M377.557 196.747L369.577 196.733C369.434 196.733 369.317 196.849 369.317 196.993L369.303 204.813C369.303 204.956 369.419 205.073 369.563 205.073L377.543 205.087C377.686 205.087 377.803 204.971 377.803 204.827L377.817 197.007C377.817 196.864 377.701 196.747 377.557 196.747Z" fill="black"/>
<path d="M82.2051 207.207L74.6652 207.233C74.3946 207.234 74.176 207.454 74.1769 207.725L74.2031 215.245C74.2041 215.515 74.4242 215.734 74.6949 215.733L82.2348 215.707C82.5054 215.706 82.724 215.486 82.7231 215.215L82.6968 207.695C82.6959 207.425 82.4758 207.206 82.2051 207.207Z" fill="black"/>
<path d="M103.287 207.237L95.7474 207.223C95.4768 207.223 95.257 207.442 95.2566 207.713L95.2435 215.213C95.243 215.483 95.462 215.703 95.7326 215.703L103.273 215.717C103.543 215.717 103.763 215.498 103.763 215.227L103.777 207.727C103.777 207.457 103.558 207.237 103.287 207.237Z" fill="black"/>
<path d="M113.753 207.234L106.333 207.246C106.073 207.247 105.863 207.458 105.863 207.717L105.877 215.257C105.877 215.517 106.088 215.727 106.347 215.726L113.767 215.714C114.027 215.713 114.237 215.502 114.237 215.243L114.223 207.703C114.223 207.443 114.012 207.233 113.753 207.234Z" fill="black"/>
<path d="M134.927 207.237L127.387 207.223C127.178 207.223 127.007 207.393 127.007 207.603L126.993 215.343C126.993 215.553 127.163 215.723 127.373 215.723L134.913 215.737C135.122 215.737 135.293 215.567 135.293 215.357L135.307 207.617C135.307 207.407 135.137 207.237 134.927 207.237Z" fill="black"/>
<path d="M177.043 207.233L169.523 207.247C169.252 207.247 169.033 207.467 169.033 207.737L169.047 215.237C169.047 215.508 169.267 215.727 169.537 215.727L177.057 215.713C177.328 215.713 177.547 215.493 177.547 215.223L177.533 207.723C177.533 207.452 177.313 207.233 177.043 207.233Z" fill="black"/>
<path d="M187.583 207.213L180.043 207.227C179.805 207.227 179.613 207.42 179.613 207.657L179.627 215.297C179.627 215.535 179.82 215.727 180.057 215.727L187.597 215.713C187.835 215.713 188.027 215.52 188.027 215.283L188.013 207.643C188.013 207.405 187.82 207.213 187.583 207.213Z" fill="black"/>
<path d="M208.637 207.247L201.177 207.233C200.945 207.233 200.757 207.421 200.757 207.653L200.743 215.293C200.743 215.525 200.931 215.713 201.163 215.713L208.623 215.726C208.855 215.727 209.043 215.539 209.043 215.307L209.057 207.667C209.057 207.435 208.869 207.247 208.637 207.247Z" fill="black"/>
<path d="M229.75 207.23H222.29C222.03 207.23 221.82 207.44 221.82 207.7V215.24C221.82 215.5 222.03 215.71 222.29 215.71H229.75C230.01 215.71 230.22 215.5 230.22 215.24V207.7C230.22 207.44 230.01 207.23 229.75 207.23Z" fill="black"/>
<path d="M240.327 207.247L232.747 207.233C232.482 207.233 232.267 207.447 232.267 207.713L232.253 215.213C232.253 215.478 232.468 215.693 232.733 215.693L240.313 215.707C240.578 215.707 240.793 215.493 240.793 215.227L240.807 207.727C240.807 207.462 240.592 207.247 240.327 207.247Z" fill="black"/>
<path d="M250.813 207.203L243.333 207.217C243.101 207.217 242.913 207.405 242.913 207.637L242.927 215.297C242.927 215.529 243.115 215.717 243.347 215.717L250.827 215.703C251.059 215.703 251.247 215.515 251.247 215.283L251.233 207.623C251.233 207.391 251.045 207.203 250.813 207.203Z" fill="black"/>
<path d="M314.067 207.247L306.547 207.233C306.282 207.233 306.067 207.448 306.067 207.713L306.053 215.213C306.053 215.478 306.268 215.693 306.533 215.693L314.053 215.707C314.318 215.707 314.533 215.492 314.533 215.227L314.547 207.727C314.547 207.462 314.332 207.247 314.067 207.247Z" fill="black"/>
<path d="M335.18 207.24H327.64C327.369 207.24 327.15 207.459 327.15 207.73V215.23C327.15 215.501 327.369 215.72 327.64 215.72H335.18C335.451 215.72 335.67 215.501 335.67 215.23V207.73C335.67 207.459 335.451 207.24 335.18 207.24Z" fill="black"/>
<path d="M356.233 207.233L348.733 207.247C348.451 207.247 348.223 207.476 348.224 207.757L348.237 215.197C348.237 215.479 348.466 215.707 348.747 215.707L356.247 215.693C356.529 215.693 356.757 215.464 356.756 215.183L356.744 207.743C356.743 207.461 356.514 207.233 356.233 207.233Z" fill="black"/>
<path d="M377.373 207.223L369.733 207.237C369.49 207.237 369.293 207.434 369.293 207.677L369.307 215.277C369.307 215.52 369.504 215.717 369.747 215.717L377.387 215.703C377.63 215.703 377.827 215.506 377.827 215.263L377.813 207.663C377.813 207.42 377.616 207.223 377.373 207.223Z" fill="black"/>
<path d="M82.34 217.79H74.58C74.3701 217.79 74.2 217.96 74.2 218.17V225.83C74.2 226.04 74.3701 226.21 74.58 226.21H82.34C82.5499 226.21 82.72 226.04 82.72 225.83V218.17C82.72 217.96 82.5499 217.79 82.34 217.79Z" fill="black"/>
<path d="M92.6527 217.814L85.2327 217.826C84.9676 217.827 84.7531 218.042 84.7535 218.307L84.7665 225.727C84.7669 225.992 84.9822 226.207 85.2473 226.206L92.6673 226.194C92.9324 226.193 93.1469 225.978 93.1465 225.713L93.1335 218.293C93.133 218.028 92.9178 217.813 92.6527 217.814Z" fill="black"/>
<path d="M124.483 217.813L116.703 217.827C116.504 217.827 116.343 217.989 116.343 218.187L116.357 225.867C116.357 226.066 116.519 226.227 116.717 226.227L124.497 226.213C124.696 226.213 124.857 226.051 124.857 225.853L124.843 218.173C124.843 217.974 124.681 217.813 124.483 217.813Z" fill="black"/>
<path d="M134.933 217.773L127.353 217.787C127.132 217.787 126.953 217.966 126.953 218.187L126.967 225.827C126.967 226.048 127.146 226.227 127.367 226.227L134.947 226.213C135.168 226.213 135.347 226.034 135.347 225.813L135.333 218.173C135.333 217.952 135.154 217.773 134.933 217.773Z" fill="black"/>
<path d="M145.563 217.813L137.803 217.827C137.598 217.827 137.433 217.993 137.433 218.197L137.447 225.817C137.447 226.022 137.613 226.187 137.817 226.187L145.577 226.173C145.782 226.173 145.947 226.007 145.947 225.803L145.933 218.183C145.933 217.978 145.767 217.813 145.563 217.813Z" fill="black"/>
<path d="M156.057 217.827L148.417 217.813C148.191 217.813 148.007 217.996 148.007 218.223L147.993 225.803C147.993 226.029 148.176 226.213 148.403 226.213L156.043 226.227C156.269 226.227 156.453 226.044 156.453 225.817L156.467 218.237C156.467 218.011 156.284 217.827 156.057 217.827Z" fill="black"/>
<path d="M166.553 217.823L158.933 217.837C158.695 217.837 158.503 218.03 158.503 218.267L158.517 225.767C158.517 226.005 158.71 226.197 158.947 226.197L166.567 226.183C166.805 226.183 166.997 225.99 166.997 225.753L166.983 218.253C166.983 218.015 166.79 217.823 166.553 217.823Z" fill="black"/>
<path d="M177.18 217.79H169.38C169.187 217.79 169.03 217.947 169.03 218.14V225.82C169.03 226.013 169.187 226.17 169.38 226.17H177.18C177.373 226.17 177.53 226.013 177.53 225.82V218.14C177.53 217.947 177.373 217.79 177.18 217.79Z" fill="black"/>
<path d="M187.567 217.807L180.107 217.793C179.848 217.793 179.637 218.003 179.636 218.263L179.624 225.703C179.623 225.962 179.833 226.173 180.093 226.173L187.553 226.187C187.812 226.187 188.023 225.977 188.023 225.717L188.036 218.277C188.037 218.018 187.827 217.807 187.567 217.807Z" fill="black"/>
<path d="M198.32 217.85H190.46C190.272 217.85 190.12 218.002 190.12 218.19V225.83C190.12 226.018 190.272 226.17 190.46 226.17H198.32C198.508 226.17 198.66 226.018 198.66 225.83V218.19C198.66 218.002 198.508 217.85 198.32 217.85Z" fill="black"/>
<path d="M208.577 217.796L201.277 217.784C200.979 217.783 200.737 218.024 200.736 218.323L200.724 225.643C200.723 225.941 200.964 226.183 201.263 226.184L208.563 226.196C208.861 226.197 209.103 225.956 209.104 225.657L209.116 218.337C209.117 218.039 208.876 217.797 208.577 217.796Z" fill="black"/>
<path d="M219.35 217.83H211.57C211.36 217.83 211.19 218 211.19 218.21V225.83C211.19 226.04 211.36 226.21 211.57 226.21H219.35C219.56 226.21 219.73 226.04 219.73 225.83V218.21C219.73 218 219.56 217.83 219.35 217.83Z" fill="black"/>
<path d="M261.543 217.843L253.723 217.857C253.54 217.857 253.393 218.005 253.393 218.187L253.407 225.847C253.407 226.03 253.555 226.177 253.737 226.177L261.557 226.163C261.74 226.163 261.887 226.015 261.887 225.833L261.873 218.173C261.873 217.99 261.725 217.843 261.543 217.843Z" fill="black"/>
<path d="M271.95 217.83H264.39C264.175 217.83 264 218.005 264 218.22V225.78C264 225.995 264.175 226.17 264.39 226.17H271.95C272.165 226.17 272.34 225.995 272.34 225.78V218.22C272.34 218.005 272.165 217.83 271.95 217.83Z" fill="black"/>
<path d="M293.097 217.827L285.397 217.813C285.187 217.813 285.017 217.983 285.017 218.193L285.003 225.833C285.003 226.042 285.173 226.213 285.383 226.213L293.083 226.227C293.293 226.227 293.463 226.057 293.463 225.847L293.477 218.207C293.477 217.998 293.307 217.827 293.097 217.827Z" fill="black"/>
<path d="M335.283 217.783L327.523 217.797C327.318 217.797 327.153 217.963 327.153 218.167L327.167 225.807C327.167 226.012 327.333 226.177 327.537 226.177L335.297 226.163C335.502 226.163 335.667 225.997 335.667 225.793L335.653 218.153C335.653 217.948 335.487 217.783 335.283 217.783Z" fill="black"/>
<path d="M377.503 217.783L369.603 217.797C369.437 217.797 369.303 217.932 369.303 218.097L369.317 225.917C369.317 226.083 369.452 226.217 369.617 226.217L377.517 226.203C377.683 226.203 377.817 226.068 377.817 225.903L377.803 218.083C377.803 217.917 377.668 217.783 377.503 217.783Z" fill="black"/>
<path d="M82.2426 228.263L74.6426 228.277C74.3885 228.277 74.1829 228.483 74.1834 228.737L74.1966 236.317C74.1971 236.571 74.4034 236.777 74.6574 236.777L82.2574 236.763C82.5115 236.763 82.717 236.557 82.7166 236.303L82.7034 228.723C82.7029 228.469 82.4966 228.263 82.2426 228.263Z" fill="black"/>
<path d="M103.303 228.273L95.7026 228.287C95.4486 228.287 95.243 228.493 95.2434 228.747L95.2566 236.307C95.2571 236.561 95.4634 236.767 95.7174 236.767L103.317 236.753C103.571 236.753 103.777 236.547 103.777 236.293L103.763 228.733C103.763 228.479 103.557 228.273 103.303 228.273Z" fill="black"/>
<path d="M124.38 228.27H116.8C116.546 228.27 116.34 228.476 116.34 228.73V236.29C116.34 236.544 116.546 236.75 116.8 236.75H124.38C124.634 236.75 124.84 236.544 124.84 236.29V228.73C124.84 228.476 124.634 228.27 124.38 228.27Z" fill="black"/>
<path d="M134.893 228.253L127.353 228.267C127.137 228.267 126.963 228.442 126.963 228.657L126.977 236.377C126.977 236.593 127.152 236.767 127.367 236.767L134.907 236.753C135.123 236.753 135.297 236.578 135.297 236.363L135.283 228.643C135.283 228.427 135.108 228.253 134.893 228.253Z" fill="black"/>
<path d="M155.955 228.247L148.455 228.273C148.201 228.274 147.996 228.481 147.997 228.735L148.023 236.315C148.024 236.569 148.231 236.774 148.485 236.773L155.985 236.747C156.239 236.746 156.444 236.539 156.443 236.285L156.417 228.705C156.416 228.451 156.209 228.246 155.955 228.247Z" fill="black"/>
<path d="M219.233 228.263L211.693 228.277C211.422 228.277 211.203 228.497 211.203 228.767L211.217 236.267C211.217 236.538 211.437 236.757 211.707 236.757L219.247 236.743C219.518 236.743 219.737 236.523 219.737 236.253L219.723 228.753C219.723 228.482 219.503 228.263 219.233 228.263Z" fill="black"/>
<path d="M240.353 228.283L232.693 228.297C232.461 228.297 232.273 228.485 232.273 228.717L232.287 236.357C232.287 236.589 232.475 236.777 232.707 236.777L240.367 236.763C240.599 236.763 240.787 236.575 240.787 236.343L240.773 228.703C240.773 228.471 240.585 228.283 240.353 228.283Z" fill="black"/>
<path d="M292.983 228.263L285.503 228.277C285.232 228.277 285.013 228.497 285.013 228.767L285.027 236.287C285.027 236.558 285.247 236.777 285.517 236.777L292.997 236.763C293.268 236.763 293.487 236.543 293.487 236.273L293.473 228.753C293.473 228.482 293.253 228.263 292.983 228.263Z" fill="black"/>
<path d="M314.107 228.297L306.547 228.283C306.288 228.283 306.077 228.493 306.077 228.753L306.063 236.273C306.063 236.532 306.273 236.743 306.533 236.743L314.093 236.757C314.352 236.757 314.563 236.547 314.563 236.287L314.577 228.767C314.577 228.508 314.367 228.297 314.107 228.297Z" fill="black"/>
<path d="M324.583 228.273L317.103 228.287C316.86 228.287 316.663 228.484 316.663 228.727L316.677 236.327C316.677 236.57 316.874 236.767 317.117 236.767L324.597 236.753C324.84 236.753 325.037 236.556 325.037 236.313L325.023 228.713C325.023 228.47 324.826 228.273 324.583 228.273Z" fill="black"/>
<path d="M345.655 228.287L338.175 228.313C337.943 228.314 337.756 228.503 337.757 228.735L337.783 236.354C337.784 236.586 337.973 236.774 338.205 236.773L345.685 236.747C345.917 236.746 346.104 236.557 346.103 236.325L346.077 228.705C346.076 228.474 345.887 228.286 345.655 228.287Z" fill="black"/>
<path d="M377.343 228.273L369.763 228.287C369.503 228.287 369.293 228.498 369.293 228.757L369.307 236.297C369.307 236.557 369.518 236.767 369.777 236.767L377.357 236.753C377.617 236.753 377.827 236.542 377.827 236.283L377.813 228.743C377.813 228.483 377.602 228.273 377.343 228.273Z" fill="black"/>
<path d="M82.4127 238.893L74.4727 238.907C74.307 238.907 74.1729 239.042 74.1732 239.207L74.1868 246.967C74.1871 247.133 74.3216 247.267 74.4873 247.267L82.4273 247.253C82.593 247.253 82.7271 247.118 82.7268 246.953L82.7132 239.193C82.7129 239.027 82.5784 238.893 82.4127 238.893Z" fill="black"/>
<path d="M240.438 238.899L232.578 238.941C232.391 238.942 232.239 239.095 232.24 239.282L232.28 246.922C232.281 247.11 232.434 247.262 232.622 247.261L240.482 247.219C240.67 247.218 240.821 247.065 240.82 246.878L240.78 239.238C240.779 239.05 240.626 238.898 240.438 238.899Z" fill="black"/>
<path d="M92.7673 238.957L85.1473 238.943C84.9374 238.943 84.767 239.113 84.7666 239.323L84.7534 246.883C84.753 247.093 84.9229 247.263 85.1328 247.263L92.7527 247.277C92.9626 247.277 93.133 247.107 93.1334 246.897L93.1466 239.337C93.147 239.127 92.9771 238.957 92.7673 238.957Z" fill="black"/>
<path d="M145.647 238.967L137.767 238.953C137.607 238.953 137.477 239.082 137.477 239.243L137.463 246.943C137.463 247.103 137.593 247.233 137.753 247.233L145.633 247.247C145.793 247.247 145.923 247.118 145.923 246.957L145.937 239.257C145.937 239.097 145.807 238.967 145.647 238.967Z" fill="black"/>
<path d="M166.64 238.95H158.88C158.692 238.95 158.54 239.102 158.54 239.29V246.91C158.54 247.098 158.692 247.25 158.88 247.25H166.64C166.828 247.25 166.98 247.098 166.98 246.91V239.29C166.98 239.102 166.828 238.95 166.64 238.95Z" fill="black"/>
<path d="M198.32 238.96H190.44C190.274 238.96 190.14 239.094 190.14 239.26V246.94C190.14 247.106 190.274 247.24 190.44 247.24H198.32C198.486 247.24 198.62 247.106 198.62 246.94V239.26C198.62 239.094 198.486 238.96 198.32 238.96Z" fill="black"/>
<path d="M229.78 238.95H222.26C222.017 238.95 221.82 239.147 221.82 239.39V246.81C221.82 247.053 222.017 247.25 222.26 247.25H229.78C230.023 247.25 230.22 247.053 230.22 246.81V239.39C230.22 239.147 230.023 238.95 229.78 238.95Z" fill="black"/>
<path d="M250.833 238.943L243.333 238.957C243.095 238.957 242.903 239.15 242.904 239.387L242.917 246.827C242.917 247.065 243.11 247.257 243.347 247.257L250.847 247.243C251.085 247.243 251.277 247.05 251.276 246.813L251.264 239.373C251.263 239.135 251.07 238.943 250.833 238.943Z" fill="black"/>
<path d="M261.59 238.97H253.65C253.495 238.97 253.37 239.095 253.37 239.25V246.97C253.37 247.125 253.495 247.25 253.65 247.25H261.59C261.745 247.25 261.87 247.125 261.87 246.97V239.25C261.87 239.095 261.745 238.97 261.59 238.97Z" fill="black"/>
<path d="M366.8 238.95H359.28C359.054 238.95 358.87 239.134 358.87 239.36V246.84C358.87 247.066 359.054 247.25 359.28 247.25H366.8C367.026 247.25 367.21 247.066 367.21 246.84V239.36C367.21 239.134 367.026 238.95 366.8 238.95Z" fill="black"/>
<path d="M82.2852 249.367L74.5853 249.393C74.3533 249.394 74.1659 249.583 74.1667 249.815L74.1933 257.435C74.1941 257.667 74.3828 257.854 74.6148 257.853L82.3147 257.827C82.5467 257.826 82.7341 257.637 82.7333 257.405L82.7067 249.785C82.7059 249.553 82.5172 249.366 82.2852 249.367Z" fill="black"/>
<path d="M92.7426 249.383L85.1426 249.397C84.9272 249.397 84.7529 249.572 84.7533 249.787L84.7667 257.447C84.7671 257.663 84.942 257.837 85.1574 257.837L92.7574 257.823C92.9727 257.823 93.1471 257.648 93.1467 257.433L93.1333 249.773C93.1329 249.557 92.958 249.383 92.7426 249.383Z" fill="black"/>
<path d="M293.093 249.413L285.393 249.427C285.183 249.427 285.013 249.598 285.013 249.807L285.027 257.487C285.027 257.697 285.197 257.867 285.407 257.867L293.107 257.853C293.317 257.853 293.487 257.682 293.487 257.473L293.473 249.793C293.473 249.583 293.302 249.413 293.093 249.413Z" fill="black"/>
<path d="M324.693 249.413L317.033 249.427C316.845 249.427 316.693 249.58 316.693 249.767L316.707 257.507C316.707 257.695 316.86 257.847 317.047 257.847L324.707 257.833C324.895 257.833 325.047 257.68 325.047 257.493L325.033 249.753C325.033 249.565 324.88 249.413 324.693 249.413Z" fill="black"/>
<path d="M124.455 249.433L116.755 249.407C116.534 249.406 116.354 249.584 116.353 249.805L116.327 257.465C116.326 257.686 116.504 257.866 116.725 257.867L124.425 257.893C124.646 257.894 124.826 257.716 124.827 257.495L124.853 249.835C124.854 249.614 124.676 249.434 124.455 249.433Z" fill="black"/>
<path d="M177.073 249.423L169.473 249.437C169.23 249.437 169.033 249.634 169.033 249.877L169.047 257.437C169.047 257.68 169.244 257.877 169.487 257.877L177.087 257.863C177.33 257.863 177.527 257.666 177.527 257.423L177.513 249.863C177.513 249.62 177.316 249.423 177.073 249.423Z" fill="black"/>
<path d="M208.69 249.43H201.17C200.938 249.43 200.75 249.618 200.75 249.85V257.45C200.75 257.682 200.938 257.87 201.17 257.87H208.69C208.922 257.87 209.11 257.682 209.11 257.45V249.85C209.11 249.618 208.922 249.43 208.69 249.43Z" fill="black"/>
<path d="M219.353 249.433L211.573 249.447C211.368 249.447 211.203 249.613 211.203 249.817L211.217 257.497C211.217 257.702 211.383 257.867 211.587 257.867L219.367 257.853C219.572 257.853 219.737 257.687 219.737 257.483L219.723 249.803C219.723 249.598 219.557 249.433 219.353 249.433Z" fill="black"/>
<path d="M282.563 249.413L274.883 249.427C274.662 249.427 274.483 249.606 274.483 249.827L274.497 257.447C274.497 257.668 274.676 257.847 274.897 257.847L282.577 257.833C282.798 257.833 282.977 257.654 282.977 257.433L282.963 249.813C282.963 249.592 282.784 249.413 282.563 249.413Z" fill="black"/>
<path d="M335.293 249.433L327.533 249.447C327.317 249.447 327.143 249.622 327.143 249.837L327.157 257.477C327.157 257.693 327.332 257.867 327.547 257.867L335.307 257.853C335.523 257.853 335.697 257.678 335.697 257.463L335.683 249.823C335.683 249.607 335.508 249.433 335.293 249.433Z" fill="black"/>
<path d="M345.76 249.43H338.16C337.934 249.43 337.75 249.614 337.75 249.84V257.46C337.75 257.686 337.934 257.87 338.16 257.87H345.76C345.986 257.87 346.17 257.686 346.17 257.46V249.84C346.17 249.614 345.986 249.43 345.76 249.43Z" fill="black"/>
<path d="M356.373 249.433L348.593 249.447C348.388 249.447 348.223 249.613 348.223 249.817L348.237 257.457C348.237 257.662 348.403 257.827 348.607 257.827L356.387 257.813C356.592 257.813 356.757 257.647 356.757 257.443L356.743 249.803C356.743 249.598 356.577 249.433 356.373 249.433Z" fill="black"/>
<path d="M377.407 249.447L369.707 249.433C369.481 249.433 369.297 249.616 369.297 249.843L369.283 257.443C369.283 257.669 369.466 257.853 369.693 257.853L377.393 257.867C377.619 257.867 377.803 257.684 377.803 257.457L377.817 249.857C377.817 249.631 377.634 249.447 377.407 249.447Z" fill="black"/>
<path d="M103.47 259.99H95.57C95.3988 259.99 95.26 260.129 95.26 260.3V268C95.26 268.171 95.3988 268.31 95.57 268.31H103.47C103.641 268.31 103.78 268.171 103.78 268V260.3C103.78 260.129 103.641 259.99 103.47 259.99Z" fill="black"/>
<path d="M124.5 259.99H116.68C116.492 259.99 116.34 260.142 116.34 260.33V268.03C116.34 268.218 116.492 268.37 116.68 268.37H124.5C124.688 268.37 124.84 268.218 124.84 268.03V260.33C124.84 260.142 124.688 259.99 124.5 259.99Z" fill="black"/>
<path d="M134.955 259.967L127.335 259.993C127.126 259.994 126.956 260.165 126.957 260.375L126.983 267.955C126.984 268.164 127.155 268.334 127.365 268.333L134.985 268.307C135.194 268.306 135.364 268.135 135.363 267.925L135.337 260.345C135.336 260.136 135.165 259.966 134.955 259.967Z" fill="black"/>
<path d="M145.55 259.99H137.81C137.6 259.99 137.43 260.16 137.43 260.37V267.93C137.43 268.14 137.6 268.31 137.81 268.31H145.55C145.76 268.31 145.93 268.14 145.93 267.93V260.37C145.93 260.16 145.76 259.99 145.55 259.99Z" fill="black"/>
<path d="M156.093 259.983L148.353 259.997C148.154 259.997 147.993 260.159 147.993 260.357L148.007 268.017C148.007 268.216 148.168 268.377 148.367 268.377L156.107 268.363C156.306 268.363 156.467 268.201 156.467 268.003L156.453 260.343C156.453 260.144 156.292 259.983 156.093 259.983Z" fill="black"/>
<path d="M166.557 259.987L158.957 259.973C158.72 259.973 158.527 260.165 158.527 260.403L158.513 267.923C158.513 268.16 158.705 268.353 158.943 268.353L166.543 268.367C166.78 268.367 166.973 268.175 166.973 267.937L166.987 260.417C166.987 260.18 166.795 259.987 166.557 259.987Z" fill="black"/>
<path d="M177.15 259.98H169.39C169.191 259.98 169.03 260.141 169.03 260.34V268C169.03 268.199 169.191 268.36 169.39 268.36H177.15C177.349 268.36 177.51 268.199 177.51 268V260.34C177.51 260.141 177.349 259.98 177.15 259.98Z" fill="black"/>
<path d="M208.737 259.987L201.137 259.973C200.927 259.973 200.757 260.143 200.757 260.353L200.743 267.973C200.743 268.183 200.913 268.353 201.123 268.353L208.723 268.367C208.933 268.367 209.103 268.197 209.103 267.987L209.117 260.367C209.117 260.157 208.947 259.987 208.737 259.987Z" fill="black"/>
<path d="M219.43 259.99H211.49C211.324 259.99 211.19 260.124 211.19 260.29V268.01C211.19 268.176 211.324 268.31 211.49 268.31H219.43C219.596 268.31 219.73 268.176 219.73 268.01V260.29C219.73 260.124 219.596 259.99 219.43 259.99Z" fill="black"/>
<path d="M240.405 259.986L232.625 260.014C232.421 260.014 232.256 260.181 232.257 260.385L232.283 267.985C232.284 268.189 232.45 268.354 232.655 268.354L240.435 268.326C240.639 268.326 240.804 268.159 240.803 267.955L240.777 260.355C240.776 260.151 240.61 259.986 240.405 259.986Z" fill="black"/>
<path d="M261.533 259.983L253.713 259.997C253.536 259.997 253.393 260.141 253.393 260.317L253.407 267.997C253.407 268.174 253.551 268.317 253.727 268.317L261.547 268.303C261.724 268.303 261.867 268.159 261.867 267.983L261.853 260.303C261.853 260.126 261.709 259.983 261.533 259.983Z" fill="black"/>
<path d="M293.103 259.973L285.363 259.987C285.164 259.987 285.003 260.149 285.003 260.347L285.017 267.967C285.017 268.166 285.178 268.327 285.377 268.327L293.117 268.313C293.316 268.313 293.477 268.151 293.477 267.953L293.463 260.333C293.463 260.134 293.302 259.973 293.103 259.973Z" fill="black"/>
<path d="M335.387 259.997L327.467 259.983C327.296 259.983 327.157 260.121 327.157 260.293L327.143 267.993C327.143 268.164 327.282 268.303 327.453 268.303L335.373 268.317C335.544 268.317 335.683 268.179 335.683 268.007L335.697 260.307C335.697 260.136 335.558 259.997 335.387 259.997Z" fill="black"/>
<path d="M345.72 259.98H338.14C337.925 259.98 337.75 260.155 337.75 260.37V267.93C337.75 268.145 337.925 268.32 338.14 268.32H345.72C345.935 268.32 346.11 268.145 346.11 267.93V260.37C346.11 260.155 345.935 259.98 345.72 259.98Z" fill="black"/>
<path d="M377.415 259.987L369.675 260.014C369.466 260.014 369.296 260.185 369.297 260.395L369.323 267.995C369.324 268.205 369.495 268.374 369.705 268.373L377.445 268.346C377.654 268.346 377.824 268.175 377.823 267.965L377.797 260.365C377.796 260.155 377.625 259.986 377.415 259.987Z" fill="black"/>
<path d="M124.467 270.487L116.727 270.473C116.518 270.473 116.347 270.643 116.347 270.853L116.333 278.553C116.333 278.762 116.503 278.933 116.713 278.933L124.453 278.947C124.662 278.947 124.833 278.777 124.833 278.567L124.847 270.867C124.847 270.658 124.677 270.487 124.467 270.487Z" fill="black"/>
<path d="M156.043 270.473L148.403 270.487C148.182 270.487 148.003 270.666 148.003 270.887L148.017 278.547C148.017 278.768 148.196 278.947 148.417 278.947L156.057 278.933C156.278 278.933 156.457 278.754 156.457 278.533L156.443 270.873C156.443 270.652 156.264 270.473 156.043 270.473Z" fill="black"/>
<path d="M166.587 270.487L158.927 270.473C158.706 270.473 158.527 270.652 158.527 270.873L158.513 278.533C158.513 278.754 158.692 278.933 158.913 278.933L166.573 278.947C166.794 278.947 166.973 278.768 166.973 278.547L166.987 270.887C166.987 270.666 166.808 270.487 166.587 270.487Z" fill="black"/>
<path d="M177.1 270.48H169.44C169.214 270.48 169.03 270.664 169.03 270.89V278.53C169.03 278.756 169.214 278.94 169.44 278.94H177.1C177.326 278.94 177.51 278.756 177.51 278.53V270.89C177.51 270.664 177.326 270.48 177.1 270.48Z" fill="black"/>
<path d="M208.71 270.48H201.11C200.911 270.48 200.75 270.641 200.75 270.84V278.58C200.75 278.779 200.911 278.94 201.11 278.94H208.71C208.909 278.94 209.07 278.779 209.07 278.58V270.84C209.07 270.641 208.909 270.48 208.71 270.48Z" fill="black"/>
<path d="M240.377 270.497L232.697 270.483C232.465 270.483 232.277 270.671 232.277 270.903L232.263 278.503C232.263 278.735 232.451 278.923 232.683 278.923L240.363 278.937C240.595 278.937 240.783 278.749 240.783 278.517L240.797 270.917C240.797 270.685 240.609 270.497 240.377 270.497Z" fill="black"/>
<path d="M250.843 270.493L243.303 270.507C243.082 270.507 242.903 270.686 242.903 270.907L242.917 278.547C242.917 278.768 243.096 278.947 243.317 278.947L250.857 278.933C251.078 278.933 251.257 278.754 251.257 278.533L251.243 270.893C251.243 270.672 251.064 270.493 250.843 270.493Z" fill="black"/>
<path d="M324.65 270.5H317.07C316.866 270.5 316.7 270.666 316.7 270.87V278.57C316.7 278.774 316.866 278.94 317.07 278.94H324.65C324.854 278.94 325.02 278.774 325.02 278.57V270.87C325.02 270.666 324.854 270.5 324.65 270.5Z" fill="black"/>
<path d="M82.2673 281.037L74.6274 281.023C74.3788 281.023 74.177 281.224 74.1766 281.473L74.1634 288.993C74.163 289.241 74.3641 289.443 74.6127 289.443L82.2526 289.457C82.5012 289.457 82.703 289.256 82.7034 289.007L82.7166 281.487C82.717 281.239 82.5159 281.037 82.2673 281.037Z" fill="black"/>
<path d="M92.7674 281.027L85.2074 281.013C84.9699 281.013 84.777 281.205 84.7766 281.443L84.7634 289.023C84.763 289.26 84.9552 289.453 85.1926 289.453L92.7526 289.467C92.9901 289.467 93.183 289.275 93.1834 289.037L93.1966 281.457C93.197 281.22 93.0048 281.027 92.7674 281.027Z" fill="black"/>
<path d="M103.283 281.023L95.7227 281.037C95.452 281.037 95.233 281.257 95.2335 281.527L95.2465 288.967C95.247 289.238 95.4667 289.457 95.7374 289.457L103.297 289.443C103.568 289.443 103.787 289.223 103.786 288.953L103.774 281.513C103.773 281.242 103.553 281.023 103.283 281.023Z" fill="black"/>
<path d="M113.86 281.02H106.26C106.045 281.02 105.87 281.195 105.87 281.41V289.07C105.87 289.285 106.045 289.46 106.26 289.46H113.86C114.075 289.46 114.25 289.285 114.25 289.07V281.41C114.25 281.195 114.075 281.02 113.86 281.02Z" fill="black"/>
<path d="M124.403 281.023L116.743 281.037C116.505 281.037 116.313 281.23 116.313 281.467L116.327 289.027C116.327 289.265 116.52 289.457 116.757 289.457L124.417 289.443C124.655 289.443 124.847 289.25 124.847 289.013L124.833 281.453C124.833 281.215 124.64 281.023 124.403 281.023Z" fill="black"/>
<path d="M145.473 281.023L137.913 281.037C137.664 281.037 137.463 281.239 137.463 281.487L137.477 289.007C137.477 289.256 137.679 289.457 137.927 289.457L145.487 289.443C145.736 289.443 145.937 289.241 145.937 288.993L145.923 281.473C145.923 281.224 145.721 281.023 145.473 281.023Z" fill="black"/>
<path d="M187.67 281.02H180.01C179.817 281.02 179.66 281.177 179.66 281.37V289.13C179.66 289.323 179.817 289.48 180.01 289.48H187.67C187.863 289.48 188.02 289.323 188.02 289.13V281.37C188.02 281.177 187.863 281.02 187.67 281.02Z" fill="black"/>
<path d="M240.303 281.033L232.763 281.047C232.492 281.047 232.273 281.267 232.274 281.537L232.286 288.977C232.287 289.248 232.507 289.467 232.777 289.467L240.317 289.453C240.588 289.453 240.807 289.233 240.806 288.963L240.794 281.523C240.793 281.252 240.573 281.033 240.303 281.033Z" fill="black"/>
<path d="M250.92 281.03H243.26C243.067 281.03 242.91 281.187 242.91 281.38V289.14C242.91 289.333 243.067 289.49 243.26 289.49H250.92C251.113 289.49 251.27 289.333 251.27 289.14V281.38C251.27 281.187 251.113 281.03 250.92 281.03Z" fill="black"/>
<path d="M261.49 281.03H253.75C253.54 281.03 253.37 281.2 253.37 281.41V289.09C253.37 289.3 253.54 289.47 253.75 289.47H261.49C261.7 289.47 261.87 289.3 261.87 289.09V281.41C261.87 281.2 261.7 281.03 261.49 281.03Z" fill="black"/>
<path d="M272.05 281.02H264.33C264.148 281.02 264 281.168 264 281.35V289.13C264 289.312 264.148 289.46 264.33 289.46H272.05C272.232 289.46 272.38 289.312 272.38 289.13V281.35C272.38 281.168 272.232 281.02 272.05 281.02Z" fill="black"/>
<path d="M282.503 281.013L274.923 281.027C274.669 281.027 274.463 281.233 274.463 281.487L274.477 289.027C274.477 289.281 274.683 289.487 274.937 289.487L282.517 289.473C282.771 289.473 282.977 289.267 282.977 289.013L282.963 281.473C282.963 281.219 282.757 281.013 282.503 281.013Z" fill="black"/>
<path d="M293.117 281.027L285.397 281.013C285.193 281.013 285.027 281.178 285.027 281.383L285.013 289.103C285.013 289.307 285.178 289.473 285.383 289.473L293.103 289.487C293.307 289.487 293.473 289.322 293.473 289.117L293.487 281.397C293.487 281.193 293.322 281.027 293.117 281.027Z" fill="black"/>
<path d="M303.527 281.027L296.027 281.013C295.762 281.013 295.547 281.228 295.547 281.493L295.533 288.973C295.533 289.238 295.748 289.453 296.013 289.453L303.513 289.467C303.778 289.467 303.993 289.252 303.993 288.987L304.007 281.507C304.007 281.242 303.792 281.027 303.527 281.027Z" fill="black"/>
<path d="M314.15 281.03H306.49C306.258 281.03 306.07 281.218 306.07 281.45V289.03C306.07 289.262 306.258 289.45 306.49 289.45H314.15C314.382 289.45 314.57 289.262 314.57 289.03V281.45C314.57 281.218 314.382 281.03 314.15 281.03Z" fill="black"/>
<path d="M324.67 281.02H317.05C316.84 281.02 316.67 281.19 316.67 281.4V289.08C316.67 289.29 316.84 289.46 317.05 289.46H324.67C324.88 289.46 325.05 289.29 325.05 289.08V281.4C325.05 281.19 324.88 281.02 324.67 281.02Z" fill="black"/>
<path d="M335.345 281.044L327.525 281.016C327.326 281.016 327.164 281.176 327.164 281.375L327.137 289.095C327.136 289.294 327.296 289.456 327.495 289.456L335.315 289.484C335.514 289.484 335.676 289.324 335.677 289.125L335.703 281.405C335.704 281.206 335.544 281.044 335.345 281.044Z" fill="black"/>
<path d="M345.693 281.013L338.133 281.027C337.917 281.027 337.743 281.202 337.743 281.417L337.757 289.077C337.757 289.293 337.932 289.467 338.147 289.467L345.707 289.453C345.923 289.453 346.097 289.278 346.097 289.063L346.083 281.403C346.083 281.187 345.908 281.013 345.693 281.013Z" fill="black"/>
<path d="M166.563 291.573L158.943 291.587C158.711 291.587 158.523 291.775 158.523 292.007L158.537 299.587C158.537 299.819 158.725 300.007 158.957 300.007L166.577 299.993C166.809 299.993 166.997 299.805 166.997 299.573L166.983 291.993C166.983 291.761 166.795 291.573 166.563 291.573Z" fill="black"/>
<path d="M187.653 291.543L180.033 291.557C179.823 291.557 179.653 291.727 179.653 291.937L179.667 299.617C179.667 299.827 179.837 299.997 180.047 299.997L187.667 299.983C187.877 299.983 188.047 299.813 188.047 299.603L188.033 291.923C188.033 291.713 187.862 291.543 187.653 291.543Z" fill="black"/>
<path d="M198.243 291.593L190.483 291.607C190.278 291.607 190.113 291.773 190.113 291.977L190.127 299.617C190.127 299.822 190.293 299.987 190.497 299.987L198.257 299.973C198.462 299.973 198.627 299.807 198.627 299.603L198.613 291.963C198.613 291.758 198.447 291.593 198.243 291.593Z" fill="black"/>
<path d="M219.283 291.583L211.643 291.597C211.394 291.597 211.193 291.799 211.193 292.047L211.207 299.547C211.207 299.796 211.409 299.997 211.657 299.997L219.297 299.983C219.546 299.983 219.747 299.781 219.747 299.533L219.733 292.033C219.733 291.784 219.531 291.583 219.283 291.583Z" fill="black"/>
<path d="M229.723 291.573L222.243 291.587C221.989 291.587 221.783 291.793 221.783 292.047L221.797 299.547C221.797 299.801 222.003 300.007 222.257 300.007L229.737 299.993C229.991 299.993 230.197 299.787 230.197 299.533L230.183 292.033C230.183 291.779 229.977 291.573 229.723 291.573Z" fill="black"/>
<path d="M250.843 291.543L243.363 291.557C243.131 291.557 242.943 291.745 242.943 291.977L242.957 299.577C242.957 299.809 243.145 299.997 243.377 299.997L250.857 299.983C251.089 299.983 251.277 299.795 251.277 299.563L251.263 291.963C251.263 291.731 251.075 291.543 250.843 291.543Z" fill="black"/>
<path d="M261.503 291.563L253.723 291.577C253.524 291.577 253.363 291.739 253.363 291.937L253.377 299.637C253.377 299.836 253.539 299.997 253.737 299.997L261.517 299.983C261.716 299.983 261.877 299.821 261.877 299.623L261.863 291.923C261.863 291.724 261.701 291.563 261.503 291.563Z" fill="black"/>
<path d="M282.53 291.56H274.91C274.673 291.56 274.48 291.753 274.48 291.99V299.57C274.48 299.807 274.673 300 274.91 300H282.53C282.767 300 282.96 299.807 282.96 299.57V291.99C282.96 291.753 282.767 291.56 282.53 291.56Z" fill="black"/>
<path d="M293.047 291.557L285.447 291.543C285.21 291.543 285.017 291.735 285.017 291.973L285.003 299.553C285.003 299.79 285.195 299.983 285.433 299.983L293.033 299.997C293.27 299.997 293.463 299.805 293.463 299.567L293.477 291.987C293.477 291.75 293.285 291.557 293.047 291.557Z" fill="black"/>
<path d="M335.235 291.537L327.555 291.563C327.323 291.564 327.136 291.753 327.137 291.985L327.163 299.585C327.164 299.817 327.353 300.004 327.585 300.003L335.265 299.977C335.497 299.976 335.684 299.787 335.683 299.555L335.657 291.955C335.656 291.723 335.467 291.536 335.235 291.537Z" fill="black"/>
<path d="M356.283 291.593L348.683 291.607C348.429 291.607 348.223 291.813 348.223 292.067L348.237 299.527C348.237 299.781 348.443 299.987 348.697 299.987L356.297 299.973C356.551 299.973 356.757 299.767 356.756 299.513L356.743 292.053C356.743 291.799 356.537 291.593 356.283 291.593Z" fill="black"/>
<path d="M377.37 291.59H369.75C369.501 291.59 369.3 291.791 369.3 292.04V299.54C369.3 299.789 369.501 299.99 369.75 299.99H377.37C377.619 299.99 377.82 299.789 377.82 299.54V292.04C377.82 291.791 377.619 291.59 377.37 291.59Z" fill="black"/>
<path d="M166.55 302.06H158.97C158.727 302.06 158.53 302.257 158.53 302.5V310.1C158.53 310.343 158.727 310.54 158.97 310.54H166.55C166.793 310.54 166.99 310.343 166.99 310.1V302.5C166.99 302.257 166.793 302.06 166.55 302.06Z" fill="black"/>
<path d="M177.157 302.097L169.397 302.083C169.199 302.083 169.037 302.244 169.037 302.443L169.023 310.163C169.023 310.361 169.184 310.523 169.383 310.523L177.143 310.537C177.341 310.537 177.503 310.376 177.503 310.177L177.517 302.457C177.517 302.259 177.356 302.097 177.157 302.097Z" fill="black"/>
<path d="M208.703 302.073L201.143 302.087C200.922 302.087 200.743 302.266 200.743 302.487L200.757 310.147C200.757 310.368 200.936 310.547 201.157 310.547L208.717 310.533C208.938 310.533 209.117 310.354 209.117 310.133L209.103 302.473C209.103 302.252 208.924 302.073 208.703 302.073Z" fill="black"/>
<path d="M219.315 302.093L211.655 302.067C211.412 302.066 211.214 302.262 211.213 302.505L211.187 310.045C211.186 310.288 211.382 310.486 211.625 310.487L219.285 310.513C219.528 310.514 219.726 310.318 219.727 310.075L219.753 302.535C219.754 302.292 219.558 302.094 219.315 302.093Z" fill="black"/>
<path d="M229.753 302.073L222.213 302.087C221.975 302.087 221.783 302.28 221.783 302.517L221.797 310.097C221.797 310.335 221.99 310.527 222.227 310.527L229.767 310.513C230.005 310.513 230.197 310.32 230.197 310.083L230.183 302.503C230.183 302.265 229.99 302.073 229.753 302.073Z" fill="black"/>
<path d="M271.975 302.057L264.375 302.083C264.16 302.084 263.986 302.259 263.987 302.475L264.013 310.175C264.014 310.39 264.189 310.564 264.405 310.563L272.005 310.537C272.22 310.536 272.394 310.361 272.393 310.145L272.367 302.445C272.366 302.23 272.191 302.056 271.975 302.057Z" fill="black"/>
<path d="M282.533 302.063L274.893 302.077C274.661 302.077 274.473 302.265 274.473 302.497L274.487 310.117C274.487 310.349 274.675 310.537 274.907 310.537L282.547 310.523C282.779 310.523 282.967 310.335 282.967 310.103L282.953 302.483C282.953 302.251 282.765 302.063 282.533 302.063Z" fill="black"/>
<path d="M293.107 302.077L285.387 302.063C285.183 302.063 285.017 302.228 285.017 302.433L285.003 310.153C285.003 310.357 285.168 310.523 285.373 310.523L293.093 310.537C293.297 310.537 293.463 310.372 293.463 310.167L293.477 302.447C293.477 302.243 293.312 302.077 293.107 302.077Z" fill="black"/>
<path d="M314.123 302.103L306.463 302.117C306.236 302.117 306.053 302.301 306.053 302.527L306.067 310.107C306.067 310.334 306.251 310.517 306.477 310.517L314.137 310.503C314.364 310.503 314.547 310.319 314.547 310.093L314.533 302.513C314.533 302.286 314.349 302.103 314.123 302.103Z" fill="black"/>
<path d="M335.207 302.067L327.627 302.053C327.368 302.053 327.157 302.263 327.157 302.523L327.143 310.043C327.143 310.302 327.353 310.513 327.613 310.513L335.193 310.527C335.452 310.527 335.663 310.317 335.663 310.057L335.677 302.537C335.677 302.278 335.467 302.067 335.207 302.067Z" fill="black"/>
<path d="M377.338 302.03L369.738 302.07C369.484 302.071 369.279 302.278 369.28 302.532L369.32 310.072C369.321 310.326 369.528 310.531 369.782 310.53L377.382 310.49C377.636 310.489 377.841 310.282 377.84 310.028L377.8 302.488C377.799 302.234 377.592 302.029 377.338 302.03Z" fill="black"/>
<path d="M166.653 312.663L158.853 312.677C158.67 312.677 158.523 312.825 158.523 313.007L158.537 320.727C158.537 320.91 158.685 321.057 158.867 321.057L166.667 321.043C166.85 321.043 166.997 320.895 166.997 320.713L166.983 312.993C166.983 312.81 166.835 312.663 166.653 312.663Z" fill="black"/>
<path d="M272.007 312.677L264.367 312.663C264.163 312.663 263.997 312.828 263.997 313.033L263.983 320.653C263.983 320.857 264.148 321.023 264.353 321.023L271.993 321.037C272.197 321.037 272.363 320.872 272.363 320.667L272.377 313.047C272.377 312.843 272.212 312.677 272.007 312.677Z" fill="black"/>
<path d="M177.2 312.68H169.34C169.169 312.68 169.03 312.819 169.03 312.99V320.73C169.03 320.901 169.169 321.04 169.34 321.04H177.2C177.371 321.04 177.51 320.901 177.51 320.73V312.99C177.51 312.819 177.371 312.68 177.2 312.68Z" fill="black"/>
<path d="M198.36 312.72H190.42C190.26 312.72 190.13 312.85 190.13 313.01V320.75C190.13 320.91 190.26 321.04 190.42 321.04H198.36C198.52 321.04 198.65 320.91 198.65 320.75V313.01C198.65 312.85 198.52 312.72 198.36 312.72Z" fill="black"/>
<path d="M208.703 312.673L201.083 312.687C200.884 312.687 200.723 312.848 200.723 313.047L200.737 320.687C200.737 320.886 200.898 321.047 201.097 321.047L208.717 321.033C208.916 321.033 209.077 320.872 209.077 320.673L209.063 313.033C209.063 312.834 208.902 312.673 208.703 312.673Z" fill="black"/>
<path d="M261.59 312.72H253.69C253.53 312.72 253.4 312.85 253.4 313.01V320.73C253.4 320.89 253.53 321.02 253.69 321.02H261.59C261.75 321.02 261.88 320.89 261.88 320.73V313.01C261.88 312.85 261.75 312.72 261.59 312.72Z" fill="black"/>
<path d="M282.643 312.673L274.783 312.687C274.612 312.687 274.473 312.826 274.473 312.997L274.487 320.737C274.487 320.909 274.626 321.047 274.797 321.047L282.657 321.033C282.829 321.033 282.967 320.894 282.967 320.723L282.953 312.983C282.953 312.811 282.814 312.673 282.643 312.673Z" fill="black"/>
<path d="M293.14 312.68H285.34C285.158 312.68 285.01 312.828 285.01 313.01V320.71C285.01 320.892 285.158 321.04 285.34 321.04H293.14C293.322 321.04 293.47 320.892 293.47 320.71V313.01C293.47 312.828 293.322 312.68 293.14 312.68Z" fill="black"/>
<path d="M335.373 312.673L327.473 312.687C327.296 312.687 327.153 312.831 327.153 313.007L327.167 320.727C327.167 320.904 327.311 321.047 327.487 321.047L335.387 321.033C335.564 321.033 335.707 320.889 335.707 320.713L335.693 312.993C335.693 312.816 335.549 312.673 335.373 312.673Z" fill="black"/>
<path d="M345.693 312.703L338.113 312.717C337.903 312.717 337.733 312.887 337.733 313.097L337.747 320.657C337.747 320.867 337.917 321.037 338.127 321.037L345.707 321.023C345.917 321.023 346.087 320.853 346.087 320.643L346.073 313.083C346.073 312.873 345.903 312.703 345.693 312.703Z" fill="black"/>
<path d="M166.523 323.183L158.983 323.197C158.734 323.197 158.533 323.399 158.533 323.647L158.547 331.187C158.547 331.436 158.749 331.637 158.997 331.637L166.537 331.623C166.786 331.623 166.987 331.421 166.987 331.173L166.973 323.633C166.973 323.384 166.771 323.183 166.523 323.183Z" fill="black"/>
<path d="M250.87 323.19H243.29C243.08 323.19 242.91 323.36 242.91 323.57V331.25C242.91 331.46 243.08 331.63 243.29 331.63H250.87C251.08 331.63 251.25 331.46 251.25 331.25V323.57C251.25 323.36 251.08 323.19 250.87 323.19Z" fill="black"/>
<path d="M293.097 323.197L285.417 323.183C285.202 323.183 285.027 323.357 285.027 323.573L285.013 331.233C285.013 331.448 285.187 331.623 285.403 331.623L293.083 331.637C293.298 331.637 293.473 331.463 293.473 331.247L293.487 323.587C293.487 323.372 293.313 323.197 293.097 323.197Z" fill="black"/>
<path d="M177.063 323.183L169.483 323.197C169.234 323.197 169.033 323.399 169.033 323.647L169.047 331.227C169.047 331.476 169.249 331.677 169.497 331.677L177.077 331.663C177.326 331.663 177.527 331.461 177.527 331.213L177.513 323.633C177.513 323.384 177.311 323.183 177.063 323.183Z" fill="black"/>
<path d="M198.17 323.2H190.61C190.345 323.2 190.13 323.415 190.13 323.68V331.16C190.13 331.425 190.345 331.64 190.61 331.64H198.17C198.435 331.64 198.65 331.425 198.65 331.16V323.68C198.65 323.415 198.435 323.2 198.17 323.2Z" fill="black"/>
<path d="M208.68 323.19H201.14C200.914 323.19 200.73 323.374 200.73 323.6V331.22C200.73 331.446 200.914 331.63 201.14 331.63H208.68C208.906 331.63 209.09 331.446 209.09 331.22V323.6C209.09 323.374 208.906 323.19 208.68 323.19Z" fill="black"/>
<path d="M219.277 323.207L211.657 323.193C211.403 323.193 211.197 323.399 211.197 323.653L211.183 331.153C211.183 331.407 211.389 331.613 211.643 331.613L219.263 331.627C219.517 331.627 219.723 331.422 219.723 331.167L219.737 323.667C219.737 323.413 219.531 323.207 219.277 323.207Z" fill="black"/>
<path d="M229.76 323.2H222.26C222.006 323.2 221.8 323.406 221.8 323.66V331.2C221.8 331.454 222.006 331.66 222.26 331.66H229.76C230.014 331.66 230.22 331.454 230.22 331.2V323.66C230.22 323.406 230.014 323.2 229.76 323.2Z" fill="black"/>
<path d="M240.333 323.193L232.713 323.207C232.459 323.207 232.253 323.413 232.253 323.667L232.267 331.187C232.267 331.441 232.473 331.647 232.727 331.647L240.347 331.633C240.601 331.633 240.807 331.427 240.807 331.173L240.793 323.653C240.793 323.399 240.587 323.193 240.333 323.193Z" fill="black"/>
<path d="M282.49 323.19H274.95C274.69 323.19 274.48 323.4 274.48 323.66V331.16C274.48 331.42 274.69 331.63 274.95 331.63H282.49C282.75 331.63 282.96 331.42 282.96 331.16V323.66C282.96 323.4 282.75 323.19 282.49 323.19Z" fill="black"/>
<path d="M303.517 323.197L296.037 323.183C295.767 323.183 295.547 323.402 295.547 323.673L295.533 331.153C295.533 331.423 295.752 331.643 296.023 331.643L303.503 331.657C303.773 331.657 303.993 331.438 303.993 331.167L304.007 323.687C304.007 323.417 303.788 323.197 303.517 323.197Z" fill="black"/>
<path d="M314.107 323.207L306.547 323.193C306.282 323.193 306.067 323.407 306.067 323.673L306.053 331.153C306.053 331.418 306.268 331.633 306.533 331.633L314.093 331.647C314.358 331.647 314.573 331.433 314.573 331.167L314.587 323.687C314.587 323.422 314.372 323.207 314.107 323.207Z" fill="black"/>
<path d="M324.623 323.193L317.063 323.207C316.836 323.207 316.653 323.391 316.653 323.617L316.667 331.257C316.667 331.484 316.851 331.667 317.077 331.667L324.637 331.653C324.864 331.653 325.047 331.469 325.047 331.243L325.033 323.603C325.033 323.376 324.849 323.193 324.623 323.193Z" fill="black"/>
<path d="M335.227 323.197L327.607 323.183C327.359 323.183 327.157 323.384 327.157 323.633L327.143 331.173C327.143 331.421 327.344 331.623 327.593 331.623L335.213 331.637C335.461 331.637 335.663 331.436 335.663 331.187L335.677 323.647C335.677 323.399 335.476 323.197 335.227 323.197Z" fill="black"/>
<path d="M177.177 333.757L169.397 333.743C169.21 333.743 169.057 333.895 169.057 334.083L169.043 341.803C169.043 341.99 169.195 342.143 169.383 342.143L177.163 342.157C177.35 342.157 177.503 342.005 177.503 341.817L177.517 334.097C177.517 333.91 177.365 333.757 177.177 333.757Z" fill="black"/>
<path d="M229.677 333.756L222.357 333.744C222.065 333.743 221.827 333.98 221.826 334.273L221.814 341.633C221.813 341.925 222.05 342.163 222.343 342.164L229.663 342.176C229.955 342.177 230.193 341.94 230.194 341.647L230.206 334.287C230.207 333.995 229.97 333.757 229.677 333.756Z" fill="black"/>
<path d="M261.57 333.79H253.69C253.53 333.79 253.4 333.92 253.4 334.08V341.86C253.4 342.02 253.53 342.15 253.69 342.15H261.57C261.73 342.15 261.86 342.02 261.86 341.86V334.08C261.86 333.92 261.73 333.79 261.57 333.79Z" fill="black"/>
<path d="M324.597 333.757L317.137 333.743C316.9 333.743 316.707 333.935 316.707 334.173L316.693 341.653C316.693 341.89 316.885 342.083 317.123 342.083L324.583 342.096C324.82 342.097 325.013 341.905 325.013 341.667L325.027 334.187C325.027 333.95 324.835 333.757 324.597 333.757Z" fill="black"/>
<path d="M366.633 333.764L359.433 333.776C359.118 333.777 358.863 334.032 358.864 334.347L358.876 341.607C358.877 341.922 359.133 342.177 359.447 342.176L366.647 342.164C366.962 342.163 367.217 341.908 367.216 341.593L367.204 334.333C367.203 334.018 366.947 333.763 366.633 333.764Z" fill="black"/>
<path d="M177.043 344.233L169.503 344.247C169.243 344.247 169.033 344.458 169.033 344.717L169.047 352.277C169.047 352.537 169.258 352.747 169.517 352.747L177.057 352.733C177.317 352.733 177.527 352.522 177.527 352.263L177.513 344.703C177.513 344.443 177.302 344.233 177.043 344.233Z" fill="black"/>
<path d="M198.157 344.267L190.637 344.253C190.35 344.253 190.117 344.485 190.116 344.773L190.104 352.193C190.103 352.48 190.335 352.713 190.623 352.713L198.143 352.727C198.43 352.727 198.663 352.495 198.664 352.207L198.676 344.787C198.677 344.5 198.445 344.267 198.157 344.267Z" fill="black"/>
<path d="M208.603 344.244L201.183 344.256C200.929 344.257 200.723 344.463 200.723 344.717L200.737 352.277C200.737 352.531 200.943 352.737 201.197 352.736L208.617 352.724C208.871 352.723 209.077 352.517 209.077 352.263L209.063 344.703C209.063 344.449 208.857 344.243 208.603 344.244Z" fill="black"/>
<path d="M229.773 344.223L222.253 344.237C222.01 344.237 221.813 344.434 221.813 344.677L221.827 352.297C221.827 352.54 222.024 352.737 222.267 352.737L229.787 352.723C230.03 352.723 230.227 352.526 230.227 352.283L230.213 344.663C230.213 344.42 230.016 344.223 229.773 344.223Z" fill="black"/>
<path d="M240.377 344.257L232.697 344.243C232.46 344.243 232.267 344.435 232.267 344.673L232.253 352.293C232.253 352.53 232.445 352.723 232.683 352.723L240.363 352.737C240.6 352.737 240.793 352.545 240.793 352.307L240.807 344.687C240.807 344.45 240.615 344.257 240.377 344.257Z" fill="black"/>
<path d="M250.87 344.24H243.31C243.089 344.24 242.91 344.419 242.91 344.64V352.34C242.91 352.561 243.089 352.74 243.31 352.74H250.87C251.091 352.74 251.27 352.561 251.27 352.34V344.64C251.27 344.419 251.091 344.24 250.87 344.24Z" fill="black"/>
<path d="M261.443 344.233L253.783 344.247C253.545 344.247 253.353 344.44 253.353 344.677L253.367 352.297C253.367 352.535 253.56 352.727 253.797 352.727L261.457 352.713C261.695 352.713 261.887 352.52 261.887 352.283L261.873 344.663C261.873 344.425 261.68 344.233 261.443 344.233Z" fill="black"/>
<path d="M282.47 344.25H274.99C274.714 344.25 274.49 344.474 274.49 344.75V352.23C274.49 352.506 274.714 352.73 274.99 352.73H282.47C282.746 352.73 282.97 352.506 282.97 352.23V344.75C282.97 344.474 282.746 344.25 282.47 344.25Z" fill="black"/>
<path d="M293.027 344.237L285.487 344.223C285.228 344.223 285.017 344.433 285.017 344.693L285.003 352.253C285.003 352.512 285.213 352.723 285.473 352.723L293.013 352.737C293.272 352.737 293.483 352.527 293.483 352.267L293.497 344.707C293.497 344.448 293.287 344.237 293.027 344.237Z" fill="black"/>
<path d="M303.487 344.247L296.047 344.234C295.766 344.233 295.537 344.461 295.537 344.743L295.523 352.223C295.523 352.504 295.751 352.733 296.033 352.734L303.473 352.746C303.754 352.747 303.983 352.519 303.983 352.237L303.997 344.757C303.997 344.476 303.769 344.247 303.487 344.247Z" fill="black"/>
<path d="M356.253 344.243L348.713 344.257C348.442 344.257 348.223 344.477 348.223 344.747L348.237 352.247C348.237 352.518 348.457 352.737 348.727 352.737L356.267 352.723C356.538 352.723 356.757 352.503 356.757 352.233L356.743 344.733C356.743 344.462 356.523 344.243 356.253 344.243Z" fill="black"/>
<path d="M366.813 344.223L359.233 344.237C359.001 344.237 358.813 344.425 358.813 344.657L358.827 352.337C358.827 352.569 359.015 352.757 359.247 352.757L366.827 352.743C367.059 352.743 367.247 352.555 367.247 352.323L367.233 344.643C367.233 344.411 367.045 344.223 366.813 344.223Z" fill="black"/>
<path d="M377.373 344.243L369.733 344.257C369.484 344.257 369.283 344.459 369.283 344.707L369.297 352.287C369.297 352.536 369.499 352.737 369.747 352.737L377.387 352.723C377.636 352.723 377.837 352.521 377.837 352.273L377.823 344.693C377.823 344.444 377.621 344.243 377.373 344.243Z" fill="black"/>
<path d="M177.12 354.82H169.42C169.21 354.82 169.04 354.99 169.04 355.2V362.82C169.04 363.03 169.21 363.2 169.42 363.2H177.12C177.33 363.2 177.5 363.03 177.5 362.82V355.2C177.5 354.99 177.33 354.82 177.12 354.82Z" fill="black"/>
<path d="M219.38 354.89H211.56C211.372 354.89 211.22 355.042 211.22 355.23V362.89C211.22 363.078 211.372 363.23 211.56 363.23H219.38C219.568 363.23 219.72 363.078 219.72 362.89V355.23C219.72 355.042 219.568 354.89 219.38 354.89Z" fill="black"/>
<path d="M240.433 354.813L232.633 354.827C232.434 354.827 232.273 354.989 232.273 355.187L232.287 362.847C232.287 363.046 232.448 363.207 232.647 363.207L240.447 363.193C240.646 363.193 240.807 363.031 240.807 362.833L240.793 355.173C240.793 354.974 240.631 354.813 240.433 354.813Z" fill="black"/>
<path d="M250.76 354.81H243.42C243.149 354.81 242.93 355.029 242.93 355.3V362.72C242.93 362.991 243.149 363.21 243.42 363.21H250.76C251.031 363.21 251.25 362.991 251.25 362.72V355.3C251.25 355.029 251.031 354.81 250.76 354.81Z" fill="black"/>
<path d="M324.59 354.89H317.13C316.893 354.89 316.7 355.083 316.7 355.32V362.78C316.7 363.017 316.893 363.21 317.13 363.21H324.59C324.827 363.21 325.02 363.017 325.02 362.78V355.32C325.02 355.083 324.827 354.89 324.59 354.89Z" fill="black"/>
<path d="M345.657 354.887L338.217 354.874C337.969 354.873 337.767 355.074 337.767 355.323L337.753 362.783C337.753 363.031 337.954 363.233 338.203 363.234L345.643 363.246C345.891 363.247 346.093 363.046 346.093 362.797L346.107 355.337C346.107 355.089 345.906 354.887 345.657 354.887Z" fill="black"/>
<path d="M366.723 354.804L359.383 354.816C359.101 354.817 358.873 355.046 358.874 355.327L358.886 362.747C358.887 363.029 359.116 363.257 359.397 363.256L366.737 363.244C367.019 363.243 367.247 363.014 367.246 362.733L367.234 355.313C367.233 355.031 367.004 354.803 366.723 354.804Z" fill="black"/>
<path d="M377.493 354.813L369.613 354.827C369.436 354.827 369.293 354.971 369.293 355.147L369.307 362.887C369.307 363.064 369.451 363.207 369.627 363.207L377.507 363.193C377.684 363.193 377.827 363.049 377.827 362.873L377.813 355.133C377.813 354.956 377.669 354.813 377.493 354.813Z" fill="black"/>
<path d="M198.207 365.337L190.587 365.323C190.339 365.323 190.137 365.524 190.137 365.773L190.123 373.313C190.123 373.561 190.324 373.763 190.573 373.763L198.193 373.777C198.441 373.777 198.643 373.576 198.643 373.327L198.657 365.787C198.657 365.539 198.456 365.337 198.207 365.337Z" fill="black"/>
<path d="M208.693 365.323L201.133 365.337C200.912 365.337 200.733 365.516 200.733 365.737L200.747 373.397C200.747 373.618 200.926 373.797 201.147 373.797L208.707 373.783C208.928 373.783 209.107 373.604 209.107 373.383L209.093 365.723C209.093 365.502 208.914 365.323 208.693 365.323Z" fill="black"/>
<path d="M219.263 365.313L211.663 365.327C211.403 365.327 211.193 365.538 211.193 365.797L211.207 373.317C211.207 373.577 211.418 373.787 211.677 373.787L219.277 373.773C219.537 373.773 219.747 373.562 219.747 373.303L219.733 365.783C219.733 365.523 219.522 365.313 219.263 365.313Z" fill="black"/>
<path d="M229.723 365.313L222.243 365.327C221.989 365.327 221.783 365.533 221.783 365.787L221.797 373.327C221.797 373.581 222.003 373.787 222.257 373.787L229.737 373.773C229.991 373.773 230.197 373.567 230.197 373.313L230.183 365.773C230.183 365.519 229.977 365.313 229.723 365.313Z" fill="black"/>
<path d="M271.913 365.313L264.413 365.327C264.186 365.327 264.003 365.511 264.003 365.737L264.017 373.397C264.017 373.624 264.201 373.807 264.427 373.807L271.927 373.793C272.154 373.793 272.337 373.609 272.337 373.383L272.323 365.723C272.323 365.496 272.139 365.313 271.913 365.313Z" fill="black"/>
<path d="M314.073 365.323L306.513 365.337C306.264 365.337 306.063 365.539 306.063 365.787L306.077 373.327C306.077 373.576 306.279 373.777 306.527 373.777L314.087 373.763C314.336 373.763 314.537 373.561 314.537 373.313L314.523 365.773C314.523 365.524 314.321 365.323 314.073 365.323Z" fill="black"/>
<path d="M335.217 365.347L327.637 365.333C327.372 365.333 327.157 365.547 327.157 365.813L327.143 373.293C327.143 373.558 327.358 373.773 327.623 373.773L335.203 373.787C335.468 373.787 335.683 373.573 335.683 373.307L335.697 365.827C335.697 365.562 335.482 365.347 335.217 365.347Z" fill="black"/>
<path d="M345.693 365.313L338.133 365.327C337.917 365.327 337.743 365.502 337.743 365.717L337.757 373.397C337.757 373.613 337.932 373.787 338.147 373.787L345.707 373.773C345.923 373.773 346.097 373.598 346.097 373.383L346.083 365.703C346.083 365.487 345.908 365.313 345.693 365.313Z" fill="black"/>
<path d="M366.807 365.307L359.307 365.293C359.081 365.293 358.897 365.476 358.897 365.703L358.883 373.363C358.883 373.589 359.066 373.773 359.293 373.773L366.793 373.787C367.019 373.787 367.203 373.604 367.203 373.377L367.217 365.717C367.217 365.491 367.034 365.307 366.807 365.307Z" fill="black"/>
</g>
<defs>
<clipPath id="clip0_0_1">
<rect width="390" height="390" fill="white"/>
</clipPath>
</defs>
</svg>
